<?xml version="1.0" standalone="no"?>
<!DOCTYPE svg PUBLIC "-//W3C//DTD SVG 1.1//EN" "http://www.w3.org/Graphics/SVG/1.1/DTD/svg11.dtd" >
<svg>
<metadata>
Created by FontForge 20090914 at Wed Aug  9 08:20:30 2017
 By www-data
Copyright (c) 2011 by Tarek Atrissi Design. All rights reserved.
</metadata>
<defs>
<font id="STC" horiz-adv-x="297" >
  <font-face 
    font-family="STC"
    font-weight="400"
    font-stretch="normal"
    units-per-em="1000"
    panose-1="1 0 5 0 0 0 0 2 0 6"
    ascent="800"
    descent="-200"
    x-height="436"
    cap-height="666"
    bbox="-126 -489 1327 894.471"
    underline-thickness="29"
    underline-position="-451"
    unicode-range="U+0020-U+FEFC"
  />
<missing-glyph horiz-adv-x="500" 
d="M62 0v562h375v-562h-375zM125 62h250v438h-250v-438z" />
    <glyph glyph-name="shaddehdamatan" unicode="&#x651;&#x64c;" horiz-adv-x="312" arabic-form="isolated" 
d="M110 618c13.333 0 21.5 3.33398 24.5 10.001s4.5 15.334 4.5 26.001v51c0 8.66699 4 13 12 13h26v-84c2.66699 -2.66699 5.66699 -5.16699 9 -7.5s7.16602 -4.33301 11.499 -6s9.5 -2.5 15.5 -2.5c9.33301 0.666992 16.833 2.5 22.5 5.5s8.5 11.5 8.5 25.5v56
c0 8.66699 4 13 12 13h26v-80c0 -18.667 -6.16699 -32.667 -18.5 -42s-26.166 -14 -41.499 -14c-8 0 -16.833 1.66699 -26.5 5s-18.5 9.66602 -26.5 18.999c-4 -6.66699 -10.667 -12.334 -20 -17.001s-21.333 -7 -36 -7h-7c-24 0 -42 5.33301 -54 16s-18 24 -18 40v80h26
c8 0 12 -4.33301 12 -13v-56c0 -14 3.83301 -22.667 11.5 -26s16.5 -5 26.5 -5zM241 876.001c11.333 -11.333 17.501 -23.166 18.501 -35.499s-1.5 -24 -7.5 -35s-15.167 -20.5 -27.5 -28.5s-25.5 -15 -39.5 -21c-22.667 -9.33301 -40.667 -12.833 -54 -10.5
s-24.666 14.166 -33.999 35.499c1.33301 -14.667 0 -26.334 -4 -35.001s-8 -14.667 -12 -18c-3.33301 -3.33301 -7 -4 -11 -2l-17 12c5.33301 6.66699 9.16602 14.5 11.499 23.5s3.5 18.167 3.5 27.5c0 3.33301 0.333008 6 1 8s3.33398 4 8.00098 6l20 9
c6.66699 2.66699 11.667 2.33398 15 -0.999023s5.66602 -6 6.99902 -8c2.66699 -4.66699 6.66699 -10.167 12 -16.5s10.666 -8.83301 15.999 -7.5s9 2.5 11 3.5s3.66699 2.16699 5 3.5c-6 3.33301 -11.167 7.5 -15.5 12.5s-8 11 -11 18s-3.83301 15.5 -2.5 25.5
c0.666992 10 4.66699 19.333 12 28s16.333 15.167 27 19.5s22 5.83301 34 4.5s23.333 -7.33301 34 -18zM195.001 801.001c8 4 14.667 8.66504 20 13.998c4 4.66699 6.83301 9.83398 8.5 15.501s-0.5 12.167 -6.5 19.5c-8.66699 10.667 -18.5 13.834 -29.5 9.50098
s-16.833 -11.833 -17.5 -22.5c-1.33301 -10.667 1.5 -18.667 8.5 -24s12.5 -9.33301 16.5 -12z" />
    <glyph glyph-name="shaddehkasratan" unicode="&#x651;&#x64d;" horiz-adv-x="264" arabic-form="isolated" 
d="M77 771c13.333 0 21.5 3.33398 24.5 10.001s4.5 15.334 4.5 26.001v51c0 8.66699 4 13 12 13h26v-84c2.66699 -2.66699 5.66699 -5.16699 9 -7.5s7.16602 -4.33301 11.499 -6s9.5 -2.5 15.5 -2.5c9.33301 0.666992 16.833 2.5 22.5 5.5s8.5 11.5 8.5 25.5v56
c0 8.66699 4 13 12 13h26v-80c0 -18.667 -6.16699 -32.667 -18.5 -42s-26.166 -14 -41.499 -14c-8 0 -16.833 1.66699 -26.5 5s-18.5 9.66602 -26.5 18.999c-4 -6.66699 -10.667 -12.334 -20 -17.001s-21.333 -7 -36 -7h-7c-24 0 -42 5.33301 -54 16s-18 24 -18 40v80h26
c8 0 12 -4.33301 12 -13v-56c0 -14 3.83301 -22.667 11.5 -26s16.5 -5 26.5 -5zM14 633.001c-6 -1.33301 -10.833 -0.5 -14.5 2.5s-5.5 6.5 -5.5 10.5v25l253 46c4 0.666992 7.33301 -0.5 10 -3.5s4 -6.16699 4 -9.5v-26zM14 565.001c-6 -1.33301 -10.833 -0.5 -14.5 2.5
s-5.5 6.5 -5.5 10.5v25l253 46c4 0.666992 7.33301 -0.5 10 -3.5s4 -6.16699 4 -9.5v-26z" />
    <glyph glyph-name="shaddehfatha" unicode="&#x651;&#x64e;" horiz-adv-x="312" arabic-form="isolated" 
d="M110 617c13.333 0 21.5 3.33398 24.5 10.001s4.5 15.334 4.5 26.001v51c0 8.66699 4 13 12 13h26v-84c2.66699 -2.66699 5.66699 -5.16699 9 -7.5s7.16602 -4.33301 11.499 -6s9.5 -2.5 15.5 -2.5c9.33301 0.666992 16.833 2.5 22.5 5.5s8.5 11.5 8.5 25.5v56
c0 8.66699 4 13 12 13h26v-80c0 -18.667 -6.16699 -32.667 -18.5 -42s-26.166 -14 -41.499 -14c-8 0 -16.833 1.66699 -26.5 5s-18.5 9.66602 -26.5 18.999c-4 -6.66699 -10.667 -12.334 -20 -17.001s-21.333 -7 -36 -7h-7c-24 0 -42 5.33301 -54 16s-18 24 -18 40v80h26
c8 0 12 -4.33301 12 -13v-56c0 -14 3.83301 -22.667 11.5 -26s16.5 -5 26.5 -5zM42 731.001c-6 -1.33301 -10.833 -0.5 -14.5 2.5s-5.5 6.5 -5.5 10.5v25l253 46c4 0.666992 7.33301 -0.5 10 -3.5s4 -6.16699 4 -9.5v-26z" />
    <glyph glyph-name="shaddehdamma" unicode="&#x651;&#x64f;" horiz-adv-x="312" arabic-form="isolated" 
d="M110 601c13.333 0 21.5 3.33398 24.5 10.001s4.5 15.334 4.5 26.001v51c0 8.66699 4 13 12 13h26v-84c2.66699 -2.66699 5.66699 -5.16699 9 -7.5s7.16602 -4.33301 11.499 -6s9.5 -2.5 15.5 -2.5c9.33301 0.666992 16.833 2.5 22.5 5.5s8.5 11.5 8.5 25.5v56
c0 8.66699 4 13 12 13h26v-80c0 -18.667 -6.16699 -32.667 -18.5 -42s-26.166 -14 -41.499 -14c-8 0 -16.833 1.66699 -26.5 5s-18.5 9.66602 -26.5 18.999c-4 -6.66699 -10.667 -12.334 -20 -17.001s-21.333 -7 -36 -7h-7c-24 0 -42 5.33301 -54 16s-18 24 -18 40v80h26
c8 0 12 -4.33301 12 -13v-56c0 -14 3.83301 -22.667 11.5 -26s16.5 -5 26.5 -5zM217 850.001c11.333 -11.333 17.4961 -23.1689 18.4961 -35.502s-1.33301 -24.166 -7 -35.499s-15 -21.333 -28 -30s-26.333 -15.5 -40 -20.5l-33 -12
c-8.33301 -3 -14.833 -5.16699 -19.5 -6.5c-8 -2 -13.667 0.666992 -17 8l-8 21c14.667 4 26.834 7.83301 36.501 11.5s16.167 6.83398 19.5 9.50098c-6 3.33301 -11.167 7.5 -15.5 12.5s-8.16602 11 -11.499 18s-4.33301 15.5 -3 25.5
c0.666992 10 4.83398 19.333 12.501 28s16.834 15.167 27.501 19.5s22 5.83301 34 4.5s23.333 -7.33301 34 -18zM170.996 774.998c8 4 14.333 8.66504 19 13.998c4 4.66699 6.83301 9.83398 8.5 15.501s-0.5 12.167 -6.5 19.5c-8.66699 10.667 -18.5 13.834 -29.5 9.50098
s-16.833 -11.833 -17.5 -22.5s2.5 -18.667 9.5 -24s12.5 -9.33301 16.5 -12z" />
    <glyph glyph-name="shaddehkasra" unicode="&#x651;&#x650;" horiz-adv-x="286" arabic-form="isolated" 
d="M96 709c13.333 0 21.5 3.33398 24.5 10.001s4.5 15.334 4.5 26.001v51c0 8.66699 4 13 12 13h26v-84c2.66699 -2.66699 5.66699 -5.16699 9 -7.5s7.16602 -4.33301 11.499 -6s9.5 -2.5 15.5 -2.5c9.33301 0.666992 16.833 2.5 22.5 5.5s8.5 11.5 8.5 25.5v56
c0 8.66699 4 13 12 13h26v-80c0 -18.667 -6.16699 -32.667 -18.5 -42s-26.166 -14 -41.499 -14c-8 0 -16.833 1.66699 -26.5 5s-18.5 9.66602 -26.5 18.999c-4 -6.66699 -10.667 -12.334 -20 -17.001s-21.333 -7 -36 -7h-7c-24 0 -42 5.33301 -54 16s-18 24 -18 40v80h26
c8 0 12 -4.33301 12 -13v-56c0 -14 3.83301 -22.667 11.5 -26s16.5 -5 26.5 -5zM33 572.001c-6 -1.33301 -10.833 -0.5 -14.5 2.5s-5.5 6.5 -5.5 10.5v25l253 46c4 0.666992 7.33301 -0.5 10 -3.5s4 -6.16699 4 -9.5v-26z" />
    <glyph glyph-name="lammeeminitial" unicode="&#xfedf;&#xfee4;" horiz-adv-x="802" arabic-form="initial" 
d="M738 201c0 -30 -2.66895 -57.3291 -8.00195 -81.9961s-14.666 -45.667 -27.999 -63s-31.5 -30.833 -54.5 -40.5s-51.833 -14.834 -86.5 -15.501h-19c-7.33301 0 -16 0.833008 -26 2.5s-20.167 4.33398 -30.5 8.00098s-20.5 8.16699 -30.5 13.5s-19 11.666 -27 18.999
c-7.33301 -20.667 -20.166 -38 -38.499 -52s-45.5 -21 -81.5 -21c-12 0 -27 1.5 -45 4.5s-36.333 6.5 -55 10.5s-39 9 -61 15h-168v75h96c-4 9.33301 -8 24.5 -12 45.5s-6 44.833 -6 71.5c0 29.333 5.16699 56.166 15.5 80.499s25.166 45.166 44.499 62.499
s42.666 30.666 69.999 39.999s58.333 14 93 14c17.333 0 35.333 -1.5 54 -4.5s36.334 -6.33301 53.001 -10s33.667 -7.83398 51 -12.501v-255c0.666992 -1.33301 3.33398 -3.66602 8.00098 -6.99902s11.167 -6.83301 19.5 -10.5s18.833 -7 31.5 -10s27.667 -4.5 45 -4.5h8
c38 0 65.833 8.16699 83.5 24.5s26.5 39.833 26.5 70.5v411c0 8 2.5 14.667 7.5 20s11.167 8 18.5 8h52v-408zM361.998 107.004l-0.00195312 194.998c-9.33301 1.33301 -20.5 3.33301 -33.5 6s-28.833 4 -47.5 4c-25.333 0 -47 -3.66699 -65 -11s-33 -16.833 -45 -28.5
s-20.833 -25.167 -26.5 -40.5s-8.5 -31 -8.5 -47c0 -17.333 0.833008 -32.833 2.5 -46.5s3.83398 -25.667 6.50098 -36s5.66699 -19.166 9 -26.499c14.667 -4.66699 28.834 -8.66699 42.501 -12l41 -10c13.667 -3.33301 25.5 -5.66602 35.5 -6.99902
c28 -5.33301 49.833 -3.5 65.5 5.5s23.5 27.167 23.5 54.5z" />
    <glyph glyph-name="aleffathatanfina" unicode="&#xfe8e;&#x64b;" horiz-adv-x="261" arabic-form="final" 
d="M67 609h49.999c7.33301 0 13.833 -2.66699 19.5 -8s8.5 -12 8.5 -20v-412c0 -30.667 8.83301 -54 26.5 -70s45.5 -24 83.5 -24h22v-75h-22c-37.333 0 -68.166 4.66699 -92.499 14s-43.5 22.666 -57.5 39.999s-23.833 38.333 -29.5 63s-8.5 52.334 -8.5 83.001v409z
M13.999 692c-6 -1.33301 -10.833 -0.5 -14.5 2.5s-5.5 6.5 -5.5 10.5v25l253 46c4 0.666992 7.33301 -0.5 10 -3.5s4 -6.16699 4 -9.5v-26zM13.999 623c-6 -1.33301 -10.833 -0.5 -14.5 2.5s-5.5 6.5 -5.5 10.5v25l253 46c4 0.666992 7.33301 -0.5 10 -3.5
s4 -6.16699 4 -9.5v-26z" />
    <glyph glyph-name="aleffathataniso" unicode="&#x627;&#x64b;" horiz-adv-x="234" arabic-form="isolated" 
d="M157 28c0 -8 -2.5 -14.667 -7.5 -20s-11.833 -8 -20.5 -8h-51v581c0 8 2.83301 14.667 8.5 20s12.167 8 19.5 8h51v-581zM5 691c-6 -1.33301 -10.833 -0.5 -14.5 2.5s-5.5 6.5 -5.5 10.5v25l253 46c4 0.666992 7.33301 -0.5 10 -3.5s4 -6.16699 4 -9.5v-26zM5 622
c-6 -1.33301 -10.833 -0.5 -14.5 2.5s-5.5 6.5 -5.5 10.5v25l253 46c4 0.666992 7.33301 -0.5 10 -3.5s4 -6.16699 4 -9.5v-26z" />
    <glyph glyph-name="lilah" unicode="&#xfedf;&#xfee0;&#x651;&#x670;&#xfeea;" horiz-adv-x="1087" arabic-form="isolated" 
d="M621 581c0 8 2.33398 14.6621 7.00098 19.9951s10.667 8 18 8h53v-502c5.33301 -6 12.333 -11.167 21 -15.5s19.334 -8.16602 32.001 -11.499s28 -5 46 -5h41c38 0 65.833 8.16699 83.5 24.5s26.5 39.833 26.5 70.5v411c0 8 2.5 14.667 7.5 20s11.167 8 18.5 8h52v-408
c0 -31.333 -2.83301 -59.333 -8.5 -84s-15.5 -45.667 -29.5 -63s-33.167 -30.666 -57.5 -39.999s-55.166 -14 -92.499 -14h-41c-8.66699 0 -18.167 1.16699 -28.5 3.5s-20.833 5.5 -31.5 9.5s-20.834 9.16699 -30.501 15.5s-17.834 13.833 -24.501 22.5
c-8 -13.333 -21.667 -25.166 -41 -35.499s-44 -15.5 -74 -15.5h-131c-10.667 0 -20.334 1.83301 -29.001 5.5s-16.5 8 -23.5 13s-12.833 10.167 -17.5 15.5s-8 10 -10 14c-4 -4 -9.5 -9.16699 -16.5 -15.5s-16 -12.333 -27 -18s-24 -10.667 -39 -15s-32.167 -6.5 -51.5 -6.5
c-20.667 0 -41.667 2.66699 -63 8s-40.833 15.666 -58.5 30.999s-32.167 36.833 -43.5 64.5s-17 63.834 -17 108.501c0 27.333 3.33301 52.833 10 76.5s17.5 44.334 32.5 62.001s34.333 31.5 58 41.5s52.834 15 87.501 15c23.333 0 46 -1.33301 68 -4s41.667 -5.66699 59 -9
c20 -3.33301 38.667 -7.33301 56 -12v-261c0 -13.333 4.16699 -23.166 12.5 -29.499s18.166 -9.5 29.499 -9.5h91c28 0 47.667 6.66699 59 20s17 31 17 53v433zM334.001 318.995c-17.333 4.66699 -34.833 7.66699 -52.5 9s-32.167 2 -43.5 2
c-16.667 0 -32.167 -1.66699 -46.5 -5s-26.833 -9.83301 -37.5 -19.5s-19 -22.667 -25 -39s-9 -37.5 -9 -63.5c0 -48.667 9.66699 -83.667 29 -105s46.666 -32 81.999 -32c18.667 0 34.334 2 47.001 6s23.5 8.83301 32.5 14.5s16.833 12.167 23.5 19.5v213z" />
    <glyph glyph-name="lamalefmaddaaboveiso" unicode="&#xfedf;&#xfe82;" horiz-adv-x="656" arabic-form="isolated" 
d="M271 536c-15.333 -13.333 -33 -21.667 -53 -25s-39.667 1 -59 13c-8.66699 4.66699 -16.334 9.66699 -23.001 15s-12.667 10.666 -18 15.999c-6 6 -11.667 12 -17 18c12 10.667 18.667 16.667 20 18c4 4 8.66699 5.83301 14 5.5s12 -3.83301 20 -10.5
c5.33301 -4 11.333 -8.16699 18 -12.5s13.5 -7.5 20.5 -9.5s14.167 -2.33301 21.5 -1s14.333 5 21 11c9.33301 9.33301 19.333 15.833 30 19.5s21.334 5.5 32.001 5.5c21.333 0 40.666 -6 57.999 -18s32.666 -25.667 45.999 -41l-22 -24
c-3.33301 -3.33301 -7.5 -4.66602 -12.5 -3.99902s-10.5 3.66699 -16.5 9c-15.333 13.333 -29.166 21.833 -41.499 25.5s-25.166 0.166992 -38.499 -10.5zM247 394.999c0 8 2.49902 14.667 7.49902 20s11.167 8 18.5 8h52v-348h83c38 0 65.833 8.16699 83.5 24.5
s26.5 39.833 26.5 70.5v410c0 8 2.5 14.833 7.5 20.5s11.167 8.5 18.5 8.5h52v-409c0 -30.667 -2.83301 -58.334 -8.5 -83.001s-15.5 -45.667 -29.5 -63s-33.167 -30.666 -57.5 -39.999s-55.166 -14 -92.499 -14h-358v44c0 10 2.33301 17.667 7 23s11 8 19 8h171v320v0z" />
    <glyph glyph-name="lamalefmaddaabovefina" unicode="&#xfee0;&#xfe82;" horiz-adv-x="696" arabic-form="final" 
d="M261 536c-15.333 -13.333 -33 -21.667 -53 -25s-39.667 1 -59 13c-8.66699 4.66699 -16.334 9.66699 -23.001 15s-12.667 10.666 -18 15.999c-6 6 -11.667 12 -17 18c12 10.667 18.667 16.667 20 18c4 4 8.66699 5.83301 14 5.5s12 -3.83301 20 -10.5
c5.33301 -4 11.333 -8.16699 18 -12.5s13.5 -7.5 20.5 -9.5s14.167 -2.33301 21.5 -1s14.333 5 21 11c9.33301 9.33301 19.333 15.833 30 19.5s21.334 5.5 32.001 5.5c21.333 0 40.666 -6 57.999 -18s32.666 -25.667 45.999 -41l-22 -24
c-3.33301 -3.33301 -7.5 -4.66602 -12.5 -3.99902s-10.5 3.66699 -16.5 9c-15.333 13.333 -29.166 21.833 -41.499 25.5s-25.166 0.166992 -38.499 -10.5zM39 43.999c0 7.33301 1.66602 14.333 4.99902 21s9 10 17 10h173v320c0 8 2.5 14.667 7.5 20s11.167 8 18.5 8h53
v-348h117c28 0 47.5 6.66699 58.5 20s16.5 31 16.5 53v432c0 8 2.5 14.833 7.5 20.5s11.167 8.5 18.5 8.5h53v-503c6 -6 14 -11.333 24 -16c8.66699 -4 19.5 -7.5 32.5 -10.5s29.167 -4.5 48.5 -4.5h19v-75h-19c-8.66699 0 -18.5 1 -29.5 3s-22 5 -33 9
s-21.667 9.16699 -32 15.5s-19.166 13.833 -26.499 22.5c-8 -13.333 -21.667 -25 -41 -35s-44 -15 -74 -15h-414v44z" />
    <glyph glyph-name="lamalefhamzaaboveiso" unicode="&#xfedf;&#xfe84;" horiz-adv-x="656" arabic-form="isolated" 
d="M169 483l0.000976562 25.9971c0 7.33301 1.83301 12.833 5.5 16.5s7.83398 5.5 12.501 5.5h8c-3.33301 4 -6 8.83301 -8 14.5s-3 13.834 -3 24.501c0 14 2.66699 26.5 8 37.5s12.666 19.833 21.999 26.5s20 11.334 32 14.001s24.667 4 38 4
c9.33301 0 18.333 -0.5 27 -1.5s16.5 -2.33301 23.5 -4s13.833 -3.16699 20.5 -4.5l-5 -29c-1.33301 -5.33301 -3.5 -9.5 -6.5 -12.5s-6.5 -4.16699 -10.5 -3.5c-1.33301 0 -6.83301 0.833008 -16.5 2.5s-20.167 2.5 -31.5 2.5c-21.333 0 -35.5 -3.83301 -42.5 -11.5
s-10.5 -14.834 -10.5 -21.501c0 -9.33301 2 -16.166 6 -20.499s8.33301 -7.83301 13 -10.5s10.167 -4.5 16.5 -5.5s12.166 -1.5 17.499 -1.5h51c5.33301 0 9 -1.66699 11 -5s3 -6.66602 3 -9.99902v-33h-181zM247.001 394.997c0 8 2.49902 14.667 7.49902 20
s11.167 8 18.5 8h52v-348h83c38 0 65.833 8.16699 83.5 24.5s26.5 39.833 26.5 70.5v410c0 8 2.5 14.833 7.5 20.5s11.167 8.5 18.5 8.5h52v-409c0 -30.667 -2.83301 -58.334 -8.5 -83.001s-15.5 -45.667 -29.5 -63s-33.167 -30.666 -57.5 -39.999s-55.166 -14 -92.499 -14
h-358v44c0 10 2.33301 17.667 7 23s11 8 19 8h171v320v0z" />
    <glyph glyph-name="lamalefhamzaabovefina" unicode="&#xfee0;&#xfe84;" horiz-adv-x="696" arabic-form="final" 
d="M159 483l0.000976562 25.9971c0 7.33301 1.83301 12.833 5.5 16.5s7.83398 5.5 12.501 5.5h8c-3.33301 4 -6 8.83301 -8 14.5s-3 13.834 -3 24.501c0 14 2.66699 26.5 8 37.5s12.666 19.833 21.999 26.5s20 11.334 32 14.001s24.667 4 38 4
c9.33301 0 18.333 -0.5 27 -1.5s16.5 -2.33301 23.5 -4s13.833 -3.16699 20.5 -4.5l-5 -29c-1.33301 -5.33301 -3.5 -9.5 -6.5 -12.5s-6.5 -4.16699 -10.5 -3.5c-1.33301 0 -6.83301 0.833008 -16.5 2.5s-20.167 2.5 -31.5 2.5c-21.333 0 -35.5 -3.83301 -42.5 -11.5
s-10.5 -14.834 -10.5 -21.501c0 -9.33301 2 -16.166 6 -20.499s8.33301 -7.83301 13 -10.5s10.167 -4.5 16.5 -5.5s12.166 -1.5 17.499 -1.5h51c5.33301 0 9 -1.66699 11 -5s3 -6.66602 3 -9.99902v-33h-181zM39.001 43.9971c0 7.33301 1.66602 14.333 4.99902 21
s9 10 17 10h173v320c0 8 2.5 14.667 7.5 20s11.167 8 18.5 8h53v-348h117c28 0 47.5 6.66699 58.5 20s16.5 31 16.5 53v432c0 8 2.5 14.833 7.5 20.5s11.167 8.5 18.5 8.5h53v-503c6 -6 14 -11.333 24 -16c8.66699 -4 19.5 -7.5 32.5 -10.5s29.167 -4.5 48.5 -4.5h19v-75
h-19c-8.66699 0 -18.5 1 -29.5 3s-22 5 -33 9s-21.667 9.16699 -32 15.5s-19.166 13.833 -26.499 22.5c-8 -13.333 -21.667 -25 -41 -35s-44 -15 -74 -15h-414v44z" />
    <glyph glyph-name="lamalefhamzabelowiso" unicode="&#xfedf;&#xfe88;" horiz-adv-x="656" arabic-form="isolated" 
d="M247 395c0 8 2.49902 14.667 7.49902 20s11.167 8 18.5 8h52v-348h83c38 0 65.833 8.16699 83.5 24.5s26.5 39.833 26.5 70.5v410c0 8 2.5 14.833 7.5 20.5s11.167 8.5 18.5 8.5h52v-409c0 -30.667 -2.83301 -58.334 -8.5 -83.001s-15.5 -45.667 -29.5 -63
s-33.167 -30.666 -57.5 -39.999s-55.166 -14 -92.499 -14h-358v44c0 10 2.33301 17.667 7 23s11 8 19 8h171v320v0zM158.999 -221l0.000976562 25.9971c0 7.33301 1.83301 12.833 5.5 16.5s7.83398 5.5 12.501 5.5h8c-3.33301 4 -6 8.83301 -8 14.5s-3 13.834 -3 24.501
c0 14 2.66699 26.5 8 37.5s12.666 19.833 21.999 26.5s20 11.334 32 14.001s24.667 4 38 4c9.33301 0 18.333 -0.5 27 -1.5s16.5 -2.33301 23.5 -4s13.833 -3.16699 20.5 -4.5l-5 -29c-1.33301 -5.33301 -3.5 -9.5 -6.5 -12.5s-6.5 -4.16699 -10.5 -3.5
c-1.33301 0 -6.83301 0.833008 -16.5 2.5s-20.167 2.5 -31.5 2.5c-21.333 0 -35.5 -3.83301 -42.5 -11.5s-10.5 -14.834 -10.5 -21.501c0 -9.33301 2 -16.166 6 -20.499s8.33301 -7.83301 13 -10.5s10.167 -4.5 16.5 -5.5s12.166 -1.5 17.499 -1.5h51
c5.33301 0 9 -1.66699 11 -5s3 -6.66602 3 -9.99902v-33h-181z" />
    <glyph glyph-name="lamalefhamzabelowfina" unicode="&#xfee0;&#xfe88;" horiz-adv-x="696" arabic-form="final" 
d="M39 44c0 7.33301 1.66602 14.333 4.99902 21s9 10 17 10h173v320c0 8 2.5 14.667 7.5 20s11.167 8 18.5 8h53v-348h117c28 0 47.5 6.66699 58.5 20s16.5 31 16.5 53v432c0 8 2.5 14.833 7.5 20.5s11.167 8.5 18.5 8.5h53v-503c6 -6 14 -11.333 24 -16
c8.66699 -4 19.5 -7.5 32.5 -10.5s29.167 -4.5 48.5 -4.5h19v-75h-19c-8.66699 0 -18.5 1 -29.5 3s-22 5 -33 9s-21.667 9.16699 -32 15.5s-19.166 13.833 -26.499 22.5c-8 -13.333 -21.667 -25 -41 -35s-44 -15 -74 -15h-414v44zM145.999 -221l0.000976562 25.9971
c0 7.33301 1.83301 12.833 5.5 16.5s7.83398 5.5 12.501 5.5h8c-3.33301 4 -6 8.83301 -8 14.5s-3 13.834 -3 24.501c0 14 2.66699 26.5 8 37.5s12.666 19.833 21.999 26.5s20 11.334 32 14.001s24.667 4 38 4c9.33301 0 18.333 -0.5 27 -1.5s16.5 -2.33301 23.5 -4
s13.833 -3.16699 20.5 -4.5l-5 -29c-1.33301 -5.33301 -3.5 -9.5 -6.5 -12.5s-6.5 -4.16699 -10.5 -3.5c-1.33301 0 -6.83301 0.833008 -16.5 2.5s-20.167 2.5 -31.5 2.5c-21.333 0 -35.5 -3.83301 -42.5 -11.5s-10.5 -14.834 -10.5 -21.501c0 -9.33301 2 -16.166 6 -20.499
s8.33301 -7.83301 13 -10.5s10.167 -4.5 16.5 -5.5s12.166 -1.5 17.499 -1.5h51c5.33301 0 9 -1.66699 11 -5s3 -6.66602 3 -9.99902v-33h-181z" />
    <glyph glyph-name="lamalefiso" unicode="&#xfedf;&#xfe8e;" horiz-adv-x="656" arabic-form="isolated" 
d="M247 395c0 8 2.49902 14.667 7.49902 20s11.167 8 18.5 8h52v-348h83c38 0 65.833 8.16699 83.5 24.5s26.5 39.833 26.5 70.5v410c0 8 2.5 14.833 7.5 20.5s11.167 8.5 18.5 8.5h52v-409c0 -30.667 -2.83301 -58.334 -8.5 -83.001s-15.5 -45.667 -29.5 -63
s-33.167 -30.666 -57.5 -39.999s-55.166 -14 -92.499 -14h-358v44c0 10 2.33301 17.667 7 23s11 8 19 8h171v320v0z" />
    <glyph glyph-name="lamaleffina" unicode="&#xfee0;&#xfe8e;" horiz-adv-x="696" arabic-form="final" 
d="M39 44c0 7.33301 1.66602 14.333 4.99902 21s9 10 17 10h173v320c0 8 2.5 14.667 7.5 20s11.167 8 18.5 8h53v-348h117c28 0 47.5 6.66699 58.5 20s16.5 31 16.5 53v432c0 8 2.5 14.833 7.5 20.5s11.167 8.5 18.5 8.5h53v-503c6 -6 14 -11.333 24 -16
c8.66699 -4 19.5 -7.5 32.5 -10.5s29.167 -4.5 48.5 -4.5h19v-75h-19c-8.66699 0 -18.5 1 -29.5 3s-22 5 -33 9s-21.667 9.16699 -32 15.5s-19.166 13.833 -26.499 22.5c-8 -13.333 -21.667 -25 -41 -35s-44 -15 -74 -15h-414v44z" />
    <glyph glyph-name="shaddahfathatan" unicode="&#x651;&#x64b;" horiz-adv-x="312" 
d="M115 615c13.333 0 21.5 3.33398 24.5 10.001s4.5 15.334 4.5 26.001v51c0 8.66699 4 13 12 13h26v-84c2.66699 -2.66699 5.66699 -5.16699 9 -7.5s7.16602 -4.33301 11.499 -6s9.5 -2.5 15.5 -2.5c9.33301 0.666992 16.833 2.5 22.5 5.5s8.5 11.5 8.5 25.5v56
c0 8.66699 4 13 12 13h26v-80c0 -18.667 -6.16699 -32.667 -18.5 -42s-26.166 -14 -41.499 -14c-8 0 -16.833 1.66699 -26.5 5s-18.5 9.66602 -26.5 18.999c-4 -6.66699 -10.667 -12.334 -20 -17.001s-21.333 -7 -36 -7h-7c-24 0 -42 5.33301 -54 16s-18 24 -18 40v80h26
c8 0 12 -4.33301 12 -13v-56c0 -14 3.83301 -22.667 11.5 -26s16.5 -5 26.5 -5zM47 799.001c-6 -1.33301 -10.833 -0.5 -14.5 2.5s-5.5 6.5 -5.5 10.5v25l253 46c4 0.666992 7.33301 -0.5 10 -3.5s4 -6.16699 4 -9.5v-26zM47 730.001c-6 -1.33301 -10.833 -0.5 -14.5 2.5
s-5.5 6.5 -5.5 10.5v25l253 46c4 0.666992 7.33301 -0.5 10 -3.5s4 -6.16699 4 -9.5v-26z" />
    <glyph glyph-name="faya" unicode="&#xfed3;&#xfef2;" horiz-adv-x="1053" 
d="M467 -164c11.333 0 23.666 1.6709 36.999 5.00391s25.5 8.66602 36.5 15.999s20.167 16.333 27.5 27s11 23.667 11 39c0 17.333 -4.16699 33.166 -12.5 47.499s-19.333 27.333 -33 39s-29.167 21.834 -46.5 30.501s-35 16 -53 22
c0.666992 2.66699 6.33398 19.334 17.001 50.001c2 7.33301 5.5 13.666 10.5 18.999s13.167 5.66602 24.5 0.999023l40 -17.5c14 -6.33301 29 -12.5 45 -18.5s33.333 -11 52 -15s39 -6 61 -6h120c33.333 0 60.666 4.83301 81.999 14.5s32 28.167 32 55.5
c-11.333 -6 -26.666 -11.167 -45.999 -15.5s-39.666 -6.5 -60.999 -6.5c-33.333 0 -61.333 3.83301 -84 11.5s-41 18.667 -55 33s-24 31.833 -30 52.5s-9 44 -9 70s3.5 49.167 10.5 69.5s18.167 37.666 33.5 51.999s35.333 25.333 60 33s55 11.5 91 11.5
c18.667 0 37.667 -2 57 -6s37.666 -8.83301 54.999 -14.5s34.666 -11.834 51.999 -18.501v-254c0 -21.333 -2.83301 -41.833 -8.5 -61.5s-15.5 -37 -29.5 -52s-33 -27 -57 -36s-54.333 -13.5 -91 -13.5h-171c4 -6 7.33301 -12.833 10 -20.5s5.16699 -16.834 7.5 -27.501
s3.5 -23.667 3.5 -39c0 -11.333 -2.83301 -25.666 -8.5 -42.999s-16.167 -34 -31.5 -50s-36.166 -29.667 -62.499 -41s-59.833 -17 -100.5 -17h-149c-32 0 -62.833 3.83301 -92.5 11.5s-55.667 20.667 -78 39s-40.166 43 -53.499 74s-20 69.833 -20 116.5
c0 15.333 1.16699 31.333 3.5 48s5.16602 33 8.49902 49s7.16602 31 11.499 45l11.5 38l44 -11c7.33301 -2 12 -5 14 -9s2 -10.667 0 -20l-12 -53.5c-5.33301 -24.333 -8 -53.166 -8 -86.499c0 -36.667 6 -66 18 -88s27.333 -38.833 46 -50.5s39.334 -19.334 62.001 -23.001
s44.667 -5.5 66 -5.5h142zM810 193.004c18.667 0 34.502 0.833008 47.502 2.5s24.167 3.83398 33.5 6.50098s17 5.66699 23 9v155c-16.667 5.33301 -32 9.66602 -46 12.999s-31 5 -51 5c-34 0 -60.667 -7.16699 -80 -21.5s-29 -40.5 -29 -78.5
c0 -18 2.66699 -32.833 8 -44.5s12.666 -21 21.999 -28s20.166 -11.833 32.499 -14.5s25.5 -4 39.5 -4zM786.002 607.004c0 14 4.83301 25.833 14.5 35.5s21.5 14.5 35.5 14.5s25.833 -4.83301 35.5 -14.5s14.5 -21.5 14.5 -35.5s-4.83301 -25.833 -14.5 -35.5
s-21.5 -14.5 -35.5 -14.5s-25.833 4.83301 -35.5 14.5s-14.5 21.5 -14.5 35.5zM253.002 -347.996c0 14 4.83301 25.833 14.5 35.5s21.5 14.5 35.5 14.5s25.833 -4.83301 35.5 -14.5s14.5 -21.5 14.5 -35.5s-4.83301 -25.833 -14.5 -35.5s-21.5 -14.5 -35.5 -14.5
s-25.833 4.83301 -35.5 14.5s-14.5 21.5 -14.5 35.5zM381.002 -347.996c0 14 4.83301 25.833 14.5 35.5s21.5 14.5 35.5 14.5s25.833 -4.83301 35.5 -14.5s14.5 -21.5 14.5 -35.5s-4.83301 -25.833 -14.5 -35.5s-21.5 -14.5 -35.5 -14.5s-25.833 4.83301 -35.5 14.5
s-14.5 21.5 -14.5 35.5z" />
    <glyph glyph-name="ala" unicode="&#xfecb;&#xfee0;&#xfbfd;" horiz-adv-x="1379" 
d="M753 581c0 8 2.33398 14.667 7.00098 20s10.667 8 18 8h53v-502c6 -6 13.667 -11.167 23 -15.5s20.5 -8.16602 33.5 -11.499s29.167 -5 48.5 -5h66c-7.33301 6.66699 -14.166 15.334 -20.499 26.001s-10.833 24 -13.5 40s-4 35.667 -4 59
c0 29.333 3.5 55.666 10.5 78.999s18.667 43.166 35 59.499s37.666 28.833 63.999 37.5s58.833 13 97.5 13c19.333 0 38 -1 56 -3s34.667 -4.33301 50 -7c17.333 -2.66699 34 -6 50 -10c-6.66699 -23.333 -10.667 -37 -12 -41c-3.33301 -9.33301 -8 -16 -14 -20
s-16 -4.66699 -30 -2l-43.5 5c-17.667 2 -39.834 3 -66.501 3c-24 0 -43.333 -3 -58 -9s-26.334 -14.167 -35.001 -24.5s-14.5 -22.666 -17.5 -36.999s-4.5 -29.5 -4.5 -45.5c0 -26 3.33301 -47.167 10 -63.5s14.5 -28.833 23.5 -37.5s18.333 -14.5 28 -17.5
s17.5 -4.5 23.5 -4.5h160c7.33301 0 13.833 -2.83301 19.5 -8.5s8.5 -12.167 8.5 -19.5v-47h-383c-17.333 0 -38 4 -62 12s-43.667 21 -59 39c-8 -13.333 -21.667 -25.166 -41 -35.499s-44 -15.5 -74 -15.5h-65c4 -6 7.33301 -12.833 10 -20.5s5.16699 -16.834 7.5 -27.501
s3.5 -23.667 3.5 -39c0 -11.333 -2.83301 -25.666 -8.5 -42.999s-16.167 -34 -31.5 -50s-36.166 -29.667 -62.499 -41s-59.833 -17 -100.5 -17h-149c-32 0 -62.833 3.83301 -92.5 11.5s-55.667 20.667 -78 39s-40.166 43 -53.499 74s-20 69.833 -20 116.5
c0 15.333 1.16699 31.333 3.5 48s5.16602 33 8.49902 49s7.16602 31 11.499 45l11.5 38l44 -11c6.66699 -2 11.167 -5.16699 13.5 -9.5s2.5 -10.833 0.5 -19.5l-12 -53.5c-5.33301 -24.333 -8 -53.166 -8 -86.499c0 -36.667 6 -66 18 -88s27.333 -38.833 46 -50.5
s39.334 -19.334 62.001 -23.001s44.667 -5.5 66 -5.5h142c11.333 0 23.666 1.66699 36.999 5s25.5 8.66602 36.5 15.999s20.167 16.333 27.5 27s11 23.667 11 39c0 17.333 -4.16699 33.166 -12.5 47.499s-19.333 27.333 -33 39s-29.167 21.834 -46.5 30.501s-35 16 -53 22
c0.666992 2.66699 6.33398 19.334 17.001 50.001c2 7.33301 5.5 13.666 10.5 18.999s13.167 5.66602 24.5 0.999023l40 -17.5c14 -6.33301 29 -12.5 45 -18.5s33.333 -11 52 -15c14.667 -3.33301 30.667 -5.33301 48 -6h13c24 1.33301 41.333 8 52 20
c11.333 13.333 17 31 17 53v433z" />
    <glyph glyph-name="hamza" unicode="&#x621;" horiz-adv-x="434" arabic-form="isolated" 
d="M77 0l0.000976562 40c0 13.333 3.5 22.666 10.5 27.999s13.5 7.66602 19.5 6.99902h11c-5.33301 6.66699 -9.5 14.5 -12.5 23.5s-4.5 21.5 -4.5 37.5c0 22 4.33301 41.667 13 59s20 30.833 34 40.5s30.667 16.834 50 21.501s39 7 59 7
c15.333 0 29.666 -0.833008 42.999 -2.5s25.5 -3.66699 36.5 -6s21.5 -4.83301 31.5 -7.5c-0.666992 -6 -1.5 -12.667 -2.5 -20s-2.5 -15.666 -4.5 -24.999c-1.33301 -8 -4.5 -14.5 -9.5 -19.5s-11.167 -7.16699 -18.5 -6.5c-2 0 -10.333 1.5 -25 4.5s-30.667 4.5 -48 4.5
s-31.333 -1.83301 -42 -5.5s-19.167 -8.16699 -25.5 -13.5s-10.666 -11 -12.999 -17s-3.5 -11.667 -3.5 -17c0 -14 3.16699 -24.333 9.5 -31s13.166 -12 20.499 -16s15.833 -6.83301 25.5 -8.5s19.167 -2.5 28.5 -2.5h79c8 0 13.667 -2 17 -6s5 -10 5 -18v-51h-284z" />
    <glyph glyph-name="alefmaddaaboveiso" unicode="&#x622;" horiz-adv-x="212" arabic-form="isolated" 
d="M141 695c-15.333 -13.333 -33 -21.667 -53 -25s-39.667 1 -59 13c-8.66699 4.66699 -16.334 9.66699 -23.001 15s-12.667 10.666 -18 15.999c-6 6 -11.667 12 -17 18c12 10.667 18.667 16.667 20 18c4 4 8.66699 5.83301 14 5.5s12 -3.83301 20 -10.5
c5.33301 -4 11.333 -8.16699 18 -12.5s13.5 -7.5 20.5 -9.5s14.167 -2.33301 21.5 -1s14.333 5 21 11c9.33301 9.33301 19.333 15.833 30 19.5s21.334 5.5 32.001 5.5c21.333 0 40.666 -6 57.999 -18s32.666 -25.667 45.999 -41l-22 -24
c-3.33301 -3.33301 -7.5 -4.66602 -12.5 -3.99902s-10.5 3.66699 -16.5 9c-15.333 13.333 -29.166 21.833 -41.499 25.5s-25.166 0.166992 -38.499 -10.5zM157 27.999c0 -8 -2.5 -14.667 -7.5 -20s-11.833 -8 -20.5 -8h-51v581c0 8 2.83301 14.667 8.5 20s12.167 8 19.5 8
h51v-581z" />
    <glyph glyph-name="alefhamzaaboveiso" unicode="&#x623;" horiz-adv-x="212" arabic-form="isolated" 
d="M11 663l0.000976562 25.9971c0 7.33301 1.83301 12.833 5.5 16.5s7.83398 5.5 12.501 5.5h8c-3.33301 4 -6 8.83301 -8 14.5s-3 13.834 -3 24.501c0 14 2.66699 26.5 8 37.5s12.666 19.833 21.999 26.5s20 11.334 32 14.001s24.667 4 38 4c9.33301 0 18.333 -0.5 27 -1.5
s16.5 -2.33301 23.5 -4s13.833 -3.16699 20.5 -4.5l-5 -29c-1.33301 -5.33301 -3.5 -9.5 -6.5 -12.5s-6.5 -4.16699 -10.5 -3.5c-1.33301 0 -6.83301 0.833008 -16.5 2.5s-20.167 2.5 -31.5 2.5c-21.333 0 -35.5 -3.83301 -42.5 -11.5s-10.5 -14.834 -10.5 -21.501
c0 -9.33301 2 -16.166 6 -20.499s8.33301 -7.83301 13 -10.5s10.167 -4.5 16.5 -5.5s12.166 -1.5 17.499 -1.5h51c5.33301 0 9 -1.66699 11 -5s3 -6.66602 3 -9.99902v-33h-181zM157.001 27.9971c0 -8 -2.5 -14.667 -7.5 -20s-11.833 -8 -20.5 -8h-51v581
c0 8 2.83301 14.667 8.5 20s12.167 8 19.5 8h51v-581z" />
    <glyph glyph-name="wawhamzaiso" unicode="&#x624;" horiz-adv-x="485" arabic-form="isolated" 
d="M277 389c21.333 0 41.5 -1.50098 60.5 -4.50098s36.5 -6.33301 52.5 -10s31.333 -7.83398 46 -12.501v-366c0 -43.333 -3.66699 -79.333 -11 -108s-18.5 -51.5 -33.5 -68.5s-33.833 -29 -56.5 -36s-49 -10.5 -79 -10.5c-6 0 -13.667 0.333008 -23 1s-19 1.5 -29 2.5
s-19.667 2.5 -29 4.5s-17 4 -23 6c-7.33301 2.66699 -12.833 6.5 -16.5 11.5s-4.16699 12.5 -1.5 22.5l10 42c12 -2.66699 23.833 -5.16699 35.5 -7.5s24 -4.33301 37 -6s25.833 -2.5 38.5 -2.5c24 0 43.167 4 57.5 12s25 18.5 32 31.5s11.5 27.5 13.5 43.5s3 32 3 48v29
c-6.66699 -2.66699 -14 -5 -22 -7s-17.5 -3.66699 -28.5 -5s-23.167 -2 -36.5 -2c-22.667 0 -46.5 2.33301 -71.5 7s-48.167 13.834 -69.5 27.501s-39 33 -53 58s-21 57.833 -21 98.5c0 36.667 6 67.834 18 93.501s28 46.5 48 62.5s43.167 27.5 69.5 34.5
s53.833 10.5 82.5 10.5zM358 308.999c-9.33301 3.33301 -21.9971 6 -37.9971 8s-31.667 3 -47 3c-38 0 -69.5 -10.167 -94.5 -30.5s-37.5 -53.166 -37.5 -98.499c0 -23.333 3.66699 -42.833 11 -58.5s17.166 -28.167 29.499 -37.5s26.666 -16 42.999 -20
s33.166 -6 50.499 -6c15.333 0 28.333 0.666992 39 2s19.5 3.16602 26.5 5.49902s12.833 4.83301 17.5 7.5v225zM166.003 451.999l0.000976562 25.9971c0 7.33301 1.83301 12.833 5.5 16.5s7.83398 5.5 12.501 5.5h8c-3.33301 4 -6 8.83301 -8 14.5s-3 13.834 -3 24.501
c0 14 2.66699 26.5 8 37.5s12.666 19.833 21.999 26.5s20 11.334 32 14.001s24.667 4 38 4c9.33301 0 18.333 -0.5 27 -1.5s16.5 -2.33301 23.5 -4s13.833 -3.16699 20.5 -4.5l-5 -29c-1.33301 -5.33301 -3.5 -9.5 -6.5 -12.5s-6.5 -4.16699 -10.5 -3.5
c-1.33301 0 -6.83301 0.833008 -16.5 2.5s-20.167 2.5 -31.5 2.5c-21.333 0 -35.5 -3.83301 -42.5 -11.5s-10.5 -14.834 -10.5 -21.501c0 -9.33301 2 -16.166 6 -20.499s8.33301 -7.83301 13 -10.5s10.167 -4.5 16.5 -5.5s12.166 -1.5 17.499 -1.5h51
c5.33301 0 9 -1.66699 11 -5s3 -6.66602 3 -9.99902v-33h-181z" />
    <glyph glyph-name="alefhamzabelowiso" unicode="&#x625;" horiz-adv-x="212" arabic-form="isolated" 
d="M157 28c0 -8 -2.5 -14.667 -7.5 -20s-11.833 -8 -20.5 -8h-51v581c0 8 2.83301 14.667 8.5 20s12.167 8 19.5 8h51v-581zM11 -213l0.000976562 25.9971c0 7.33301 1.83301 12.833 5.5 16.5s7.83398 5.5 12.501 5.5h8c-3.33301 4 -6 8.83301 -8 14.5s-3 13.834 -3 24.501
c0 14 2.66699 26.5 8 37.5s12.666 19.833 21.999 26.5s20 11.334 32 14.001s24.667 4 38 4c9.33301 0 18.333 -0.5 27 -1.5s16.5 -2.33301 23.5 -4s13.833 -3.16699 20.5 -4.5l-5 -29c-1.33301 -5.33301 -3.5 -9.5 -6.5 -12.5s-6.5 -4.16699 -10.5 -3.5
c-1.33301 0 -6.83301 0.833008 -16.5 2.5s-20.167 2.5 -31.5 2.5c-21.333 0 -35.5 -3.83301 -42.5 -11.5s-10.5 -14.834 -10.5 -21.501c0 -9.33301 2 -16.166 6 -20.499s8.33301 -7.83301 13 -10.5s10.167 -4.5 16.5 -5.5s12.166 -1.5 17.499 -1.5h51
c5.33301 0 9 -1.66699 11 -5s3 -6.66602 3 -9.99902v-33h-181z" />
    <glyph glyph-name="hamzakirsehiso" unicode="&#x626;" horiz-adv-x="764" arabic-form="isolated" 
d="M691 349c-0.666992 -5.33301 -1.50488 -13.3359 -2.50488 -24.0029s-1.83301 -18.667 -2.5 -24c-1.33301 -7.33301 -2.83301 -12.5 -4.5 -15.5s-6.16699 -4.5 -13.5 -4.5c-4 0 -10.667 0.666992 -20 2l-33 4.5c-12.667 1.66699 -26.167 3.16699 -40.5 4.5
s-27.833 2 -40.5 2c-48 0 -82.167 -5.33301 -102.5 -16s-30.5 -32.334 -30.5 -65.001c0 -15.333 4 -27.666 12 -36.999s18 -16.833 30 -22.5s25.333 -10.167 40 -13.5s41.667 -8.66602 81 -15.999s67.833 -14.666 85.5 -21.999s31.834 -17 42.501 -29
s18.334 -26.833 23.001 -44.5s7 -39.167 7 -64.5c0 -60 -14.167 -105.5 -42.5 -136.5s-77.166 -46.5 -146.499 -46.5h-228c-32.667 0 -63.834 3.83301 -93.501 11.5s-55.667 20.834 -78 39.501s-40.166 43.5 -53.499 74.5s-20 69.833 -20 116.5
c0 15.333 1.16699 31.333 3.5 48s5.33301 33 9 49s7.5 31 11.5 45s8 26.667 12 38l50 -12c6.66699 -2 10.834 -5 12.501 -9s1.5 -10.333 -0.5 -19c-0.666992 -3.33301 -1.83398 -8.16602 -3.50098 -14.499s-3.83398 -16.166 -6.50098 -29.499s-5.33398 -28.333 -8.00098 -45
s-4 -33.667 -4 -51c0 -36.667 6.16699 -66 18.5 -88s27.5 -39 45.5 -51s38 -19.833 60 -23.5s43.667 -5.5 65 -5.5h223c18.667 0 34.334 3 47.001 9s22.834 13.833 30.501 23.5s13.167 20.667 16.5 33s5 24.833 5 37.5c0 18 -2.5 32.667 -7.5 44s-12 20.166 -21 26.499
s-19.667 11.166 -32 14.499s-27.666 6.83301 -45.999 10.5s-40.666 7.5 -66.999 11.5s-51 11 -74 21s-42.333 24.833 -58 44.5s-23.5 47.167 -23.5 82.5c0 25.333 3.66699 47.833 11 67.5s19.166 36 35.499 49s37.833 22.833 64.5 29.5s59.334 10 98.001 10
c21.333 0 41.833 -1 61.5 -3s37.667 -4.33301 54 -7s32.5 -6 48.5 -10zM56.9951 271.997l0.000976562 25.9971c0 7.33301 1.83301 12.833 5.5 16.5s7.83398 5.5 12.501 5.5h8c-3.33301 4 -6 8.83301 -8 14.5s-3 13.834 -3 24.501c0 14 2.66699 26.5 8 37.5
s12.666 19.833 21.999 26.5s20 11.334 32 14.001s24.667 4 38 4c9.33301 0 18.333 -0.5 27 -1.5s16.5 -2.33301 23.5 -4s13.833 -3.16699 20.5 -4.5l-5 -29c-1.33301 -5.33301 -3.5 -9.5 -6.5 -12.5s-6.5 -4.16699 -10.5 -3.5c-1.33301 0 -6.83301 0.833008 -16.5 2.5
s-20.167 2.5 -31.5 2.5c-21.333 0 -35.5 -3.83301 -42.5 -11.5s-10.5 -14.834 -10.5 -21.501c0 -9.33301 2 -16.166 6 -20.499s8.33301 -7.83301 13 -10.5s10.167 -4.5 16.5 -5.5s12.166 -1.5 17.499 -1.5h51c5.33301 0 9 -1.66699 11 -5s3 -6.66602 3 -9.99902v-33h-181z
" />
    <glyph glyph-name="alefiso" unicode="&#x627;" horiz-adv-x="212" arabic-form="isolated" 
d="M157 28c0 -8 -2.5 -14.667 -7.5 -20s-11.833 -8 -20.5 -8h-51v581c0 8 2.83301 14.667 8.5 20s12.167 8 19.5 8h51v-581z" />
    <glyph glyph-name="behiso" unicode="&#x628;" horiz-adv-x="786" arabic-form="isolated" 
d="M741 365l-0.00292969 -182.999c0 -27.333 -2.66699 -52.166 -8 -74.499s-15 -41.5 -29 -57.5s-33 -28.333 -57 -37s-54.667 -13 -92 -13h-311c-38 0 -70.167 5 -96.5 15s-47.666 23.333 -63.999 40s-28.166 36 -35.499 58s-11 45 -11 69c0 18.667 1 35.834 3 51.501
s4.33301 29.5 7 41.5s6 23.333 10 34c28 -8 43.667 -12.667 47 -14c6.66699 -2.66699 11.167 -6.33398 13.5 -11.001s2.5 -12.334 0.5 -23.001c-2 -11.333 -4 -21.833 -6 -31.5s-3 -22.834 -3 -39.501c0 -22.667 4.66699 -41.5 14 -56.5s21.5 -26.833 36.5 -35.5
s32.333 -14.667 52 -18s39.834 -5 60.501 -5h288c40 0 67 8.83301 81 26.5s21 43.5 21 77.5v158c0 7.33301 2.83301 13.833 8.5 19.5s12.167 8.5 19.5 8.5h51zM336.997 -106.999c0 14 4.83301 25.833 14.5 35.5s21.5 14.5 35.5 14.5s25.833 -4.83301 35.5 -14.5
s14.5 -21.5 14.5 -35.5s-4.83301 -25.833 -14.5 -35.5s-21.5 -14.5 -35.5 -14.5s-25.833 4.83301 -35.5 14.5s-14.5 21.5 -14.5 35.5z" />
    <glyph glyph-name="tehmarboutaiso" unicode="&#x629;" horiz-adv-x="470" arabic-form="isolated" 
d="M156 517c0 14 4.83301 25.833 14.5 35.5s21.5 14.5 35.5 14.5s25.833 -4.83301 35.5 -14.5s14.5 -21.5 14.5 -35.5s-4.83301 -25.833 -14.5 -35.5s-21.5 -14.5 -35.5 -14.5s-25.833 4.83301 -35.5 14.5s-14.5 21.5 -14.5 35.5zM284 517c0 14 4.83301 25.833 14.5 35.5
s21.5 14.5 35.5 14.5s25.833 -4.83301 35.5 -14.5s14.5 -21.5 14.5 -35.5s-4.83301 -25.833 -14.5 -35.5s-21.5 -14.5 -35.5 -14.5s-25.833 4.83301 -35.5 14.5s-14.5 21.5 -14.5 35.5zM237 -7c-32.667 0 -61.001 5.16797 -85.001 15.501s-44 24.5 -60 42.5
s-28 39.167 -36 63.5s-12 50.166 -12 77.499c0 63.333 17.833 114 53.5 152s86.834 57 153.501 57c17.333 0 35.833 -1.33301 55.5 -4s38.834 -5.66699 57.501 -9s38.334 -7.33301 59.001 -12v-212c0 -16.667 -1.33301 -35 -4 -55s-9.83398 -38.5 -21.501 -55.5
s-29.334 -31.333 -53.001 -43s-56.167 -17.5 -97.5 -17.5h-10zM344.999 319.001c-9.33301 2 -21 3.49902 -35 4.49902s-33 1.5 -57 1.5s-44 -3.5 -60 -10.5s-29 -16.5 -39 -28.5s-17.167 -26.167 -21.5 -42.5s-6.5 -34.166 -6.5 -53.499c0 -22 3.16699 -40.667 9.5 -56
s14.833 -27.833 25.5 -37.5s23.167 -16.5 37.5 -20.5s29.5 -6 45.5 -6h12c18 0 32.833 2.66699 44.5 8s20.667 11.833 27 19.5s10.833 15.5 13.5 23.5s4 15 4 21v177z" />
    <glyph glyph-name="taiso" unicode="&#x62a;" horiz-adv-x="786" arabic-form="isolated" 
d="M741 365l-0.00292969 -182.999c0 -27.333 -2.66699 -52.166 -8 -74.499s-15 -41.5 -29 -57.5s-33 -28.333 -57 -37s-54.667 -13 -92 -13h-311c-38 0 -70.167 5 -96.5 15s-47.666 23.333 -63.999 40s-28.166 36 -35.499 58s-11 45 -11 69c0 18.667 1 35.834 3 51.501
s4.33301 29.5 7 41.5s6 23.333 10 34c28 -8 43.667 -12.667 47 -14c6.66699 -2.66699 11.167 -6.33398 13.5 -11.001s2.5 -12.334 0.5 -23.001c-2 -11.333 -4 -21.833 -6 -31.5s-3 -22.834 -3 -39.501c0 -22.667 4.66699 -41.5 14 -56.5s21.5 -26.833 36.5 -35.5
s32.333 -14.667 52 -18s39.834 -5 60.501 -5h288c40 0 67 8.83301 81 26.5s21 43.5 21 77.5v158c0 7.33301 2.83301 13.833 8.5 19.5s12.167 8.5 19.5 8.5h51zM272.997 443.001c0 14 4.83301 25.833 14.5 35.5s21.5 14.5 35.5 14.5s25.833 -4.83301 35.5 -14.5
s14.5 -21.5 14.5 -35.5s-4.83301 -25.833 -14.5 -35.5s-21.5 -14.5 -35.5 -14.5s-25.833 4.83301 -35.5 14.5s-14.5 21.5 -14.5 35.5zM400.997 443.001c0 14 4.83301 25.833 14.5 35.5s21.5 14.5 35.5 14.5s25.833 -4.83301 35.5 -14.5s14.5 -21.5 14.5 -35.5
s-4.83301 -25.833 -14.5 -35.5s-21.5 -14.5 -35.5 -14.5s-25.833 4.83301 -35.5 14.5s-14.5 21.5 -14.5 35.5z" />
    <glyph glyph-name="thaiso" unicode="&#x62b;" horiz-adv-x="786" arabic-form="isolated" 
d="M741 365l-0.00292969 -182.999c0 -27.333 -2.66699 -52.166 -8 -74.499s-15 -41.5 -29 -57.5s-33 -28.333 -57 -37s-54.667 -13 -92 -13h-311c-38 0 -70.167 5 -96.5 15s-47.666 23.333 -63.999 40s-28.166 36 -35.499 58s-11 45 -11 69c0 18.667 1 35.834 3 51.501
s4.33301 29.5 7 41.5s6 23.333 10 34c28 -8 43.667 -12.667 47 -14c6.66699 -2.66699 11.167 -6.33398 13.5 -11.001s2.5 -12.334 0.5 -23.001c-2 -11.333 -4 -21.833 -6 -31.5s-3 -22.834 -3 -39.501c0 -22.667 4.66699 -41.5 14 -56.5s21.5 -26.833 36.5 -35.5
s32.333 -14.667 52 -18s39.834 -5 60.501 -5h288c40 0 67 8.83301 81 26.5s21 43.5 21 77.5v158c0 7.33301 2.83301 13.833 8.5 19.5s12.167 8.5 19.5 8.5h51zM273.997 445.001c0 14 4.83301 25.833 14.5 35.5s21.5 14.5 35.5 14.5s25.833 -4.83301 35.5 -14.5
s14.5 -21.5 14.5 -35.5s-4.83301 -25.833 -14.5 -35.5s-21.5 -14.5 -35.5 -14.5s-25.833 4.83301 -35.5 14.5s-14.5 21.5 -14.5 35.5zM400.997 445.001c0 14 4.83301 25.833 14.5 35.5s21.5 14.5 35.5 14.5s25.833 -4.83301 35.5 -14.5s14.5 -21.5 14.5 -35.5
s-4.83301 -25.833 -14.5 -35.5s-21.5 -14.5 -35.5 -14.5s-25.833 4.83301 -35.5 14.5s-14.5 21.5 -14.5 35.5zM336.997 568.001c0 14 4.83301 25.833 14.5 35.5s21.5 14.5 35.5 14.5s25.833 -4.83301 35.5 -14.5s14.5 -21.5 14.5 -35.5s-4.83301 -25.833 -14.5 -35.5
s-21.5 -14.5 -35.5 -14.5s-25.833 4.83301 -35.5 14.5s-14.5 21.5 -14.5 35.5z" />
    <glyph glyph-name="jeemiso" unicode="&#x62c;" horiz-adv-x="597" arabic-form="isolated" 
d="M291 -124c0 14 4.83301 25.833 14.5 35.5s21.5 14.5 35.5 14.5s25.833 -4.83301 35.5 -14.5s14.5 -21.5 14.5 -35.5s-4.83301 -25.833 -14.5 -35.5s-21.5 -14.5 -35.5 -14.5s-25.833 4.83301 -35.5 14.5s-14.5 21.5 -14.5 35.5zM335 317
c-15.333 0 -30.6699 -0.666016 -46.0029 -1.99902s-29.833 -2.83301 -43.5 -4.5s-26.167 -3.66699 -37.5 -6s-21 -4.5 -29 -6.5c-16.667 -4.66699 -26.334 -0.666992 -29.001 12c-1.33301 4 -5.33301 21 -12 51c18 4.66699 37.167 8.83398 57.5 12.501s42.666 7 66.999 10
s50.166 4.5 77.499 4.5c38.667 0 71.834 -3.83301 99.501 -11.5s50 -20 67 -37s29.5 -38.833 37.5 -65.5s12 -58.667 12 -96v-88c0 -30.667 -6.16699 -53.334 -18.5 -68.001s-35.166 -22 -68.499 -22h-239c-15.333 0 -29.666 -1 -42.999 -3s-25 -6.16699 -35 -12.5
s-17.833 -15.333 -23.5 -27s-8.5 -26.834 -8.5 -45.501c0 -26 5.66699 -48.667 17 -68s24.833 -36 40.5 -50s31.834 -26 48.501 -36l42 -25c6.66699 -4.66699 10 -9.83398 10 -15.501s-1.66699 -11.167 -5 -16.5c-1.33301 -2.66699 -8.66602 -15 -21.999 -37
c-38.667 17.333 -68.834 34.833 -90.501 52.5s-38.667 33 -51 46s-23.166 27.333 -32.499 43s-17 32.667 -23 51s-9 38.166 -9 59.499c0 36.667 6.33301 65.5 19 86.5s28.167 36.833 46.5 47.5s37.5 17.5 57.5 20.5s37.333 4.5 52 4.5h259v83c0 24.667 -1 46.834 -3 66.501
s-7.66699 36.334 -17 50.001s-23.666 24.167 -42.999 31.5s-46.333 11 -81 11z" />
    <glyph glyph-name="haaiso" unicode="&#x62d;" horiz-adv-x="597" arabic-form="isolated" 
d="M335 317c-15.333 0 -30.6699 -0.666016 -46.0029 -1.99902s-29.833 -2.83301 -43.5 -4.5s-26.167 -3.66699 -37.5 -6s-21 -4.5 -29 -6.5c-16.667 -4.66699 -26.334 -0.666992 -29.001 12c-1.33301 4 -5.33301 21 -12 51c18 4.66699 37.167 8.83398 57.5 12.501
s42.666 7 66.999 10s50.166 4.5 77.499 4.5c38.667 0 71.834 -3.83301 99.501 -11.5s50 -20 67 -37s29.5 -38.833 37.5 -65.5s12 -58.667 12 -96v-88c0 -30.667 -6.16699 -53.334 -18.5 -68.001s-35.166 -22 -68.499 -22h-239c-15.333 0 -29.666 -1 -42.999 -3
s-25 -6.16699 -35 -12.5s-17.833 -15.333 -23.5 -27s-8.5 -26.834 -8.5 -45.501c0 -26 5.66699 -48.667 17 -68s24.833 -36 40.5 -50s31.834 -26 48.501 -36l42 -25c6.66699 -4.66699 10 -9.83398 10 -15.501s-1.66699 -11.167 -5 -16.5
c-1.33301 -2.66699 -8.66602 -15 -21.999 -37c-38.667 17.333 -68.834 34.833 -90.501 52.5s-38.667 33 -51 46s-23.166 27.333 -32.499 43s-17 32.667 -23 51s-9 38.166 -9 59.499c0 36.667 6.33301 65.5 19 86.5s28.167 36.833 46.5 47.5s37.5 17.5 57.5 20.5
s37.333 4.5 52 4.5h259v83c0 24.667 -1 46.834 -3 66.501s-7.66699 36.334 -17 50.001s-23.666 24.167 -42.999 31.5s-46.333 11 -81 11z" />
    <glyph glyph-name="khaiso" unicode="&#x62e;" horiz-adv-x="597" arabic-form="isolated" 
d="M262 522c0 14 4.83301 25.833 14.5 35.5s21.5 14.5 35.5 14.5s25.833 -4.83301 35.5 -14.5s14.5 -21.5 14.5 -35.5s-4.83301 -25.833 -14.5 -35.5s-21.5 -14.5 -35.5 -14.5s-25.833 4.83301 -35.5 14.5s-14.5 21.5 -14.5 35.5zM335 317
c-15.333 0 -30.6699 -0.666016 -46.0029 -1.99902s-29.833 -2.83301 -43.5 -4.5s-26.167 -3.66699 -37.5 -6s-21 -4.5 -29 -6.5c-16.667 -4.66699 -26.334 -0.666992 -29.001 12c-1.33301 4 -5.33301 21 -12 51c18 4.66699 37.167 8.83398 57.5 12.501s42.666 7 66.999 10
s50.166 4.5 77.499 4.5c38.667 0 71.834 -3.83301 99.501 -11.5s50 -20 67 -37s29.5 -38.833 37.5 -65.5s12 -58.667 12 -96v-88c0 -30.667 -6.16699 -53.334 -18.5 -68.001s-35.166 -22 -68.499 -22h-239c-15.333 0 -29.666 -1 -42.999 -3s-25 -6.16699 -35 -12.5
s-17.833 -15.333 -23.5 -27s-8.5 -26.834 -8.5 -45.501c0 -26 5.66699 -48.667 17 -68s24.833 -36 40.5 -50s31.834 -26 48.501 -36l42 -25c6.66699 -4.66699 10 -9.83398 10 -15.501s-1.66699 -11.167 -5 -16.5c-1.33301 -2.66699 -8.66602 -15 -21.999 -37
c-38.667 17.333 -68.834 34.833 -90.501 52.5s-38.667 33 -51 46s-23.166 27.333 -32.499 43s-17 32.667 -23 51s-9 38.166 -9 59.499c0 36.667 6.33301 65.5 19 86.5s28.167 36.833 46.5 47.5s37.5 17.5 57.5 20.5s37.333 4.5 52 4.5h259v83c0 24.667 -1 46.834 -3 66.501
s-7.66699 36.334 -17 50.001s-23.666 24.167 -42.999 31.5s-46.333 11 -81 11z" />
    <glyph glyph-name="daliso" unicode="&#x62f;" horiz-adv-x="502" arabic-form="isolated" 
d="M45 55c0 13.333 6.33301 20.0029 19 20.0029h312v75c0 26.667 -2.66699 48.667 -8 66s-13.833 31.666 -25.5 42.999s-27 20.666 -46 27.999s-39.167 13.333 -60.5 18l-57 12.5c-16.667 3.66699 -31.667 6.83398 -45 9.50098c-24.667 4.66699 -35 16 -31 34l10 45
c23.333 -4 44.166 -8 62.499 -12l72 -16c29.667 -6.66699 58.834 -17 87.501 -31s51.5 -30.167 68.5 -48.5s28.833 -38.5 35.5 -60.5s10 -45.333 10 -70v-66c0 -16 -1 -30.333 -3 -43s-6.33301 -23.334 -13 -32.001s-16.5 -15.334 -29.5 -20.001s-30.833 -7 -53.5 -7h-305
v55z" />
    <glyph glyph-name="zaliso" unicode="&#x630;" horiz-adv-x="502" arabic-form="isolated" 
d="M132 515c0 14 4.83301 25.833 14.5 35.5s21.5 14.5 35.5 14.5s25.833 -4.83301 35.5 -14.5s14.5 -21.5 14.5 -35.5s-4.83301 -25.833 -14.5 -35.5s-21.5 -14.5 -35.5 -14.5s-25.833 4.83301 -35.5 14.5s-14.5 21.5 -14.5 35.5zM45 55
c0 13.333 6.33301 20.0029 19 20.0029h312v75c0 26.667 -2.66699 48.667 -8 66s-13.833 31.666 -25.5 42.999s-27 20.666 -46 27.999s-39.167 13.333 -60.5 18l-57 12.5c-16.667 3.66699 -31.667 6.83398 -45 9.50098c-24.667 4.66699 -35 16 -31 34l10 45
c23.333 -4 44.166 -8 62.499 -12l72 -16c29.667 -6.66699 58.834 -17 87.501 -31s51.5 -30.167 68.5 -48.5s28.833 -38.5 35.5 -60.5s10 -45.333 10 -70v-66c0 -16 -1 -30.333 -3 -43s-6.33301 -23.334 -13 -32.001s-16.5 -15.334 -29.5 -20.001s-30.833 -7 -53.5 -7h-305
v55z" />
    <glyph glyph-name="raiso" unicode="&#x631;" horiz-adv-x="267" arabic-form="isolated" 
d="M149 336c0 8 2.8291 14.833 8.49609 20.5s12.167 8.5 19.5 8.5h50v-454c0 -31.333 -4.66699 -57 -14 -77s-22.666 -35 -39.999 -45s-38.166 -15.167 -62.499 -15.5s-51.166 3.5 -80.499 11.5c-9.33301 3.33301 -17.166 6.83301 -23.499 10.5s-8.16602 10.5 -5.49902 20.5
l11 47c16.667 -7.33301 31.167 -12.5 43.5 -15.5s22.166 -4.5 29.499 -4.5c24 0 40.667 6 50 18s14 31 14 57v418z" />
    <glyph glyph-name="zaiso" unicode="&#x632;" horiz-adv-x="267" arabic-form="isolated" 
d="M142 495c0 14 4.83301 25.833 14.5 35.5s21.5 14.5 35.5 14.5s25.833 -4.83301 35.5 -14.5s14.5 -21.5 14.5 -35.5s-4.83301 -25.833 -14.5 -35.5s-21.5 -14.5 -35.5 -14.5s-25.833 4.83301 -35.5 14.5s-14.5 21.5 -14.5 35.5zM149 336c0 8 2.8291 14.833 8.49609 20.5
s12.167 8.5 19.5 8.5h50v-454c0 -31.333 -4.66699 -57 -14 -77s-22.666 -35 -39.999 -45s-38.166 -15.167 -62.499 -15.5s-51.166 3.5 -80.499 11.5c-9.33301 3.33301 -17.166 6.83301 -23.499 10.5s-8.16602 10.5 -5.49902 20.5l11 47
c16.667 -7.33301 31.167 -12.5 43.5 -15.5s22.166 -4.5 29.499 -4.5c24 0 40.667 6 50 18s14 31 14 57v418z" />
    <glyph glyph-name="seeniso" unicode="&#x633;" horiz-adv-x="1140" arabic-form="isolated" 
d="M545 32v-35.001c0 -24 -3.33301 -49.167 -10 -75.5s-18.667 -50.5 -36 -72.5s-41 -40.167 -71 -54.5s-68.667 -21.5 -116 -21.5c-31.333 0 -63.166 3.5 -95.499 10.5s-61.666 20 -87.999 39s-47.833 45.667 -64.5 80s-25 79.166 -25 134.499c0 15.333 1 32.333 3 51
s4.66699 37.5 8 56.5s7.16602 37.333 11.499 55s8.83301 33.5 13.5 47.5c30.667 -9.33301 47.667 -14.666 51 -15.999c7.33301 -2 12.166 -5.5 14.499 -10.5s2.16602 -12.833 -0.500977 -23.5c-4.66699 -16 -9.5 -39 -14.5 -69s-7.5 -60.333 -7.5 -91
c0 -42.667 6.16699 -76.167 18.5 -100.5s28.333 -42.5 48 -54.5s41.334 -19.333 65.001 -22s46.834 -4 69.501 -4c30 0 54.5 4 73.5 12s33.833 18.667 44.5 32s18 29 22 47s6 37 6 57v265c0 7.33301 2.83301 13.833 8.5 19.5s12.167 8.5 19.5 8.5h50v-191
c6 -6 13.667 -11.167 23 -15.5s20.5 -8 33.5 -11s29.167 -4.5 48.5 -4.5c9.33301 0 19.166 0.666992 29.499 2s20 4.16602 29 8.49902s16.5 10.666 22.5 18.999s9 19.5 9 33.5v131c0 7.33301 2.83301 13.833 8.5 19.5s12.167 8.5 19.5 8.5h51v-182
c14.667 -17.333 31 -28.333 49 -33s35 -7 51 -7c40 0 67 8.83301 81 26.5s21 43.834 21 78.501v157c0 7.33301 2.83301 13.833 8.5 19.5s12.167 8.5 19.5 8.5h51v-183c0 -27.333 -2.66699 -52.166 -8 -74.499s-14.666 -41.5 -27.999 -57.5s-31.833 -28.333 -55.5 -37
s-53.5 -13 -89.5 -13c-18.667 0 -35.334 2.5 -50.001 7.5s-27.334 10.833 -38.001 17.5s-19.167 13.167 -25.5 19.5s-10.5 10.833 -12.5 13.5c-2 -2.66699 -5.5 -6.83398 -10.5 -12.501s-12.333 -11.667 -22 -18s-22 -12.166 -37 -17.499s-32.833 -8.66602 -53.5 -9.99902
h-21c-13.333 0 -29.666 2.5 -48.999 7.5s-37 13.167 -53 24.5z" />
    <glyph glyph-name="sheeniso" unicode="&#x634;" horiz-adv-x="1140" arabic-form="isolated" 
d="M678 463c0 14 4.83301 25.833 14.5 35.5s21.5 14.5 35.5 14.5s25.833 -4.83301 35.5 -14.5s14.5 -21.5 14.5 -35.5s-4.83301 -25.833 -14.5 -35.5s-21.5 -14.5 -35.5 -14.5s-25.833 4.83301 -35.5 14.5s-14.5 21.5 -14.5 35.5zM805 463c0 14 4.83301 25.833 14.5 35.5
s21.5 14.5 35.5 14.5s25.833 -4.83301 35.5 -14.5s14.5 -21.5 14.5 -35.5s-4.83301 -25.833 -14.5 -35.5s-21.5 -14.5 -35.5 -14.5s-25.833 4.83301 -35.5 14.5s-14.5 21.5 -14.5 35.5zM741 586c0 14 4.83301 25.833 14.5 35.5s21.5 14.5 35.5 14.5
s25.833 -4.83301 35.5 -14.5s14.5 -21.5 14.5 -35.5s-4.83301 -25.833 -14.5 -35.5s-21.5 -14.5 -35.5 -14.5s-25.833 4.83301 -35.5 14.5s-14.5 21.5 -14.5 35.5zM545 32v-35.001c0 -24 -3.33301 -49.167 -10 -75.5s-18.667 -50.5 -36 -72.5s-41 -40.167 -71 -54.5
s-68.667 -21.5 -116 -21.5c-31.333 0 -63.166 3.5 -95.499 10.5s-61.666 20 -87.999 39s-47.833 45.667 -64.5 80s-25 79.166 -25 134.499c0 15.333 1 32.333 3 51s4.66699 37.5 8 56.5s7.16602 37.333 11.499 55s8.83301 33.5 13.5 47.5
c30.667 -9.33301 47.667 -14.666 51 -15.999c7.33301 -2 12.166 -5.5 14.499 -10.5s2.16602 -12.833 -0.500977 -23.5c-4.66699 -16 -9.5 -39 -14.5 -69s-7.5 -60.333 -7.5 -91c0 -42.667 6.16699 -76.167 18.5 -100.5s28.333 -42.5 48 -54.5s41.334 -19.333 65.001 -22
s46.834 -4 69.501 -4c30 0 54.5 4 73.5 12s33.833 18.667 44.5 32s18 29 22 47s6 37 6 57v265c0 7.33301 2.83301 13.833 8.5 19.5s12.167 8.5 19.5 8.5h50v-191c6 -6 13.667 -11.167 23 -15.5s20.5 -8 33.5 -11s29.167 -4.5 48.5 -4.5c9.33301 0 19.166 0.666992 29.499 2
s20 4.16602 29 8.49902s16.5 10.666 22.5 18.999s9 19.5 9 33.5v131c0 7.33301 2.83301 13.833 8.5 19.5s12.167 8.5 19.5 8.5h51v-182c14.667 -17.333 31 -28.333 49 -33s35 -7 51 -7c40 0 67 8.83301 81 26.5s21 43.834 21 78.501v157c0 7.33301 2.83301 13.833 8.5 19.5
s12.167 8.5 19.5 8.5h51v-183c0 -27.333 -2.66699 -52.166 -8 -74.499s-14.666 -41.5 -27.999 -57.5s-31.833 -28.333 -55.5 -37s-53.5 -13 -89.5 -13c-18.667 0 -35.334 2.5 -50.001 7.5s-27.334 10.833 -38.001 17.5s-19.167 13.167 -25.5 19.5s-10.5 10.833 -12.5 13.5
c-2 -2.66699 -5.5 -6.83398 -10.5 -12.501s-12.333 -11.667 -22 -18s-22 -12.166 -37 -17.499s-32.833 -8.66602 -53.5 -9.99902h-21c-13.333 0 -29.666 2.5 -48.999 7.5s-37 13.167 -53 24.5z" />
    <glyph glyph-name="sadiso" unicode="&#x635;" horiz-adv-x="1148" arabic-form="isolated" 
d="M484 361c0 7.33301 2.83594 13.835 8.50293 19.502s12.167 8.5 19.5 8.5h50v-56l355 56c12 1.33301 25.167 0.833008 39.5 -1.5s29.333 -7.33301 45 -15s29 -16.167 40 -25.5s20.667 -21 29 -35s15.166 -30.5 20.499 -49.5s8 -41.167 8 -66.5s-2.66699 -49.833 -8 -73.5
s-14.666 -44.5 -27.999 -62.5s-31 -32.5 -53 -43.5s-50 -16.5 -84 -16.5h-364c0 -32.667 -3 -62.667 -9 -90s-17.5 -51.166 -34.5 -71.499s-40.5 -36.333 -70.5 -48s-69 -17.5 -117 -17.5c-31.333 0 -63.833 3.5 -97.5 10.5s-64.5 20 -92.5 39s-51 45.667 -69 80
s-27 79.166 -27 134.499c0 15.333 1 32.333 3 51s4.66699 37.5 8 56.5s7.16602 37.333 11.499 55s8.83301 33.5 13.5 47.5l51 -16c7.33301 -2 12.166 -5.5 14.499 -10.5s2.16602 -12.833 -0.500977 -23.5c-4.66699 -16 -9.33398 -39 -14.001 -69s-7 -60.333 -7 -91
c0 -42.667 6.83301 -76.167 20.5 -100.5s31 -42.5 52 -54.5s44.167 -19.333 69.5 -22s49.333 -4 72 -4c30 0 54.5 3.16699 73.5 9.5s33.833 15.666 44.5 27.999s17.834 27.666 21.501 45.999s5.5 39.833 5.5 64.5v357zM911.003 75.002c8.66699 0 19.502 1.5 32.502 4.5
s25.5 8.66699 37.5 17s22.333 20 31 35s13 34.5 13 58.5c0 28 -4.16699 50.333 -12.5 67s-18.333 29.5 -30 38.5s-23.834 15 -36.501 18s-23.334 4.5 -32.001 4.5l-352 -60v-183h349z" />
    <glyph glyph-name="dadiso" unicode="&#x636;" horiz-adv-x="1148" arabic-form="isolated" 
d="M598 494c0 14 4.83301 25.833 14.5 35.5s21.5 14.5 35.5 14.5s25.833 -4.83301 35.5 -14.5s14.5 -21.5 14.5 -35.5s-4.83301 -25.833 -14.5 -35.5s-21.5 -14.5 -35.5 -14.5s-25.833 4.83301 -35.5 14.5s-14.5 21.5 -14.5 35.5zM484 361
c0 7.33301 2.83594 13.835 8.50293 19.502s12.167 8.5 19.5 8.5h50v-56l355 56c12 1.33301 25.167 0.833008 39.5 -1.5s29.333 -7.33301 45 -15s29 -16.167 40 -25.5s20.667 -21 29 -35s15.166 -30.5 20.499 -49.5s8 -41.167 8 -66.5s-2.66699 -49.833 -8 -73.5
s-14.666 -44.5 -27.999 -62.5s-31 -32.5 -53 -43.5s-50 -16.5 -84 -16.5h-364c0 -32.667 -3 -62.667 -9 -90s-17.5 -51.166 -34.5 -71.499s-40.5 -36.333 -70.5 -48s-69 -17.5 -117 -17.5c-31.333 0 -63.833 3.5 -97.5 10.5s-64.5 20 -92.5 39s-51 45.667 -69 80
s-27 79.166 -27 134.499c0 15.333 1 32.333 3 51s4.66699 37.5 8 56.5s7.16602 37.333 11.499 55s8.83301 33.5 13.5 47.5l51 -16c7.33301 -2 12.166 -5.5 14.499 -10.5s2.16602 -12.833 -0.500977 -23.5c-4.66699 -16 -9.33398 -39 -14.001 -69s-7 -60.333 -7 -91
c0 -42.667 6.83301 -76.167 20.5 -100.5s31 -42.5 52 -54.5s44.167 -19.333 69.5 -22s49.333 -4 72 -4c30 0 54.5 3.16699 73.5 9.5s33.833 15.666 44.5 27.999s17.834 27.666 21.501 45.999s5.5 39.833 5.5 64.5v357zM911.003 75.002c8.66699 0 19.502 1.5 32.502 4.5
s25.5 8.66699 37.5 17s22.333 20 31 35s13 34.5 13 58.5c0 28 -4.16699 50.333 -12.5 67s-18.333 29.5 -30 38.5s-23.834 15 -36.501 18s-23.334 4.5 -32.001 4.5l-352 -60v-183h349z" />
    <glyph glyph-name="tahiso" unicode="&#x637;" horiz-adv-x="772" arabic-form="isolated" 
d="M103 523c0 7.33301 2.83496 13.834 8.50195 19.501s12.167 8.5 19.5 8.5h50v-219l358 57c11.333 2 25.166 1.66699 41.499 -1s31.5 -7.83398 45.5 -15.501s26.5 -16.167 37.5 -25.5s20.667 -21 29 -35s15.166 -30.5 20.499 -49.5s8 -41.167 8 -66.5
s-2.66699 -49.833 -8 -73.5s-14.5 -44.5 -27.5 -62.5s-30.667 -32.5 -53 -43.5s-50.5 -16.5 -84.5 -16.5h-502v44c0 10 1.5 17.667 4.5 23s10.167 8 21.5 8h31v448zM533.002 75.001c8.66699 0 19.502 1.5 32.502 4.5s25.5 8.66699 37.5 17s22.333 19.833 31 34.5
s13 34 13 58c0 28 -4.16699 50.5 -12.5 67.5s-18.333 30 -30 39s-23.834 15 -36.501 18s-23.334 4.5 -32.001 4.5l-355 -60v-183h352z" />
    <glyph glyph-name="zadiso" unicode="&#x638;" horiz-adv-x="772" arabic-form="isolated" 
d="M277 495c0 14 4.83301 25.833 14.5 35.5s21.5 14.5 35.5 14.5s25.833 -4.83301 35.5 -14.5s14.5 -21.5 14.5 -35.5s-4.83301 -25.833 -14.5 -35.5s-21.5 -14.5 -35.5 -14.5s-25.833 4.83301 -35.5 14.5s-14.5 21.5 -14.5 35.5zM103 523
c0 7.33301 2.83496 13.834 8.50195 19.501s12.167 8.5 19.5 8.5h50v-219l358 57c11.333 2 25.166 1.66699 41.499 -1s31.5 -7.83398 45.5 -15.501s26.5 -16.167 37.5 -25.5s20.667 -21 29 -35s15.166 -30.5 20.499 -49.5s8 -41.167 8 -66.5s-2.66699 -49.833 -8 -73.5
s-14.5 -44.5 -27.5 -62.5s-30.667 -32.5 -53 -43.5s-50.5 -16.5 -84.5 -16.5h-502v44c0 10 1.5 17.667 4.5 23s10.167 8 21.5 8h31v448zM533.002 75.001c8.66699 0 19.502 1.5 32.502 4.5s25.5 8.66699 37.5 17s22.333 19.833 31 34.5s13 34 13 58
c0 28 -4.16699 50.5 -12.5 67.5s-18.333 30 -30 39s-23.834 15 -36.501 18s-23.334 4.5 -32.001 4.5l-355 -60v-183h352z" />
    <glyph glyph-name="ayniso" unicode="&#x639;" horiz-adv-x="581" arabic-form="isolated" 
d="M496 75c7.33301 0 13.8291 -2.83398 19.4961 -8.50098s8.5 -12.167 8.5 -19.5v-47h-327c-8.66699 0 -18.334 -0.333008 -29.001 -1s-20.5 -3.16699 -29.5 -7.5s-16.5 -11.166 -22.5 -20.499s-9 -22.333 -9 -39c0 -24 5.5 -46.833 16.5 -68.5s24.333 -41.334 40 -59.001
s31.834 -33.167 48.501 -46.5s31 -23.333 43 -30c6 -4 9.33301 -9.16699 10 -15.5s-0.666016 -12.166 -3.99902 -17.499l-26 -40c-38.667 20.667 -68.667 40.667 -90 60s-38.166 36.166 -50.499 50.499s-23.166 29.833 -32.499 46.5s-17 34.334 -23 53.001s-9 38.667 -9 60
c0 30.667 5.16699 55.834 15.5 75.501s23.333 35 39 46s32.334 18.5 50.001 22.5s33.834 6 48.501 6h23c-7.33301 6.66699 -13.666 15.5 -18.999 26.5s-9.66602 24.333 -12.999 40s-5 35.167 -5 58.5c0 29.333 3.5 55.666 10.5 78.999s18.667 43.166 35 59.499
s37.666 28.833 63.999 37.5s58.833 13 97.5 13c18.667 0 37.167 -1 55.5 -3s35.666 -4.33301 51.999 -7s32.5 -6 48.5 -10c-6.66699 -23.333 -10.667 -37 -12 -41c-3.33301 -9.33301 -8 -16 -14 -20s-16 -4.66699 -30 -2l-44 5c-18 2 -40 3 -66 3c-24 0 -43.333 -3 -58 -9
s-26.334 -14.167 -35.001 -24.5s-14.5 -22.666 -17.5 -36.999s-4.5 -29.5 -4.5 -45.5c0 -26 3.33301 -47.167 10 -63.5s14.5 -28.833 23.5 -37.5s18.167 -14.5 27.5 -17.5s17 -4.5 23 -4.5h161z" />
    <glyph glyph-name="ghaiso" unicode="&#x63a;" horiz-adv-x="581" arabic-form="isolated" 
d="M325 501c0 14 4.83301 25.833 14.5 35.5s21.5 14.5 35.5 14.5s25.833 -4.83301 35.5 -14.5s14.5 -21.5 14.5 -35.5s-4.83301 -25.833 -14.5 -35.5s-21.5 -14.5 -35.5 -14.5s-25.833 4.83301 -35.5 14.5s-14.5 21.5 -14.5 35.5zM496 75
c7.33301 0 13.8291 -2.83398 19.4961 -8.50098s8.5 -12.167 8.5 -19.5v-47h-327c-8.66699 0 -18.334 -0.333008 -29.001 -1s-20.5 -3.16699 -29.5 -7.5s-16.5 -11.166 -22.5 -20.499s-9 -22.333 -9 -39c0 -24 5.5 -46.833 16.5 -68.5s24.333 -41.334 40 -59.001
s31.834 -33.167 48.501 -46.5s31 -23.333 43 -30c6 -4 9.33301 -9.16699 10 -15.5s-0.666016 -12.166 -3.99902 -17.499l-26 -40c-38.667 20.667 -68.667 40.667 -90 60s-38.166 36.166 -50.499 50.499s-23.166 29.833 -32.499 46.5s-17 34.334 -23 53.001s-9 38.667 -9 60
c0 30.667 5.16699 55.834 15.5 75.501s23.333 35 39 46s32.334 18.5 50.001 22.5s33.834 6 48.501 6h23c-7.33301 6.66699 -13.666 15.5 -18.999 26.5s-9.66602 24.333 -12.999 40s-5 35.167 -5 58.5c0 29.333 3.5 55.666 10.5 78.999s18.667 43.166 35 59.499
s37.666 28.833 63.999 37.5s58.833 13 97.5 13c18.667 0 37.167 -1 55.5 -3s35.666 -4.33301 51.999 -7s32.5 -6 48.5 -10c-6.66699 -23.333 -10.667 -37 -12 -41c-3.33301 -9.33301 -8 -16 -14 -20s-16 -4.66699 -30 -2l-44 5c-18 2 -40 3 -66 3c-24 0 -43.333 -3 -58 -9
s-26.334 -14.167 -35.001 -24.5s-14.5 -22.666 -17.5 -36.999s-4.5 -29.5 -4.5 -45.5c0 -26 3.33301 -47.167 10 -63.5s14.5 -28.833 23.5 -37.5s18.167 -14.5 27.5 -17.5s17 -4.5 23 -4.5h161z" />
    <glyph glyph-name="faiso" unicode="&#x641;" horiz-adv-x="938" arabic-form="isolated" 
d="M267 0c-39.333 0 -73.3281 5.16895 -101.995 15.502s-52.334 24.5 -71.001 42.5s-32.334 38.833 -41.001 62.5s-13 49.167 -13 76.5c0 24.667 1.5 46.5 4.5 65.5s6.16699 34.167 9.5 45.5c2 6.66699 5.5 10.834 10.5 12.501s10.167 1.83398 15.5 0.500977
c2.66699 -1.33301 19.667 -7 51 -17c-2.66699 -11.333 -4.83398 -22.333 -6.50098 -33s-3.16699 -21.667 -4.5 -33s-2 -22.666 -2 -33.999c0 -26.667 4.16699 -48.334 12.5 -65.001s19.5 -29.834 33.5 -39.501s30 -16.167 48 -19.5s36.333 -5 55 -5h446
c31.333 0 56.666 6.16699 75.999 18.5s29 31.833 29 58.5l-17 -5.5c-5.33301 -1.66699 -11.5 -3.33398 -18.5 -5.00098s-15.167 -3 -24.5 -4s-21 -1.5 -35 -1.5c-132 0 -198 58.667 -198 176c0 30 3.5 56.833 10.5 80.5s18.5 43.667 34.5 60s36.667 28.666 62 36.999
s56.666 12.5 93.999 12.5c18.667 0 38.167 -1.83301 58.5 -5.5s39.5 -8 57.5 -13s36.333 -10.833 55 -17.5v-292c0 -60.667 -16.667 -104.834 -50 -132.501s-82.333 -41.5 -147 -41.5h-433zM725.005 205.002c18.667 0 33.8311 0.832031 45.498 2.49902s27.5 6.5 47.5 14.5
v190c-15.333 5.33301 -30.666 9.33301 -45.999 12s-30.666 4 -45.999 4c-42.667 0 -73.5 -9 -92.5 -27s-28.5 -48 -28.5 -90c0 -20 3.16699 -36.833 9.5 -50.5s15 -24.667 26 -33s23.833 -14.166 38.5 -17.499s30 -5 46 -5zM702.002 631.001c0 14 4.83301 25.833 14.5 35.5
s21.5 14.5 35.5 14.5s25.833 -4.83301 35.5 -14.5s14.5 -21.5 14.5 -35.5s-4.83301 -25.833 -14.5 -35.5s-21.5 -14.5 -35.5 -14.5s-25.833 4.83301 -35.5 14.5s-14.5 21.5 -14.5 35.5z" />
    <glyph glyph-name="kaafiso" unicode="&#x642;" horiz-adv-x="654" arabic-form="isolated" 
d="M344 492c0 14 4.83301 25.833 14.5 35.5s21.5 14.5 35.5 14.5s25.833 -4.83301 35.5 -14.5s14.5 -21.5 14.5 -35.5s-4.83301 -25.833 -14.5 -35.5s-21.5 -14.5 -35.5 -14.5s-25.833 4.83301 -35.5 14.5s-14.5 21.5 -14.5 35.5zM472 492c0 14 4.83301 25.833 14.5 35.5
s21.5 14.5 35.5 14.5s25.833 -4.83301 35.5 -14.5s14.5 -21.5 14.5 -35.5s-4.83301 -25.833 -14.5 -35.5s-21.5 -14.5 -35.5 -14.5s-25.833 4.83301 -35.5 14.5s-14.5 21.5 -14.5 35.5zM603 -35c0 -30 -2.32715 -59.167 -6.99414 -87.5s-15.667 -53.333 -33 -75
s-43.333 -39 -78 -52s-82.334 -19.5 -143.001 -19.5c-45.333 0 -86.333 4 -123 12s-67.834 21.167 -93.501 39.5s-45.5 42.166 -59.5 71.499s-21 65 -21 107c0 24.667 1.5 46.5 4.5 65.5s6.16699 34.167 9.5 45.5c2 6 5.33301 10.167 10 12.5s9.66699 2.83301 15 1.5l52 -17
c-2.66699 -10.667 -4.83398 -21.5 -6.50098 -32.5s-3.16699 -22.333 -4.5 -34s-2 -23.167 -2 -34.5c0 -37.333 6.16699 -66.666 18.5 -87.999s28.666 -37.5 48.999 -48.5s43.666 -18 69.999 -21s53.5 -4.5 81.5 -4.5c41.333 0 74.166 4 98.499 12s42.666 18.833 54.999 32.5
s20.333 29 24 46s5.5 34.5 5.5 52.5v63c-12.667 -3.33301 -28.334 -6.5 -47.001 -9.5s-34.667 -4.5 -48 -4.5c-39.333 0 -71.833 4.83301 -97.5 14.5s-46.167 23 -61.5 40s-26 37.5 -32 61.5s-8.33301 50.333 -7 79c2.66699 51.333 21.334 92.5 56.001 123.5
s87 46.5 157 46.5c18.667 0 37.334 -2 56.001 -6s36.167 -8.5 52.5 -13.5s32.833 -10.833 49.5 -17.5v-361zM422.006 67c18.667 0 34.668 0.833008 48.001 2.5s24.333 3.66699 33 6s16 5.16602 22 8.49902v189c-24.667 8 -49.667 13 -75 15s-48.333 -0.166992 -69 -6.5
s-37.5 -18 -50.5 -35s-19.5 -40.833 -19.5 -71.5c0 -39.333 9.66699 -67.166 29 -83.499s46.666 -24.5 81.999 -24.5z" />
    <glyph glyph-name="kafiso" unicode="&#x643;" horiz-adv-x="756" arabic-form="isolated" 
d="M698 201c0 -31.333 -2.83301 -59.332 -8.5 -83.999s-15.5 -45.667 -29.5 -63s-33.167 -30.666 -57.5 -39.999s-55.166 -14 -92.499 -14h-235c-39.333 0 -73.333 5.16699 -102 15.5s-52.334 24.5 -71.001 42.5s-32.5 39 -41.5 63s-13.5 49.333 -13.5 76
c0 19.333 1 37 3 53s4.66699 30.167 8 42.5s7.33301 24.166 12 35.499l49 -16c7.33301 -2.66699 12.5 -6.33398 15.5 -11.001s3.16699 -12.334 0.5 -23.001c-2.66699 -11.333 -4.83398 -22.166 -6.50098 -32.499s-2.5 -23.833 -2.5 -40.5c0 -26.667 4.33301 -48.5 13 -65.5
s20 -30.167 34 -39.5s29.833 -15.833 47.5 -19.5s35.834 -5.5 54.501 -5.5h235c38 0 65.833 8.16699 83.5 24.5s26.5 39.833 26.5 70.5v411c0 8 2.5 14.667 7.5 20s11.167 8 18.5 8h52v-408zM285 303.001l0.000976562 25.9971c0 7.33301 1.83301 12.833 5.5 16.5
s7.83398 5.5 12.501 5.5h8c-3.33301 4 -6 8.83301 -8 14.5s-3 13.834 -3 24.501c0 14 2.66699 26.5 8 37.5s12.666 19.833 21.999 26.5s20 11.334 32 14.001s24.667 4 38 4c9.33301 0 18.333 -0.5 27 -1.5s16.5 -2.33301 23.5 -4s13.833 -3.16699 20.5 -4.5l-5 -29
c-1.33301 -5.33301 -3.5 -9.5 -6.5 -12.5s-6.5 -4.16699 -10.5 -3.5c-1.33301 0 -6.83301 0.833008 -16.5 2.5s-20.167 2.5 -31.5 2.5c-21.333 0 -35.5 -3.83301 -42.5 -11.5s-10.5 -14.834 -10.5 -21.501c0 -9.33301 2 -16.166 6 -20.499s8.33301 -7.83301 13 -10.5
s10.167 -4.5 16.5 -5.5s12.166 -1.5 17.499 -1.5h51c5.33301 0 9 -1.66699 11 -5s3 -6.66602 3 -9.99902v-33h-181z" />
    <glyph glyph-name="lamiso" unicode="&#x644;" horiz-adv-x="654" arabic-form="isolated" 
d="M602 -3c0 -24 -2.99902 -49.165 -8.99902 -75.498s-18.167 -50.5 -36.5 -72.5s-44.333 -40.167 -78 -54.5s-77.834 -21.5 -132.501 -21.5c-32 0 -65.5 3.33301 -100.5 10s-67.167 19.667 -96.5 39s-53.5 46 -72.5 80s-28.5 78.667 -28.5 134c0 15.333 1 32.333 3 51
s4.5 37.5 7.5 56.5s6.66699 37.5 11 55.5s9.16602 33.667 14.499 47l50 -16c7.33301 -2.66699 12.333 -6.83398 15 -12.501s2.66699 -12.5 0 -20.5c-5.33301 -16 -10.333 -39 -15 -69s-7 -60.667 -7 -92c0 -42.667 7.5 -76 22.5 -100s33.833 -42 56.5 -54
s47.167 -19.5 73.5 -22.5s50.5 -4.5 72.5 -4.5c36.667 0 66.334 4 89.001 12s40.167 18.667 52.5 32s20.5 29.166 24.5 47.499s6 37.5 6 57.5v577c0 8 2.33301 14.667 7 20s10.667 8 18 8h53v-612z" />
    <glyph glyph-name="meemiso" unicode="&#x645;" horiz-adv-x="593" arabic-form="isolated" 
d="M448 313c-9.33301 3.33301 -19.999 6.66699 -31.999 10s-27.333 5 -46 5c-50 0 -86.167 -11.333 -108.5 -34s-33.5 -57 -33.5 -103c0 -23.333 4 -43.666 12 -60.999s19.167 -32 33.5 -44s31.166 -21 50.499 -27s40.333 -9 63 -9c17.333 0 31.833 4.16699 43.5 12.5
s17.5 23.166 17.5 44.499v206zM182.001 81.001c-6.66699 7.33301 -12.499 16.1719 -17.499 26.5049s-9.16699 23 -12.5 38s-5 32.5 -5 52.5c0 29.333 5.16699 56.333 15.5 81s25 45.834 44 63.501s42.167 31.5 69.5 41.5s58.333 15 93 15c17.333 0 35.166 -1.5 53.499 -4.5
s35.833 -6.33301 52.5 -10s34 -7.83398 52 -12.501v-259c0 -17.333 -1.66699 -34.166 -5 -50.499s-9.66602 -30.833 -18.999 -43.5s-22.5 -22.834 -39.5 -30.501s-39.167 -11.5 -66.5 -11.5c-14 0 -29 1 -45 3s-31.333 4.66699 -46 8s-28.167 7.16602 -40.5 11.499
s-22.5 9.16602 -30.5 14.499c-12 -1.33301 -24.5 -4.33301 -37.5 -9s-25 -11.334 -36 -20.001s-20.167 -19.167 -27.5 -31.5s-11 -26.833 -11 -43.5c0 -12.667 0.666992 -26.334 2 -41.001s3 -28.834 5 -42.501s4.16699 -26.5 6.5 -38.5s4.5 -22 6.5 -30
c1.33301 -5.33301 1.16602 -10.5 -0.500977 -15.5s-6.5 -8.5 -14.5 -10.5c-6 -1.33301 -25 -5 -57 -11c-7.33301 28.667 -12.5 52 -15.5 70s-5.83301 37.667 -8.5 59s-4 42 -4 62c0 31.333 5.5 57.5 16.5 78.5s24 38 39 51s30.333 22.5 46 28.5s28.167 9.66699 37.5 11z" />
    <glyph glyph-name="nouniso" unicode="&#x646;" horiz-adv-x="658" arabic-form="isolated" 
d="M610 0c0 -24 -3.16699 -49.166 -9.5 -75.499s-18.833 -50.333 -37.5 -72s-45 -39.667 -79 -54s-78.333 -21.5 -133 -21.5c-31.333 0 -64.666 3.33301 -99.999 10s-67.833 19.667 -97.5 39s-54.334 46 -74.001 80s-29.5 78.667 -29.5 134c0 15.333 1 32.333 3 51
s4.66699 37.5 8 56.5s7.16602 37.5 11.499 55.5s8.83301 33.667 13.5 47c26 -7.33301 43 -12.666 51 -15.999c8 -2.66699 13 -6.33398 15 -11.001s1.66699 -12 -1 -22c-2 -8 -4.33301 -18 -7 -30s-5.16699 -25.167 -7.5 -39.5s-4.16602 -29.333 -5.49902 -45
s-2 -31.167 -2 -46.5c0 -42.667 7.66699 -76 23 -100s34.5 -42 57.5 -54s47.833 -19.5 74.5 -22.5s51.334 -4.5 74.001 -4.5c36.667 0 66.5 4 89.5 12s40.667 18.667 53 32s20.666 29.166 24.999 47.499s6.5 37.5 6.5 57.5v330c0 8 2.33301 14.667 7 20s10.667 8 18 8h53
v-366zM281 368.001c0 14 4.83301 25.833 14.5 35.5s21.5 14.5 35.5 14.5s25.833 -4.83301 35.5 -14.5s14.5 -21.5 14.5 -35.5s-4.83301 -25.833 -14.5 -35.5s-21.5 -14.5 -35.5 -14.5s-25.833 4.83301 -35.5 14.5s-14.5 21.5 -14.5 35.5z" />
    <glyph glyph-name="haini" unicode="&#x647;" horiz-adv-x="635" arabic-form="initial" 
d="M292 408c48.667 0 91.5029 -4.16797 128.503 -12.501s68 -22 93 -41s43.833 -44.333 56.5 -76s19 -70.5 19 -116.5v-69c0 -10.667 -0.833008 -21.5 -2.5 -32.5s-5.66699 -21 -12 -30s-15.833 -16.333 -28.5 -22s-30 -8.5 -52 -8.5c-14 0 -28.333 0.833008 -43 2.5
s-28.334 4.16699 -41.001 7.5s-23.834 7.5 -33.501 12.5s-16.834 10.833 -21.501 17.5c-8.66699 -17.333 -22.834 -28.333 -42.501 -33s-40.834 -7 -63.501 -7h-269v75h132c-7.33301 6.66699 -13.666 15.167 -18.999 25.5s-9.66602 22.833 -12.999 37.5s-5 32 -5 52
c0 34 5.5 63 16.5 87s25.167 42 42.5 54l-35 -10c-8 -2 -14.333 -1.33301 -19 2s-8 8.66602 -10 15.999l-11 39c14.667 4 31.667 7.83301 51 11.5s39.333 6.83398 60 9.50098s41.5 4.83398 62.5 6.50098s40.833 2.5 59.5 2.5zM303.003 332.999
c-19.333 0.666992 -38.333 -1.16797 -57 -5.50098s-35.167 -12.333 -49.5 -24s-26 -27.167 -35 -46.5s-13.5 -43.666 -13.5 -72.999c0 -17.333 2.16699 -32.833 6.5 -46.5s10 -25.167 17 -34.5s15 -16.333 24 -21s17.833 -7 26.5 -7h34c21.333 0 34.5 5.33301 39.5 16
s7.5 25 7.5 43v199zM517.003 172.997c0 49.333 -13.332 86.168 -39.999 110.501s-61.334 40.166 -104.001 47.499v-233c4 -4 13.5 -8.83301 28.5 -14.5s37.833 -8.5 68.5 -8.5h47v98z" />
    <glyph glyph-name="wawiso" unicode="&#x648;" horiz-adv-x="485" arabic-form="isolated" 
d="M277 389c21.333 0 41.5 -1.50098 60.5 -4.50098s36.5 -6.33301 52.5 -10s31.333 -7.83398 46 -12.501v-366c0 -43.333 -3.66699 -79.333 -11 -108s-18.5 -51.5 -33.5 -68.5s-33.833 -29 -56.5 -36s-49 -10.5 -79 -10.5c-6 0 -13.667 0.333008 -23 1s-19 1.5 -29 2.5
s-19.667 2.5 -29 4.5s-17 4 -23 6c-7.33301 2.66699 -12.833 6.5 -16.5 11.5s-4.16699 12.5 -1.5 22.5l10 42c12 -2.66699 23.833 -5.16699 35.5 -7.5s24 -4.33301 37 -6s25.833 -2.5 38.5 -2.5c24 0 43.167 4 57.5 12s25 18.5 32 31.5s11.5 27.5 13.5 43.5s3 32 3 48v29
c-6.66699 -2.66699 -14 -5 -22 -7s-17.5 -3.66699 -28.5 -5s-23.167 -2 -36.5 -2c-22.667 0 -46.5 2.33301 -71.5 7s-48.167 13.834 -69.5 27.501s-39 33 -53 58s-21 57.833 -21 98.5c0 36.667 6 67.834 18 93.501s28 46.5 48 62.5s43.167 27.5 69.5 34.5
s53.833 10.5 82.5 10.5zM358 308.999c-9.33301 3.33301 -21.9971 6 -37.9971 8s-31.667 3 -47 3c-38 0 -69.5 -10.167 -94.5 -30.5s-37.5 -53.166 -37.5 -98.499c0 -23.333 3.66699 -42.833 11 -58.5s17.166 -28.167 29.499 -37.5s26.666 -16 42.999 -20
s33.166 -6 50.499 -6c15.333 0 28.333 0.666992 39 2s19.5 3.16602 26.5 5.49902s12.833 4.83301 17.5 7.5v225z" />
    <glyph glyph-name="alefma2souraiso" unicode="&#x649;" horiz-adv-x="764" arabic-form="isolated" 
d="M691 397c-0.666992 -5.33301 -1.50488 -13.3359 -2.50488 -24.0029s-1.83301 -18.667 -2.5 -24c-1.33301 -7.33301 -2.83301 -12.5 -4.5 -15.5s-6.16699 -4.5 -13.5 -4.5c-4 0 -10.667 0.666992 -20 2l-33 4.5c-12.667 1.66699 -26.167 3.16699 -40.5 4.5
s-27.833 2 -40.5 2c-48 0 -82.167 -5.33301 -102.5 -16s-30.5 -32.334 -30.5 -65.001c0 -15.333 4 -27.666 12 -36.999s18 -16.833 30 -22.5s25.333 -10.167 40 -13.5s41.667 -8.66602 81 -15.999s67.833 -14.666 85.5 -21.999s31.834 -17 42.501 -29
s18.334 -26.833 23.001 -44.5s7 -39.167 7 -64.5c0 -60 -14.167 -105.5 -42.5 -136.5s-77.166 -46.5 -146.499 -46.5h-228c-32.667 0 -63.834 3.83301 -93.501 11.5s-55.667 20.834 -78 39.501s-40.166 43.5 -53.499 74.5s-20 69.833 -20 116.5
c0 15.333 1.16699 31.333 3.5 48s5.33301 33 9 49s7.5 31 11.5 45s8 26.667 12 38l50 -12c6.66699 -2 10.834 -5 12.501 -9s1.5 -10.333 -0.5 -19c-0.666992 -3.33301 -1.83398 -8.16602 -3.50098 -14.499s-3.83398 -16.166 -6.50098 -29.499s-5.33398 -28.333 -8.00098 -45
s-4 -33.667 -4 -51c0 -36.667 6.16699 -66 18.5 -88s27.5 -39 45.5 -51s38 -19.833 60 -23.5s43.667 -5.5 65 -5.5h223c18.667 0 34.334 3 47.001 9s22.834 13.833 30.501 23.5s13.167 20.667 16.5 33s5 24.833 5 37.5c0 18 -2.5 32.667 -7.5 44s-12 20.166 -21 26.499
s-19.667 11.166 -32 14.499s-27.666 6.83301 -45.999 10.5s-40.666 7.5 -66.999 11.5s-51 11 -74 21s-42.333 24.833 -58 44.5s-23.5 47.167 -23.5 82.5c0 25.333 3.66699 47.833 11 67.5s19.166 36 35.499 49s37.833 22.833 64.5 29.5s59.334 10 98.001 10
c21.333 0 41.833 -1 61.5 -3s37.667 -4.33301 54 -7s32.5 -6 48.5 -10z" />
    <glyph glyph-name="yaiso" unicode="&#x64a;" horiz-adv-x="764" arabic-form="isolated" 
d="M282 -277c0 14 4.83301 25.833 14.5 35.5s21.5 14.5 35.5 14.5s25.833 -4.83301 35.5 -14.5s14.5 -21.5 14.5 -35.5s-4.83301 -25.833 -14.5 -35.5s-21.5 -14.5 -35.5 -14.5s-25.833 4.83301 -35.5 14.5s-14.5 21.5 -14.5 35.5zM410 -277c0 14 4.83301 25.833 14.5 35.5
s21.5 14.5 35.5 14.5s25.833 -4.83301 35.5 -14.5s14.5 -21.5 14.5 -35.5s-4.83301 -25.833 -14.5 -35.5s-21.5 -14.5 -35.5 -14.5s-25.833 4.83301 -35.5 14.5s-14.5 21.5 -14.5 35.5zM691 397c-0.666992 -5.33301 -1.50488 -13.3359 -2.50488 -24.0029
s-1.83301 -18.667 -2.5 -24c-1.33301 -7.33301 -2.83301 -12.5 -4.5 -15.5s-6.16699 -4.5 -13.5 -4.5c-4 0 -10.667 0.666992 -20 2l-33 4.5c-12.667 1.66699 -26.167 3.16699 -40.5 4.5s-27.833 2 -40.5 2c-48 0 -82.167 -5.33301 -102.5 -16s-30.5 -32.334 -30.5 -65.001
c0 -15.333 4 -27.666 12 -36.999s18 -16.833 30 -22.5s25.333 -10.167 40 -13.5s41.667 -8.66602 81 -15.999s67.833 -14.666 85.5 -21.999s31.834 -17 42.501 -29s18.334 -26.833 23.001 -44.5s7 -39.167 7 -64.5c0 -60 -14.167 -105.5 -42.5 -136.5
s-77.166 -46.5 -146.499 -46.5h-228c-32.667 0 -63.834 3.83301 -93.501 11.5s-55.667 20.834 -78 39.501s-40.166 43.5 -53.499 74.5s-20 69.833 -20 116.5c0 15.333 1.16699 31.333 3.5 48s5.33301 33 9 49s7.5 31 11.5 45s8 26.667 12 38l50 -12
c6.66699 -2 10.834 -5 12.501 -9s1.5 -10.333 -0.5 -19c-0.666992 -3.33301 -1.83398 -8.16602 -3.50098 -14.499s-3.83398 -16.166 -6.50098 -29.499s-5.33398 -28.333 -8.00098 -45s-4 -33.667 -4 -51c0 -36.667 6.16699 -66 18.5 -88s27.5 -39 45.5 -51
s38 -19.833 60 -23.5s43.667 -5.5 65 -5.5h223c18.667 0 34.334 3 47.001 9s22.834 13.833 30.501 23.5s13.167 20.667 16.5 33s5 24.833 5 37.5c0 18 -2.5 32.667 -7.5 44s-12 20.166 -21 26.499s-19.667 11.166 -32 14.499s-27.666 6.83301 -45.999 10.5
s-40.666 7.5 -66.999 11.5s-51 11 -74 21s-42.333 24.833 -58 44.5s-23.5 47.167 -23.5 82.5c0 25.333 3.66699 47.833 11 67.5s19.166 36 35.499 49s37.833 22.833 64.5 29.5s59.334 10 98.001 10c21.333 0 41.833 -1 61.5 -3s37.667 -4.33301 54 -7s32.5 -6 48.5 -10z" />
    <glyph glyph-name="alefwaslaiso" unicode="&#x671;" horiz-adv-x="230" arabic-form="isolated" 
 />
    <glyph glyph-name="piso.001" unicode="&#x67e;" horiz-adv-x="659" arabic-form="isolated" 
 />
    <glyph glyph-name="giso" unicode="&#x686;" horiz-adv-x="499" arabic-form="isolated" 
 />
    <glyph glyph-name="jehiso" unicode="&#x698;" horiz-adv-x="268" arabic-form="isolated" 
 />
    <glyph glyph-name="vehiso" unicode="&#x6a4;" horiz-adv-x="937" arabic-form="isolated" 
d="M267 0c-39.333 0 -73.3281 5.16895 -101.995 15.502s-52.334 24.5 -71.001 42.5s-32.334 38.833 -41.001 62.5s-13 49.167 -13 76.5c0 24.667 1.5 46.5 4.5 65.5s6.16699 34.167 9.5 45.5c2 6.66699 5.5 10.834 10.5 12.501s10.167 1.83398 15.5 0.500977
c2.66699 -1.33301 19.667 -7 51 -17c-2.66699 -11.333 -4.83398 -22.333 -6.50098 -33s-3.16699 -21.667 -4.5 -33s-2 -22.666 -2 -33.999c0 -26.667 4.16699 -48.334 12.5 -65.001s19.5 -29.834 33.5 -39.501s30 -16.167 48 -19.5s36.333 -5 55 -5h446
c31.333 0 56.666 6.16699 75.999 18.5s29 31.833 29 58.5l-17 -5.5c-5.33301 -1.66699 -11.5 -3.33398 -18.5 -5.00098s-15.167 -3 -24.5 -4s-21 -1.5 -35 -1.5c-132 0 -198 58.667 -198 176c0 30 3.5 56.833 10.5 80.5s18.5 43.667 34.5 60s36.667 28.666 62 36.999
s56.666 12.5 93.999 12.5c18.667 0 38.167 -1.83301 58.5 -5.5s39.5 -8 57.5 -13s36.333 -10.833 55 -17.5v-292c0 -60.667 -16.667 -104.834 -50 -132.501s-82.333 -41.5 -147 -41.5h-433zM725.005 205.002c18.667 0 33.8311 0.832031 45.498 2.49902s27.5 6.5 47.5 14.5
v190c-15.333 5.33301 -30.666 9.33301 -45.999 12s-30.666 4 -45.999 4c-42.667 0 -73.5 -9 -92.5 -27s-28.5 -48 -28.5 -90c0 -20 3.16699 -36.833 9.5 -50.5s15 -24.667 26 -33s23.833 -14.166 38.5 -17.499s30 -5 46 -5zM609.002 631.001c0 14 4.83301 25.833 14.5 35.5
s21.5 14.5 35.5 14.5s25.833 -4.83301 35.5 -14.5s14.5 -21.5 14.5 -35.5s-4.83301 -25.833 -14.5 -35.5s-21.5 -14.5 -35.5 -14.5s-25.833 4.83301 -35.5 14.5s-14.5 21.5 -14.5 35.5zM736.002 631.001c0 14 4.83301 25.833 14.5 35.5s21.5 14.5 35.5 14.5
s25.833 -4.83301 35.5 -14.5s14.5 -21.5 14.5 -35.5s-4.83301 -25.833 -14.5 -35.5s-21.5 -14.5 -35.5 -14.5s-25.833 4.83301 -35.5 14.5s-14.5 21.5 -14.5 35.5zM672.002 754.001c0 14 4.83301 25.833 14.5 35.5s21.5 14.5 35.5 14.5s25.833 -4.83301 35.5 -14.5
s14.5 -21.5 14.5 -35.5s-4.83301 -25.833 -14.5 -35.5s-21.5 -14.5 -35.5 -14.5s-25.833 4.83301 -35.5 14.5s-14.5 21.5 -14.5 35.5z" />
    <glyph glyph-name="kehehiso" unicode="&#x6a9;" horiz-adv-x="645" arabic-form="isolated" 
 />
    <glyph glyph-name="gafiso" unicode="&#x6af;" horiz-adv-x="645" arabic-form="isolated" 
 />
    <glyph glyph-name="farsiyaiso" unicode="&#x6cc;" horiz-adv-x="764" arabic-form="isolated" 
 />
    <glyph glyph-name="alefwaslafina" unicode="&#x671;" horiz-adv-x="244" arabic-form="final" 
 />
    <glyph glyph-name="pfina" unicode="&#x67e;" horiz-adv-x="714" arabic-form="final" 
 />
    <glyph glyph-name="pini" unicode="&#x67e;" horiz-adv-x="249" arabic-form="initial" 
 />
    <glyph glyph-name="pmedi" unicode="&#x67e;" horiz-adv-x="279" arabic-form="medial" 
 />
    <glyph glyph-name="vehfina" unicode="&#x6a4;" horiz-adv-x="1021" arabic-form="final" 
d="M829 297l-25.0029 6.00195c-8.66699 2 -18.167 3.83301 -28.5 5.5s-21.166 2.5 -32.499 2.5c-25.333 0 -46.166 -3.33301 -62.499 -10s-29 -15.334 -38 -26.001s-15.167 -22.834 -18.5 -36.501s-5 -27.5 -5 -41.5c0 -23.333 3 -42.833 9 -58.5s13.167 -28.167 21.5 -37.5
s16.833 -16 25.5 -20s15.667 -6 21 -6h82c18.667 0 31.834 4.5 39.501 13.5s11.5 21.833 11.5 38.5v170zM907.997 106.002c6 -6 13.667 -11.166 23 -15.499s20.5 -8 33.5 -11s29.167 -4.5 48.5 -4.5h19v-75h-19c-17.333 0 -38 4 -62 12s-43.667 20.667 -59 38
c-8 -13.333 -21.667 -25 -41 -35s-43.333 -15 -72 -15h-524c-33.333 0 -62.666 5.16699 -87.999 15.5s-46.5 24.5 -63.5 42.5s-29.833 38.833 -38.5 62.5s-13 49.167 -13 76.5c0 19.333 1 37 3 53s4.5 30.167 7.5 42.5s6.83301 24.166 11.5 35.499
c28.667 -9.33301 45.667 -15 51 -17c6.66699 -2 11.167 -5.66699 13.5 -11s2.5 -13 0.5 -23c-2.66699 -11.333 -4.83398 -22.166 -6.50098 -32.499s-2.5 -23.833 -2.5 -40.5c0 -26.667 4.33301 -48.334 13 -65.001s20 -29.834 34 -39.501s29.833 -16.167 47.5 -19.5
s35.834 -5 54.501 -5h298c-0.666992 0 -3 2.33301 -7 7s-8.16699 12 -12.5 22s-8.33301 22.833 -12 38.5s-5.5 34.834 -5.5 57.501c0 28.667 4.16699 54.5 12.5 77.5s21.166 42.833 38.499 59.5s39.5 29.5 66.5 38.5s59.167 13.5 96.5 13.5c18.667 0 37.167 -2 55.5 -6
s35.5 -8.5 51.5 -13.5s31.667 -10.833 47 -17.5v-246zM618.997 531.003c0 14 4.83301 25.833 14.5 35.5s21.5 14.5 35.5 14.5s25.833 -4.83301 35.5 -14.5s14.5 -21.5 14.5 -35.5s-4.83301 -25.833 -14.5 -35.5s-21.5 -14.5 -35.5 -14.5s-25.833 4.83301 -35.5 14.5
s-14.5 21.5 -14.5 35.5zM745.997 531.003c0 14 4.83301 25.833 14.5 35.5s21.5 14.5 35.5 14.5s25.833 -4.83301 35.5 -14.5s14.5 -21.5 14.5 -35.5s-4.83301 -25.833 -14.5 -35.5s-21.5 -14.5 -35.5 -14.5s-25.833 4.83301 -35.5 14.5s-14.5 21.5 -14.5 35.5z
M681.997 654.003c0 14 4.83301 25.833 14.5 35.5s21.5 14.5 35.5 14.5s25.833 -4.83301 35.5 -14.5s14.5 -21.5 14.5 -35.5s-4.83301 -25.833 -14.5 -35.5s-21.5 -14.5 -35.5 -14.5s-25.833 4.83301 -35.5 14.5s-14.5 21.5 -14.5 35.5z" />
    <glyph glyph-name="vehini" unicode="&#x6a4;" horiz-adv-x="485" arabic-form="initial" 
d="M-20 0l0.000976562 75.002h268c33.333 0 60.666 4.83301 81.999 14.5s32 28.167 32 55.5c-11.333 -6 -26.666 -11.167 -45.999 -15.5s-39.666 -6.5 -60.999 -6.5c-33.333 0 -61.333 3.83301 -84 11.5s-41 18.667 -55 33s-24 31.833 -30 52.5s-9 44 -9 70
s3.5 49.167 10.5 69.5s18.167 37.666 33.5 51.999s35.333 25.333 60 33s55 11.5 91 11.5c18.667 0 37.667 -2 57 -6s37.666 -8.83301 54.999 -14.5s34.666 -11.834 51.999 -18.501v-254c0 -21.333 -2.83301 -41.833 -8.5 -61.5s-15.5 -37 -29.5 -52s-33 -27 -57 -36
s-54.333 -13.5 -91 -13.5h-270zM254.001 193.002c18.667 0 34.502 0.833008 47.502 2.5s24.167 3.83398 33.5 6.50098s17 5.66699 23 9v155c-16.667 5.33301 -32 9.66602 -46 12.999s-31 5 -51 5c-34 0 -60.667 -7.16699 -80 -21.5s-29 -40.5 -29 -78.5
c0 -18 2.66699 -32.833 8 -44.5s12.666 -21 21.999 -28s20.166 -11.833 32.499 -14.5s25.5 -4 39.5 -4zM155.003 576.002c0 14 4.83301 25.833 14.5 35.5s21.5 14.5 35.5 14.5s25.833 -4.83301 35.5 -14.5s14.5 -21.5 14.5 -35.5s-4.83301 -25.833 -14.5 -35.5
s-21.5 -14.5 -35.5 -14.5s-25.833 4.83301 -35.5 14.5s-14.5 21.5 -14.5 35.5zM282.003 576.002c0 14 4.83301 25.833 14.5 35.5s21.5 14.5 35.5 14.5s25.833 -4.83301 35.5 -14.5s14.5 -21.5 14.5 -35.5s-4.83301 -25.833 -14.5 -35.5s-21.5 -14.5 -35.5 -14.5
s-25.833 4.83301 -35.5 14.5s-14.5 21.5 -14.5 35.5zM218.003 699.002c0 14 4.83301 25.833 14.5 35.5s21.5 14.5 35.5 14.5s25.833 -4.83301 35.5 -14.5s14.5 -21.5 14.5 -35.5s-4.83301 -25.833 -14.5 -35.5s-21.5 -14.5 -35.5 -14.5s-25.833 4.83301 -35.5 14.5
s-14.5 21.5 -14.5 35.5z" />
    <glyph glyph-name="vehmedi" unicode="&#x6a4;" horiz-adv-x="492" arabic-form="medial" 
d="M510 75v-75.002h-530v75h147l-11.5 9.5c-7.66699 6.33301 -16.167 15.333 -25.5 27s-17.833 26.167 -25.5 43.5s-11.5 37 -11.5 59c0 27.333 3.5 52.5 10.5 75.5s18.167 42.667 33.5 59s35 29 59 38s53 13.5 87 13.5c25.333 0 49.666 -3 72.999 -9s43.833 -16 61.5 -30
s31.834 -33 42.501 -57s16 -54 16 -90c0 -23.333 -4.16699 -43.666 -12.5 -60.999s-17.5 -31.666 -27.5 -42.999c-12 -13.333 -25.333 -25 -40 -35h154zM362 215.998c0 14.667 -1.66699 28.9961 -5 42.9961s-10.5 26.333 -21.5 37s-24.5 19.167 -40.5 25.5s-33 9.5 -51 9.5
c-21.333 0 -39.5 -3.16699 -54.5 -9.5s-27.167 -14.833 -36.5 -25.5s-16.166 -23 -20.499 -37s-6.5 -28.333 -6.5 -43c0 -15.333 2.66699 -29.166 8 -41.499s13.166 -24 23.499 -35s22.833 -21.667 37.5 -32s31 -21.166 49 -32.499l40 26c14 9.33301 26.667 19.833 38 31.5
s20.833 24.334 28.5 38.001s11.5 28.834 11.5 45.501zM131 530.994c0 14 4.83301 25.833 14.5 35.5s21.5 14.5 35.5 14.5s25.833 -4.83301 35.5 -14.5s14.5 -21.5 14.5 -35.5s-4.83301 -25.833 -14.5 -35.5s-21.5 -14.5 -35.5 -14.5s-25.833 4.83301 -35.5 14.5
s-14.5 21.5 -14.5 35.5zM258 530.994c0 14 4.83301 25.833 14.5 35.5s21.5 14.5 35.5 14.5s25.833 -4.83301 35.5 -14.5s14.5 -21.5 14.5 -35.5s-4.83301 -25.833 -14.5 -35.5s-21.5 -14.5 -35.5 -14.5s-25.833 4.83301 -35.5 14.5s-14.5 21.5 -14.5 35.5zM194 653.994
c0 14 4.83301 25.833 14.5 35.5s21.5 14.5 35.5 14.5s25.833 -4.83301 35.5 -14.5s14.5 -21.5 14.5 -35.5s-4.83301 -25.833 -14.5 -35.5s-21.5 -14.5 -35.5 -14.5s-25.833 4.83301 -35.5 14.5s-14.5 21.5 -14.5 35.5z" />
    <glyph glyph-name="gfina" unicode="&#x686;" horiz-adv-x="532" arabic-form="final" 
 />
    <glyph glyph-name="gini" unicode="&#x686;" horiz-adv-x="510" arabic-form="initial" 
 />
    <glyph glyph-name="gmedi" unicode="&#x686;" horiz-adv-x="472" arabic-form="medial" 
 />
    <glyph glyph-name="jehfina" unicode="&#x698;" horiz-adv-x="294" arabic-form="final" 
 />
    <glyph glyph-name="kehehfina" unicode="&#x6a9;" horiz-adv-x="698" arabic-form="final" 
 />
    <glyph glyph-name="kafini" unicode="&#x6a9;" horiz-adv-x="546" arabic-form="initial" 
d="M-20 0l-0.00195312 75.002h440v45c0 20.667 -2.16699 40.834 -6.5 60.501s-12.666 37 -24.999 52s-30 27 -53 36s-53.5 13.5 -91.5 13.5h-131c-7.33301 0 -13 1.16699 -17 3.5s-8.33301 6.16602 -13 11.499l-31 52l335 260l41 -44c3.33301 -4 4.83301 -8.83301 4.5 -14.5
s-2.83301 -10.5 -7.5 -14.5c-0.666992 -0.666992 -81.334 -62 -242.001 -184h88c40.667 0 75.334 -5.5 104.001 -16.5s51.834 -26.833 69.501 -47.5s30.5 -45.834 38.5 -75.501s12 -62.834 12 -99.501v-82c0 -9.33301 -2 -16.833 -6 -22.5s-9.33301 -8.5 -16 -8.5h-493z" />
    <glyph glyph-name="kafmedi" unicode="&#x6a9;" horiz-adv-x="608" arabic-form="medial" 
d="M496 108c6 -6.66699 13.665 -12.1689 22.998 -16.502s20.5 -8.16602 33.5 -11.499s29.167 -5 48.5 -5h20v-75h-20c-16 0 -34.833 3.33301 -56.5 10s-40.167 17.334 -55.5 32.001c-5.33301 -13.333 -15 -23.666 -29 -30.999s-35 -11 -63 -11h-417v75h441v45
c0 20.667 -2.16699 40.834 -6.5 60.501s-12.666 37 -24.999 52s-30 27 -53 36s-53.5 13.5 -91.5 13.5h-133c-7.33301 0 -13 1.16699 -17 3.5s-8.33301 6.16602 -13 11.499l-31 52l337 260c23.333 -24.667 37 -39.334 41 -44.001c4.66699 -5.33301 6.5 -10.666 5.5 -15.999
s-3.83301 -9.66602 -8.5 -12.999c-0.666992 -0.666992 -81.334 -62 -242.001 -184h88c40.667 0 75.334 -5.5 104.001 -16.5s51.834 -26.833 69.501 -47.5s30.5 -45.834 38.5 -75.501s12 -62.834 12 -99.501v-5z" />
    <glyph glyph-name="gaffina" unicode="&#x6af;" horiz-adv-x="708" arabic-form="final" 
 />
    <glyph glyph-name="gafini" unicode="&#x6af;" horiz-adv-x="431" arabic-form="initial" 
 />
    <glyph glyph-name="gafmedi" unicode="&#x6af;" horiz-adv-x="492" arabic-form="medial" 
 />
    <glyph glyph-name="kirsehini" unicode="&#x649;" horiz-adv-x="293" arabic-form="initial" 
d="M155 337c0 8 2.5 14.666 7.5 19.999s11.167 8 18.5 8h52v-209c0 -53.333 -15.333 -92.666 -46 -117.999s-76.667 -38 -138 -38h-69v75h66c34 0 60.667 8 80 24s29 39.667 29 71v167v0z" />
    <glyph glyph-name="kirsehmedi" unicode="&#x649;" arabic-form="medial" 
d="M104 337c0 8 2.50293 14.667 7.50293 20s11.167 8 18.5 8h52v-259c6 -6 13.667 -11.167 23 -15.5s20.666 -8 33.999 -11s29.666 -4.5 48.999 -4.5h19v-75h-19c-8 -0 -17.5 0.833008 -28.5 2.5s-22 4.5 -33 8.5s-21.833 9 -32.5 15s-19.667 13.667 -27 23
c-8 -13.333 -21.833 -24.833 -41.5 -34.5s-43.834 -14.5 -72.501 -14.5h-73v75h48c28 0 47.667 6.83301 59 20.5s17 31.167 17 52.5v189v0z" />
    <glyph glyph-name="alefma2sourafina" unicode="&#x6cc;" horiz-adv-x="716" arabic-form="final" 
d="M467 -164c11.333 0 23.665 1.66895 36.998 5.00195s25.5 8.66602 36.5 15.999s20.167 16.333 27.5 27s11 23.667 11 39c0 17.333 -4.16699 33.166 -12.5 47.499s-19.333 27.333 -33 39s-29.167 21.834 -46.5 30.501s-35 16 -53 22
c0.666992 2.66699 6.33398 19.334 17.001 50.001c2 7.33301 5.5 13.666 10.5 18.999s13.167 5.66602 24.5 0.999023l40 -17.5c14 -6.33301 29 -12.5 45 -18.5s33.333 -11 52 -15s39 -6 61 -6h54v-75h-103c4 -6 7.33301 -12.833 10 -20.5s5.16699 -16.834 7.5 -27.501
s3.5 -23.667 3.5 -39c0 -11.333 -2.83301 -25.666 -8.5 -42.999s-16.167 -34 -31.5 -50s-36.166 -29.667 -62.499 -41s-59.833 -17 -100.5 -17h-149c-32 0 -62.833 3.83301 -92.5 11.5s-55.667 20.667 -78 39s-40.166 43 -53.499 74s-20 69.833 -20 116.5
c0 15.333 1.16699 31.333 3.5 48s5.16602 33 8.49902 49s7.16602 31 11.499 45l11.5 38l44 -11c6.66699 -2 11.167 -5.16699 13.5 -9.5s2.5 -10.833 0.5 -19.5l-12 -53.5c-5.33301 -24.333 -8 -53.166 -8 -86.499c0 -36.667 6 -66 18 -88s27.333 -38.833 46 -50.5
s39.334 -19.334 62.001 -23.001s44.667 -5.5 66 -5.5h142z" />
    <glyph glyph-name="yaini" unicode="&#x6cc;" horiz-adv-x="293" arabic-form="initial" 
d="M9 -109c0 14 4.83301 25.833 14.5 35.5s21.5 14.5 35.5 14.5s25.833 -4.83301 35.5 -14.5s14.5 -21.5 14.5 -35.5s-4.83301 -25.833 -14.5 -35.5s-21.5 -14.5 -35.5 -14.5s-25.833 4.83301 -35.5 14.5s-14.5 21.5 -14.5 35.5zM137 -109c0 14 4.83301 25.833 14.5 35.5
s21.5 14.5 35.5 14.5s25.833 -4.83301 35.5 -14.5s14.5 -21.5 14.5 -35.5s-4.83301 -25.833 -14.5 -35.5s-21.5 -14.5 -35.5 -14.5s-25.833 4.83301 -35.5 14.5s-14.5 21.5 -14.5 35.5zM155 337c0 8 2.83301 14.666 8.5 19.999s12.167 8 19.5 8h50v-209
c0 -53.333 -15.333 -92.666 -46 -117.999s-76.667 -38 -138 -38h-69v75h66c34 0 60.667 8 80 24s29 39.667 29 71v167v0z" />
    <glyph glyph-name="yamedi" unicode="&#x6cc;" arabic-form="medial" 
d="M104 337c0 8 2.66992 14.667 8.00293 20s12 8 20 8h50v-259c6 -6 13.667 -11.167 23 -15.5s20.666 -8 33.999 -11s29.666 -4.5 48.999 -4.5h19v-75h-19c-8 -0 -17.5 0.833008 -28.5 2.5s-22 4.5 -33 8.5s-21.833 9 -32.5 15s-19.667 13.667 -27 23
c-8 -13.333 -21.833 -24.833 -41.5 -34.5s-43.834 -14.5 -72.501 -14.5h-73v75h48c28 0 47.667 6.83301 59 20.5s17 31.167 17 52.5v189v0zM31.0029 -109c0 14 4.83301 25.833 14.5 35.5s21.5 14.5 35.5 14.5s25.833 -4.83301 35.5 -14.5s14.5 -21.5 14.5 -35.5
s-4.83301 -25.833 -14.5 -35.5s-21.5 -14.5 -35.5 -14.5s-25.833 4.83301 -35.5 14.5s-14.5 21.5 -14.5 35.5zM159.003 -109c0 14 4.83301 25.833 14.5 35.5s21.5 14.5 35.5 14.5s25.833 -4.83301 35.5 -14.5s14.5 -21.5 14.5 -35.5s-4.83301 -25.833 -14.5 -35.5
s-21.5 -14.5 -35.5 -14.5s-25.833 4.83301 -35.5 14.5s-14.5 21.5 -14.5 35.5z" />
    <glyph glyph-name="alefmaddaabovefina" unicode="&#x622;" horiz-adv-x="261" arabic-form="final" 
d="M130 695c-15.333 -13.333 -33 -21.667 -53 -25s-39.667 1 -59 13c-8.66699 4.66699 -16.334 9.66699 -23.001 15s-12.667 10.666 -18 15.999c-6 6 -11.667 12 -17 18c12 10.667 18.667 16.667 20 18c4 4 8.66699 5.83301 14 5.5s12 -3.83301 20 -10.5
c5.33301 -4 11.333 -8.16699 18 -12.5s13.5 -7.5 20.5 -9.5s14.167 -2.33301 21.5 -1s14.333 5 21 11c9.33301 9.33301 19.333 15.833 30 19.5s21.334 5.5 32.001 5.5c21.333 0 40.666 -6 57.999 -18s32.666 -25.667 45.999 -41l-22 -24
c-3.33301 -3.33301 -7.5 -4.66602 -12.5 -3.99902s-10.5 3.66699 -16.5 9c-15.333 13.333 -29.166 21.833 -41.499 25.5s-25.166 0.166992 -38.499 -10.5zM67 608.999h49.999c7.33301 0 13.833 -2.66699 19.5 -8s8.5 -12 8.5 -20v-412c0 -30.667 8.83301 -54 26.5 -70
s45.5 -24 83.5 -24h22v-75h-22c-37.333 0 -68.166 4.66699 -92.499 14s-43.5 22.666 -57.5 39.999s-23.833 38.333 -29.5 63s-8.5 52.334 -8.5 83.001v409z" />
    <glyph glyph-name="alefhamzaabovefina" unicode="&#x623;" horiz-adv-x="261" arabic-form="final" 
d="M-1 663l0.000976562 25.9971c0 7.33301 1.83301 12.833 5.5 16.5s7.83398 5.5 12.501 5.5h8c-3.33301 4 -6 8.83301 -8 14.5s-3 13.834 -3 24.501c0 14 2.66699 26.5 8 37.5s12.666 19.833 21.999 26.5s20 11.334 32 14.001s24.667 4 38 4c9.33301 0 18.333 -0.5 27 -1.5
s16.5 -2.33301 23.5 -4s13.833 -3.16699 20.5 -4.5l-5 -29c-1.33301 -5.33301 -3.5 -9.5 -6.5 -12.5s-6.5 -4.16699 -10.5 -3.5c-1.33301 0 -6.83301 0.833008 -16.5 2.5s-20.167 2.5 -31.5 2.5c-21.333 0 -35.5 -3.83301 -42.5 -11.5s-10.5 -14.834 -10.5 -21.501
c0 -9.33301 2 -16.166 6 -20.499s8.33301 -7.83301 13 -10.5s10.167 -4.5 16.5 -5.5s12.166 -1.5 17.499 -1.5h51c5.33301 0 9 -1.66699 11 -5s3 -6.66602 3 -9.99902v-33h-181zM67.001 608.997h49.999c7.33301 0 13.833 -2.66699 19.5 -8s8.5 -12 8.5 -20v-412
c0 -30.667 8.83301 -54 26.5 -70s45.5 -24 83.5 -24h22v-75h-22c-37.333 0 -68.166 4.66699 -92.499 14s-43.5 22.666 -57.5 39.999s-23.833 38.333 -29.5 63s-8.5 52.334 -8.5 83.001v409z" />
    <glyph glyph-name="wawhamzafina" unicode="&#x624;" horiz-adv-x="506" arabic-form="final" 
d="M518 0l-82 0.000976562v-9c0 -43.333 -4 -79 -12 -107s-20 -50.333 -36 -67s-35.667 -28.167 -59 -34.5s-50 -9.5 -80 -9.5c-12 0 -26.167 1.16699 -42.5 3.5s-31.166 5.16602 -44.499 8.49902c-8 2 -15.5 5.16699 -22.5 9.5s-9.16699 11.166 -6.5 20.499l11 48
c10 -2.66699 20.5 -5.16699 31.5 -7.5s22.667 -4.33301 35 -6s24.833 -2.5 37.5 -2.5c30 0 52.833 4.83301 68.5 14.5s26.667 21.834 33 36.501s9.83301 31 10.5 49s1 35.667 1 53h-113c-18.667 -0 -38.667 2.33301 -60 7s-41.5 13.5 -60.5 26.5s-35.167 31.667 -48.5 56
s-20 56.833 -20 97.5c0 32.667 5.16699 61.834 15.5 87.501s25.166 47 44.499 64s42.5 29.667 69.5 38s56.5 12.5 88.5 12.5c21.333 0 41.5 -1.5 60.5 -4.5s36.5 -6.33301 52.5 -10s31.333 -7.83398 46 -12.501v-287h82v-75zM358 309.001
c-28.667 7.33301 -53.666 11.001 -74.999 11.001c-17.333 0.666992 -34.5 -1 -51.5 -5s-32.5 -10.833 -46.5 -20.5s-25 -23 -33 -40s-12 -37.833 -12 -62.5c0 -40.667 10.667 -70.334 32 -89.001s48.666 -28 81.999 -28h104v234zM134.001 452.002l0.000976562 25.9971
c0 7.33301 1.83301 12.833 5.5 16.5s7.83398 5.5 12.501 5.5h8c-3.33301 4 -6 8.83301 -8 14.5s-3 13.834 -3 24.501c0 14 2.66699 26.5 8 37.5s12.666 19.833 21.999 26.5s20 11.334 32 14.001s24.667 4 38 4c9.33301 0 18.333 -0.5 27 -1.5s16.5 -2.33301 23.5 -4
s13.833 -3.16699 20.5 -4.5l-5 -29c-1.33301 -5.33301 -3.5 -9.5 -6.5 -12.5s-6.5 -4.16699 -10.5 -3.5c-1.33301 0 -6.83301 0.833008 -16.5 2.5s-20.167 2.5 -31.5 2.5c-21.333 0 -35.5 -3.83301 -42.5 -11.5s-10.5 -14.834 -10.5 -21.501c0 -9.33301 2 -16.166 6 -20.499
s8.33301 -7.83301 13 -10.5s10.167 -4.5 16.5 -5.5s12.166 -1.5 17.499 -1.5h51c5.33301 0 9 -1.66699 11 -5s3 -6.66602 3 -9.99902v-33h-181z" />
    <glyph glyph-name="alefhamzabelowfina" unicode="&#x625;" horiz-adv-x="261" arabic-form="final" 
d="M67 609h49.999c7.33301 0 13.833 -2.66699 19.5 -8s8.5 -12 8.5 -20v-412c0 -30.667 8.83301 -54 26.5 -70s45.5 -24 83.5 -24h22v-75h-22c-37.333 0 -68.166 4.66699 -92.499 14s-43.5 22.666 -57.5 39.999s-23.833 38.333 -29.5 63s-8.5 52.334 -8.5 83.001v409z
M61.999 -213l0.000976562 25.9971c0 7.33301 1.83301 12.833 5.5 16.5s7.83398 5.5 12.501 5.5h8c-3.33301 4 -6 8.83301 -8 14.5s-3 13.834 -3 24.501c0 14 2.66699 26.5 8 37.5s12.666 19.833 21.999 26.5s20 11.334 32 14.001s24.667 4 38 4
c9.33301 0 18.333 -0.5 27 -1.5s16.5 -2.33301 23.5 -4s13.833 -3.16699 20.5 -4.5l-5 -29c-1.33301 -5.33301 -3.5 -9.5 -6.5 -12.5s-6.5 -4.16699 -10.5 -3.5c-1.33301 0 -6.83301 0.833008 -16.5 2.5s-20.167 2.5 -31.5 2.5c-21.333 0 -35.5 -3.83301 -42.5 -11.5
s-10.5 -14.834 -10.5 -21.501c0 -9.33301 2 -16.166 6 -20.499s8.33301 -7.83301 13 -10.5s10.167 -4.5 16.5 -5.5s12.166 -1.5 17.499 -1.5h51c5.33301 0 9 -1.66699 11 -5s3 -6.66602 3 -9.99902v-33h-181z" />
    <glyph glyph-name="hamzakirsehfina" unicode="&#x626;" horiz-adv-x="716" arabic-form="final" 
d="M467 -164c11.333 0 23.665 1.66895 36.998 5.00195s25.5 8.66602 36.5 15.999s20.167 16.333 27.5 27s11 23.667 11 39c0 17.333 -4.16699 33.166 -12.5 47.499s-19.333 27.333 -33 39s-29.167 21.834 -46.5 30.501s-35 16 -53 22
c0.666992 2.66699 6.33398 19.334 17.001 50.001c2 7.33301 5.5 13.666 10.5 18.999s13.167 5.66602 24.5 0.999023l40 -17.5c14 -6.33301 29 -12.5 45 -18.5s33.333 -11 52 -15s39 -6 61 -6h54v-75h-103c4 -6 7.33301 -12.833 10 -20.5s5.16699 -16.834 7.5 -27.501
s3.5 -23.667 3.5 -39c0 -11.333 -2.83301 -25.666 -8.5 -42.999s-16.167 -34 -31.5 -50s-36.166 -29.667 -62.499 -41s-59.833 -17 -100.5 -17h-149c-32 0 -62.833 3.83301 -92.5 11.5s-55.667 20.667 -78 39s-40.166 43 -53.499 74s-20 69.833 -20 116.5
c0 15.333 1.16699 31.333 3.5 48s5.16602 33 8.49902 49s7.16602 31 11.499 45l11.5 38l44 -11c6.66699 -2 11.167 -5.16699 13.5 -9.5s2.5 -10.833 0.5 -19.5l-12 -53.5c-5.33301 -24.333 -8 -53.166 -8 -86.499c0 -36.667 6 -66 18 -88s27.333 -38.833 46 -50.5
s39.334 -19.334 62.001 -23.001s44.667 -5.5 66 -5.5h142zM62.999 224.002l0.000976562 25.9971c0 7.33301 1.83301 12.833 5.5 16.5s7.83398 5.5 12.501 5.5h8c-3.33301 4 -6 8.83301 -8 14.5s-3 13.834 -3 24.501c0 14 2.66699 26.5 8 37.5s12.666 19.833 21.999 26.5
s20 11.334 32 14.001s24.667 4 38 4c9.33301 0 18.333 -0.5 27 -1.5s16.5 -2.33301 23.5 -4s13.833 -3.16699 20.5 -4.5l-5 -29c-1.33301 -5.33301 -3.5 -9.5 -6.5 -12.5s-6.5 -4.16699 -10.5 -3.5c-1.33301 0 -6.83301 0.833008 -16.5 2.5s-20.167 2.5 -31.5 2.5
c-21.333 0 -35.5 -3.83301 -42.5 -11.5s-10.5 -14.834 -10.5 -21.501c0 -9.33301 2 -16.166 6 -20.499s8.33301 -7.83301 13 -10.5s10.167 -4.5 16.5 -5.5s12.166 -1.5 17.499 -1.5h51c5.33301 0 9 -1.66699 11 -5s3 -6.66602 3 -9.99902v-33h-181z" />
    <glyph glyph-name="hamzakirsehini" unicode="&#x626;" horiz-adv-x="293" arabic-form="initial" 
d="M155 337c0 8 2.83301 14.666 8.5 19.999s12.167 8 19.5 8h50v-209c0 -53.333 -15.333 -92.666 -46 -117.999s-76.667 -38 -138 -38h-69v75h66c34 0 60.667 8 80 24s29 39.667 29 71v167v0zM101 442.999l0.000976562 25.9971c0 7.33301 1.83301 12.833 5.5 16.5
s7.83398 5.5 12.501 5.5h8c-3.33301 4 -6 8.83301 -8 14.5s-3 13.834 -3 24.501c0 14 2.66699 26.5 8 37.5s12.666 19.833 21.999 26.5s20 11.334 32 14.001s24.667 4 38 4c9.33301 0 18.333 -0.5 27 -1.5s16.5 -2.33301 23.5 -4s13.833 -3.16699 20.5 -4.5l-5 -29
c-1.33301 -5.33301 -3.5 -9.5 -6.5 -12.5s-6.5 -4.16699 -10.5 -3.5c-1.33301 0 -6.83301 0.833008 -16.5 2.5s-20.167 2.5 -31.5 2.5c-21.333 0 -35.5 -3.83301 -42.5 -11.5s-10.5 -14.834 -10.5 -21.501c0 -9.33301 2 -16.166 6 -20.499s8.33301 -7.83301 13 -10.5
s10.167 -4.5 16.5 -5.5s12.166 -1.5 17.499 -1.5h51c5.33301 0 9 -1.66699 11 -5s3 -6.66602 3 -9.99902v-33h-181z" />
    <glyph glyph-name="hamzakirsehmedi" unicode="&#x626;" arabic-form="medial" 
d="M104 337c0 8 2.66992 14.667 8.00293 20s12 8 20 8h50v-259c6 -6 13.667 -11.167 23 -15.5s20.666 -8 33.999 -11s29.666 -4.5 48.999 -4.5h19v-75h-19c-8 -0 -17.5 0.833008 -28.5 2.5s-22 4.5 -33 8.5s-21.833 9 -32.5 15s-19.667 13.667 -27 23
c-8 -13.333 -21.833 -24.833 -41.5 -34.5s-43.834 -14.5 -72.501 -14.5h-73v75h48c28 0 47.667 6.83301 59 20.5s17 31.167 17 52.5v189v0zM50.0029 442l0.000976562 25.9971c0 7.33301 1.83301 12.833 5.5 16.5s7.83398 5.5 12.501 5.5h8c-3.33301 4 -6 8.83301 -8 14.5
s-3 13.834 -3 24.501c0 14 2.66699 26.5 8 37.5s12.666 19.833 21.999 26.5s20 11.334 32 14.001s24.667 4 38 4c9.33301 0 18.333 -0.5 27 -1.5s16.5 -2.33301 23.5 -4s13.833 -3.16699 20.5 -4.5l-5 -29c-1.33301 -5.33301 -3.5 -9.5 -6.5 -12.5s-6.5 -4.16699 -10.5 -3.5
c-1.33301 0 -6.83301 0.833008 -16.5 2.5s-20.167 2.5 -31.5 2.5c-21.333 0 -35.5 -3.83301 -42.5 -11.5s-10.5 -14.834 -10.5 -21.501c0 -9.33301 2 -16.166 6 -20.499s8.33301 -7.83301 13 -10.5s10.167 -4.5 16.5 -5.5s12.166 -1.5 17.499 -1.5h51
c5.33301 0 9 -1.66699 11 -5s3 -6.66602 3 -9.99902v-33h-181z" />
    <glyph glyph-name="aleffina" unicode="&#x627;" horiz-adv-x="261" arabic-form="final" 
d="M67 609h49.999c7.33301 0 13.833 -2.66699 19.5 -8s8.5 -12 8.5 -20v-412c0 -30.667 8.83301 -54 26.5 -70s45.5 -24 83.5 -24h22v-75h-22c-37.333 0 -68.166 4.66699 -92.499 14s-43.5 22.666 -57.5 39.999s-23.833 38.333 -29.5 63s-8.5 52.334 -8.5 83.001v409z" />
    <glyph glyph-name="behfina" unicode="&#x628;" horiz-adv-x="854" arabic-form="final" 
d="M662 337c0 7.33301 2.83301 13.835 8.5 19.502s12.167 8.5 19.5 8.5h50v-258c6 -6 13.667 -11.167 23 -15.5s20.5 -8.16602 33.5 -11.499s29.167 -5 48.5 -5h20v-75h-20c-8 0 -17.5 0.833008 -28.5 2.5s-22 4.5 -33 8.5s-21.667 9.16699 -32 15.5
s-19.5 14.166 -27.5 23.499c-8 -13.333 -21.667 -25 -41 -35s-43.333 -15 -72 -15h-368c-38 0 -70.333 5 -97 15s-48.167 23.333 -64.5 40s-28.166 36 -35.499 58s-11 45 -11 69c0 18.667 1 35.834 3 51.501s4.33301 29.5 7 41.5s6.33398 23.333 11.001 34
c27.333 -8 42.666 -12.667 45.999 -14c7.33301 -2.66699 12.166 -6.33398 14.499 -11.001s2.5 -12.334 0.5 -23.001c-2.66699 -11.333 -5 -21.833 -7 -31.5s-3 -22.834 -3 -39.501c0 -22.667 4.66699 -41.5 14 -56.5s21.666 -26.833 36.999 -35.5s32.833 -14.667 52.5 -18
s39.834 -5 60.501 -5h315c28 0 47.667 6.5 59 19.5s17 30.5 17 52.5v190v0zM336 -106.998c0 14 4.83301 25.833 14.5 35.5s21.5 14.5 35.5 14.5s25.833 -4.83301 35.5 -14.5s14.5 -21.5 14.5 -35.5s-4.83301 -25.833 -14.5 -35.5s-21.5 -14.5 -35.5 -14.5
s-25.833 4.83301 -35.5 14.5s-14.5 21.5 -14.5 35.5z" />
    <glyph glyph-name="behini" unicode="&#x628;" horiz-adv-x="293" arabic-form="initial" 
d="M155 337c0 8 2.83301 14.666 8.5 19.999s12.167 8 19.5 8h50v-209c0 -53.333 -15.333 -92.666 -46 -117.999s-76.667 -38 -138 -38h-69v75h66c34 0 60.667 8 80 24s29 39.667 29 71v167v0zM94 -107.001c0 14 4.83301 25.833 14.5 35.5s21.5 14.5 35.5 14.5
s25.833 -4.83301 35.5 -14.5s14.5 -21.5 14.5 -35.5s-4.83301 -25.833 -14.5 -35.5s-21.5 -14.5 -35.5 -14.5s-25.833 4.83301 -35.5 14.5s-14.5 21.5 -14.5 35.5z" />
    <glyph glyph-name="behmedi" unicode="&#x628;" arabic-form="medial" 
d="M104 337c0 8 2.66992 14.667 8.00293 20s12 8 20 8h50v-259c6 -6 13.667 -11.167 23 -15.5s20.666 -8 33.999 -11s29.666 -4.5 48.999 -4.5h19v-75h-19c-8 -0 -17.5 0.833008 -28.5 2.5s-22 4.5 -33 8.5s-21.833 9 -32.5 15s-19.667 13.667 -27 23
c-8 -13.333 -21.833 -24.833 -41.5 -34.5s-43.834 -14.5 -72.501 -14.5h-73v75h48c28 0 47.667 6.83301 59 20.5s17 31.167 17 52.5v189v0zM83.0029 -107c0 14 4.83301 25.833 14.5 35.5s21.5 14.5 35.5 14.5s25.833 -4.83301 35.5 -14.5s14.5 -21.5 14.5 -35.5
s-4.83301 -25.833 -14.5 -35.5s-21.5 -14.5 -35.5 -14.5s-25.833 4.83301 -35.5 14.5s-14.5 21.5 -14.5 35.5z" />
    <glyph glyph-name="tehmarboutafina" unicode="&#x629;" horiz-adv-x="486" arabic-form="final" 
d="M156 531c0 14 4.83301 25.833 14.5 35.5s21.5 14.5 35.5 14.5s25.833 -4.83301 35.5 -14.5s14.5 -21.5 14.5 -35.5s-4.83301 -25.833 -14.5 -35.5s-21.5 -14.5 -35.5 -14.5s-25.833 4.83301 -35.5 14.5s-14.5 21.5 -14.5 35.5zM284 531c0 14 4.83301 25.833 14.5 35.5
s21.5 14.5 35.5 14.5s25.833 -4.83301 35.5 -14.5s14.5 -21.5 14.5 -35.5s-4.83301 -25.833 -14.5 -35.5s-21.5 -14.5 -35.5 -14.5s-25.833 4.83301 -35.5 14.5s-14.5 21.5 -14.5 35.5zM498 75l0.000976562 -75.002h-51c-10.667 0 -20.334 1.83301 -29.001 5.5
s-16.5 8 -23.5 13s-12.833 10.167 -17.5 15.5s-8 10 -10 14c-4 -4 -9.5 -9.16699 -16.5 -15.5s-16 -12.333 -27 -18s-24 -10.667 -39 -15s-32.167 -6.5 -51.5 -6.5c-20.667 0 -41.667 2.66699 -63 8s-40.833 15.666 -58.5 30.999s-32.167 36.833 -43.5 64.5
s-17 63.834 -17 108.501c0 27.333 3.33301 52.833 10 76.5s17.5 44.334 32.5 62.001s34.333 31.5 58 41.5s52.834 15 87.501 15c23.333 0 46 -1.33301 68 -4s42.333 -5.66699 61 -9s36.667 -7.33301 54 -12v-261c0 -13.333 4.16699 -23.166 12.5 -29.499
s18.166 -9.5 29.499 -9.5h34zM344.001 318.998c-17.333 4.66699 -34.833 7.66699 -52.5 9s-32.167 2 -43.5 2c-16.667 0 -32.167 -1.66699 -46.5 -5s-26.833 -9.83301 -37.5 -19.5s-19 -22.667 -25 -39s-9 -37.5 -9 -63.5c0 -48.667 9.66699 -83.667 29 -105
s46.666 -32 81.999 -32c18.667 0 34.334 2 47.001 6s23.5 8.83301 32.5 14.5s16.833 12.167 23.5 19.5v213z" />
    <glyph glyph-name="tafina" unicode="&#x62a;" horiz-adv-x="854" arabic-form="final" 
d="M662 337c0 7.33301 2.83301 13.835 8.5 19.502s12.167 8.5 19.5 8.5h50v-258c6 -6 13.667 -11.167 23 -15.5s20.5 -8.16602 33.5 -11.499s29.167 -5 48.5 -5h20v-75h-20c-8 0 -17.5 0.833008 -28.5 2.5s-22 4.5 -33 8.5s-21.667 9.16699 -32 15.5
s-19.5 14.166 -27.5 23.499c-8 -13.333 -21.667 -25 -41 -35s-43.333 -15 -72 -15h-368c-38 0 -70.333 5 -97 15s-48.167 23.333 -64.5 40s-28.166 36 -35.499 58s-11 45 -11 69c0 18.667 1 35.834 3 51.501s4.33301 29.5 7 41.5s6.33398 23.333 11.001 34
c27.333 -8 42.666 -12.667 45.999 -14c7.33301 -2.66699 12.166 -6.33398 14.499 -11.001s2.5 -12.334 0.5 -23.001c-2.66699 -11.333 -5 -21.833 -7 -31.5s-3 -22.834 -3 -39.501c0 -22.667 4.66699 -41.5 14 -56.5s21.666 -26.833 36.999 -35.5s32.833 -14.667 52.5 -18
s39.834 -5 60.501 -5h315c28 0 47.667 6.5 59 19.5s17 30.5 17 52.5v190v0zM273 444.002c0 14 4.83301 25.833 14.5 35.5s21.5 14.5 35.5 14.5s25.833 -4.83301 35.5 -14.5s14.5 -21.5 14.5 -35.5s-4.83301 -25.833 -14.5 -35.5s-21.5 -14.5 -35.5 -14.5
s-25.833 4.83301 -35.5 14.5s-14.5 21.5 -14.5 35.5zM401 444.002c0 14 4.83301 25.833 14.5 35.5s21.5 14.5 35.5 14.5s25.833 -4.83301 35.5 -14.5s14.5 -21.5 14.5 -35.5s-4.83301 -25.833 -14.5 -35.5s-21.5 -14.5 -35.5 -14.5s-25.833 4.83301 -35.5 14.5
s-14.5 21.5 -14.5 35.5z" />
    <glyph glyph-name="taini" unicode="&#x62a;" horiz-adv-x="298" arabic-form="initial" 
d="M155 337c0 8 2.83301 14.666 8.5 19.999s12.167 8 19.5 8h50v-209c0 -53.333 -15.333 -92.666 -46 -117.999s-76.667 -38 -138 -38h-69v75h66c34 0 60.667 8 80 24s29 39.667 29 71v167v0zM70 495.999c0 14 4.83301 25.833 14.5 35.5s21.5 14.5 35.5 14.5
s25.833 -4.83301 35.5 -14.5s14.5 -21.5 14.5 -35.5s-4.83301 -25.833 -14.5 -35.5s-21.5 -14.5 -35.5 -14.5s-25.833 4.83301 -35.5 14.5s-14.5 21.5 -14.5 35.5zM198 495.999c0 14 4.83301 25.833 14.5 35.5s21.5 14.5 35.5 14.5s25.833 -4.83301 35.5 -14.5
s14.5 -21.5 14.5 -35.5s-4.83301 -25.833 -14.5 -35.5s-21.5 -14.5 -35.5 -14.5s-25.833 4.83301 -35.5 14.5s-14.5 21.5 -14.5 35.5z" />
    <glyph glyph-name="tamedi" unicode="&#x62a;" arabic-form="medial" 
d="M104 337c0 8 2.66992 14.667 8.00293 20s12 8 20 8h50v-259c6 -6 13.667 -11.167 23 -15.5s20.666 -8 33.999 -11s29.666 -4.5 48.999 -4.5h19v-75h-19c-8 -0 -17.5 0.833008 -28.5 2.5s-22 4.5 -33 8.5s-21.833 9 -32.5 15s-19.667 13.667 -27 23
c-8 -13.333 -21.833 -24.833 -41.5 -34.5s-43.834 -14.5 -72.501 -14.5h-73v75h48c28 0 47.667 6.83301 59 20.5s17 31.167 17 52.5v189v0zM31.0029 495c0 14 4.83301 25.833 14.5 35.5s21.5 14.5 35.5 14.5s25.833 -4.83301 35.5 -14.5s14.5 -21.5 14.5 -35.5
s-4.83301 -25.833 -14.5 -35.5s-21.5 -14.5 -35.5 -14.5s-25.833 4.83301 -35.5 14.5s-14.5 21.5 -14.5 35.5zM159.003 495c0 14 4.83301 25.833 14.5 35.5s21.5 14.5 35.5 14.5s25.833 -4.83301 35.5 -14.5s14.5 -21.5 14.5 -35.5s-4.83301 -25.833 -14.5 -35.5
s-21.5 -14.5 -35.5 -14.5s-25.833 4.83301 -35.5 14.5s-14.5 21.5 -14.5 35.5z" />
    <glyph glyph-name="thafina" unicode="&#x62b;" horiz-adv-x="854" arabic-form="final" 
d="M272 444c0 14 4.83301 25.833 14.5 35.5s21.5 14.5 35.5 14.5s25.833 -4.83301 35.5 -14.5s14.5 -21.5 14.5 -35.5s-4.83301 -25.833 -14.5 -35.5s-21.5 -14.5 -35.5 -14.5s-25.833 4.83301 -35.5 14.5s-14.5 21.5 -14.5 35.5zM399 444c0 14 4.83301 25.833 14.5 35.5
s21.5 14.5 35.5 14.5s25.833 -4.83301 35.5 -14.5s14.5 -21.5 14.5 -35.5s-4.83301 -25.833 -14.5 -35.5s-21.5 -14.5 -35.5 -14.5s-25.833 4.83301 -35.5 14.5s-14.5 21.5 -14.5 35.5zM335 567c0 14 4.83301 25.833 14.5 35.5s21.5 14.5 35.5 14.5
s25.833 -4.83301 35.5 -14.5s14.5 -21.5 14.5 -35.5s-4.83301 -25.833 -14.5 -35.5s-21.5 -14.5 -35.5 -14.5s-25.833 4.83301 -35.5 14.5s-14.5 21.5 -14.5 35.5zM662 337c0 7.33301 2.83301 13.835 8.5 19.502s12.167 8.5 19.5 8.5h50v-258c6 -6 13.667 -11.167 23 -15.5
s20.5 -8.16602 33.5 -11.499s29.167 -5 48.5 -5h20v-75h-20c-8 0 -17.5 0.833008 -28.5 2.5s-22 4.5 -33 8.5s-21.667 9.16699 -32 15.5s-19.5 14.166 -27.5 23.499c-8 -13.333 -21.667 -25 -41 -35s-43.333 -15 -72 -15h-368c-38 0 -70.333 5 -97 15
s-48.167 23.333 -64.5 40s-28.166 36 -35.499 58s-11 45 -11 69c0 18.667 1 35.834 3 51.501s4.33301 29.5 7 41.5s6.33398 23.333 11.001 34c27.333 -8 42.666 -12.667 45.999 -14c7.33301 -2.66699 12.166 -6.33398 14.499 -11.001s2.5 -12.334 0.5 -23.001
c-2.66699 -11.333 -5 -21.833 -7 -31.5s-3 -22.834 -3 -39.501c0 -22.667 4.66699 -41.5 14 -56.5s21.666 -26.833 36.999 -35.5s32.833 -14.667 52.5 -18s39.834 -5 60.501 -5h315c28 0 47.667 6.5 59 19.5s17 30.5 17 52.5v190v0z" />
    <glyph glyph-name="thaini" unicode="&#x62b;" horiz-adv-x="301" arabic-form="initial" 
d="M155 337c0 8 2.83301 14.666 8.5 19.999s12.167 8 19.5 8h50v-209c0 -53.333 -15.333 -92.666 -46 -117.999s-76.667 -38 -138 -38h-69v75h66c34 0 60.667 8 80 24s29 39.667 29 71v167v0zM74 495.999c0 14 4.83301 25.833 14.5 35.5s21.5 14.5 35.5 14.5
s25.833 -4.83301 35.5 -14.5s14.5 -21.5 14.5 -35.5s-4.83301 -25.833 -14.5 -35.5s-21.5 -14.5 -35.5 -14.5s-25.833 4.83301 -35.5 14.5s-14.5 21.5 -14.5 35.5zM201 495.999c0 14 4.83301 25.833 14.5 35.5s21.5 14.5 35.5 14.5s25.833 -4.83301 35.5 -14.5
s14.5 -21.5 14.5 -35.5s-4.83301 -25.833 -14.5 -35.5s-21.5 -14.5 -35.5 -14.5s-25.833 4.83301 -35.5 14.5s-14.5 21.5 -14.5 35.5zM137 618.999c0 14 4.83301 25.833 14.5 35.5s21.5 14.5 35.5 14.5s25.833 -4.83301 35.5 -14.5s14.5 -21.5 14.5 -35.5
s-4.83301 -25.833 -14.5 -35.5s-21.5 -14.5 -35.5 -14.5s-25.833 4.83301 -35.5 14.5s-14.5 21.5 -14.5 35.5z" />
    <glyph glyph-name="thamedi" unicode="&#x62b;" arabic-form="medial" 
d="M104 337c0 8 2.66992 14.667 8.00293 20s12 8 20 8h50v-259c6 -6 13.667 -11.167 23 -15.5s20.666 -8 33.999 -11s29.666 -4.5 48.999 -4.5h19v-75h-19c-8 -0 -17.5 0.833008 -28.5 2.5s-22 4.5 -33 8.5s-21.833 9 -32.5 15s-19.667 13.667 -27 23
c-8 -13.333 -21.833 -24.833 -41.5 -34.5s-43.834 -14.5 -72.501 -14.5h-73v75h48c28 0 47.667 6.83301 59 20.5s17 31.167 17 52.5v189v0zM31.0029 496c0 14 4.83301 25.833 14.5 35.5s21.5 14.5 35.5 14.5s25.833 -4.83301 35.5 -14.5s14.5 -21.5 14.5 -35.5
s-4.83301 -25.833 -14.5 -35.5s-21.5 -14.5 -35.5 -14.5s-25.833 4.83301 -35.5 14.5s-14.5 21.5 -14.5 35.5zM158.003 496c0 14 4.83301 25.833 14.5 35.5s21.5 14.5 35.5 14.5s25.833 -4.83301 35.5 -14.5s14.5 -21.5 14.5 -35.5s-4.83301 -25.833 -14.5 -35.5
s-21.5 -14.5 -35.5 -14.5s-25.833 4.83301 -35.5 14.5s-14.5 21.5 -14.5 35.5zM94.0029 619c0 14 4.83301 25.833 14.5 35.5s21.5 14.5 35.5 14.5s25.833 -4.83301 35.5 -14.5s14.5 -21.5 14.5 -35.5s-4.83301 -25.833 -14.5 -35.5s-21.5 -14.5 -35.5 -14.5
s-25.833 4.83301 -35.5 14.5s-14.5 21.5 -14.5 35.5z" />
    <glyph glyph-name="jeemfina" unicode="&#x62c;" horiz-adv-x="668" arabic-form="final" 
d="M292 -125c0 14 4.83301 25.833 14.5 35.5s21.5 14.5 35.5 14.5s25.833 -4.83301 35.5 -14.5s14.5 -21.5 14.5 -35.5s-4.83301 -25.833 -14.5 -35.5s-21.5 -14.5 -35.5 -14.5s-25.833 4.83301 -35.5 14.5s-14.5 21.5 -14.5 35.5zM548 41
c-5.33301 -14 -14.3359 -24.334 -27.0029 -31.001s-30 -10 -52 -10h-240c-15.333 0 -29.666 -1 -42.999 -3s-25 -6.16699 -35 -12.5s-17.833 -15.333 -23.5 -27s-8.5 -26.834 -8.5 -45.501c0 -26 5.66699 -48.667 17 -68s24.833 -36 40.5 -50s31.834 -26 48.501 -36l42 -25
c7.33301 -5.33301 10.666 -10.833 9.99902 -16.5s-2.33398 -10.834 -5.00098 -15.501c-1.33301 -2.66699 -8.66602 -15 -21.999 -37c-38.667 17.333 -68.667 34.833 -90 52.5s-38.166 33 -50.499 46s-23.166 27.333 -32.499 43s-17 32.667 -23 51s-9 38.166 -9 59.499
c0 36.667 6.33301 65.5 19 86.5s28 36.833 46 47.5s37 17.5 57 20.5s37.333 4.5 52 4.5h259v83c0 24.667 -1 46.834 -3 66.501s-7.5 36.334 -16.5 50.001s-23.333 24.167 -43 31.5s-46.834 11 -81.501 11c-30.667 0 -60.334 -2.16699 -89.001 -6.5s-51 -8.5 -67 -12.5
c-16.667 -4.66699 -26 -0.666992 -28 12c-1.33301 4 -5.66602 21 -12.999 51c18.667 4.66699 38.167 8.83398 58.5 12.501s42.5 7 66.5 10s49.667 4.5 77 4.5c38.667 0 71.834 -3.83301 99.501 -11.5s50 -20 67 -37s29.5 -38.833 37.5 -65.5s12 -58.667 12 -96v-71
c6 -6 13.667 -11.167 23 -15.5s20.5 -8.16602 33.5 -11.499s29.167 -5 48.5 -5h20v-75h-20c-15.333 0 -33.833 3.16699 -55.5 9.5s-40.5 16.833 -56.5 31.5z" />
    <glyph glyph-name="jeemini" unicode="&#x62c;" horiz-adv-x="514" arabic-form="initial" 
d="M-20 75l416.999 -0.00195312v83c0 24.667 -1 46.834 -3 66.501s-7.66699 36.334 -17 50.001s-23.666 24.167 -42.999 31.5s-46.333 11 -81 11c-15.333 0 -30.666 -0.666992 -45.999 -2s-29.833 -2.83301 -43.5 -4.5s-26.167 -3.66699 -37.5 -6s-21 -4.5 -29 -6.5
c-16.667 -4.66699 -26.334 -0.666992 -29.001 12c-1.33301 4 -5.33301 21 -12 51c18 4.66699 37.167 8.83398 57.5 12.501s42.666 7 66.999 10s50.166 4.5 77.499 4.5c38.667 0 71.834 -3.83301 99.501 -11.5s50 -20 67 -37s29.5 -38.833 37.5 -65.5s12 -58.667 12 -96v-88
c0 -30.667 -6.16699 -53.334 -18.5 -68.001s-35.166 -22 -68.499 -22h-407v75zM214.999 -107.002c0 14 4.83301 25.833 14.5 35.5s21.5 14.5 35.5 14.5s25.833 -4.83301 35.5 -14.5s14.5 -21.5 14.5 -35.5s-4.83301 -25.833 -14.5 -35.5s-21.5 -14.5 -35.5 -14.5
s-25.833 4.83301 -35.5 14.5s-14.5 21.5 -14.5 35.5z" />
    <glyph glyph-name="jeemmedi" unicode="&#x62c;" horiz-adv-x="610" arabic-form="medial" 
d="M487 41c-5.33301 -14 -14.1611 -24.3369 -26.4941 -31.0039s-29.833 -10 -52.5 -10h-428v75h437v83c0 24.667 -1 46.834 -3 66.501s-7.5 36.334 -16.5 50.001s-23.333 24.167 -43 31.5s-46.834 11 -81.501 11c-30.667 0 -60.334 -2.16699 -89.001 -6.5
s-51 -8.5 -67 -12.5c-16.667 -4.66699 -26 -0.666992 -28 12l-12 51c18 4.66699 37.167 8.83398 57.5 12.501s42.5 7 66.5 10s49.667 4.5 77 4.5c39.333 0 72.666 -3.83301 99.999 -11.5s49.666 -20 66.999 -37s29.833 -38.833 37.5 -65.5s11.5 -58.667 11.5 -96v-71
c6 -6 13.667 -11.167 23 -15.5s20.666 -8.16602 33.999 -11.499s29.666 -5 48.999 -5h19v-75h-19c-16 0 -34.833 3.16699 -56.5 9.5s-40.5 16.833 -56.5 31.5zM235.005 -107.004c0 14 4.83301 25.833 14.5 35.5s21.5 14.5 35.5 14.5s25.833 -4.83301 35.5 -14.5
s14.5 -21.5 14.5 -35.5s-4.83301 -25.833 -14.5 -35.5s-21.5 -14.5 -35.5 -14.5s-25.833 4.83301 -35.5 14.5s-14.5 21.5 -14.5 35.5z" />
    <glyph glyph-name="haafina" unicode="&#x62d;" horiz-adv-x="668" arabic-form="final" 
d="M548 41c-5.33301 -14 -14.3359 -24.334 -27.0029 -31.001s-30 -10 -52 -10h-240c-15.333 0 -29.666 -1 -42.999 -3s-25 -6.16699 -35 -12.5s-17.833 -15.333 -23.5 -27s-8.5 -26.834 -8.5 -45.501c0 -26 5.66699 -48.667 17 -68s24.833 -36 40.5 -50
s31.834 -26 48.501 -36l42 -25c7.33301 -5.33301 10.666 -10.833 9.99902 -16.5s-2.33398 -10.834 -5.00098 -15.501c-1.33301 -2.66699 -8.66602 -15 -21.999 -37c-38.667 17.333 -68.667 34.833 -90 52.5s-38.166 33 -50.499 46s-23.166 27.333 -32.499 43
s-17 32.667 -23 51s-9 38.166 -9 59.499c0 36.667 6.33301 65.5 19 86.5s28 36.833 46 47.5s37 17.5 57 20.5s37.333 4.5 52 4.5h259v83c0 24.667 -1 46.834 -3 66.501s-7.5 36.334 -16.5 50.001s-23.333 24.167 -43 31.5s-46.834 11 -81.501 11
c-30.667 0 -60.334 -2.16699 -89.001 -6.5s-51 -8.5 -67 -12.5c-16.667 -4.66699 -26 -0.666992 -28 12c-1.33301 4 -5.66602 21 -12.999 51c18.667 4.66699 38.167 8.83398 58.5 12.501s42.5 7 66.5 10s49.667 4.5 77 4.5c38.667 0 71.834 -3.83301 99.501 -11.5
s50 -20 67 -37s29.5 -38.833 37.5 -65.5s12 -58.667 12 -96v-71c6 -6 13.667 -11.167 23 -15.5s20.5 -8.16602 33.5 -11.499s29.167 -5 48.5 -5h20v-75h-20c-15.333 0 -33.833 3.16699 -55.5 9.5s-40.5 16.833 -56.5 31.5z" />
    <glyph glyph-name="haaini" unicode="&#x62d;" horiz-adv-x="514" arabic-form="initial" 
d="M-20 75l416.999 -0.00195312v83c0 24.667 -1 46.834 -3 66.501s-7.66699 36.334 -17 50.001s-23.666 24.167 -42.999 31.5s-46.333 11 -81 11c-15.333 0 -30.666 -0.666992 -45.999 -2s-29.833 -2.83301 -43.5 -4.5s-26.167 -3.66699 -37.5 -6s-21 -4.5 -29 -6.5
c-16.667 -4.66699 -26.334 -0.666992 -29.001 12c-1.33301 4 -5.33301 21 -12 51c18 4.66699 37.167 8.83398 57.5 12.501s42.666 7 66.999 10s50.166 4.5 77.499 4.5c38.667 0 71.834 -3.83301 99.501 -11.5s50 -20 67 -37s29.5 -38.833 37.5 -65.5s12 -58.667 12 -96v-88
c0 -30.667 -6.16699 -53.334 -18.5 -68.001s-35.166 -22 -68.499 -22h-407v75z" />
    <glyph glyph-name="haamedi" unicode="&#x62d;" horiz-adv-x="610" arabic-form="medial" 
d="M487 41c-5.33301 -14 -14.1611 -24.3369 -26.4941 -31.0039s-29.833 -10 -52.5 -10h-428v75h437v83c0 24.667 -1 46.834 -3 66.501s-7.5 36.334 -16.5 50.001s-23.333 24.167 -43 31.5s-46.834 11 -81.501 11c-30.667 0 -60.334 -2.16699 -89.001 -6.5
s-51 -8.5 -67 -12.5c-16.667 -4.66699 -26 -0.666992 -28 12l-12 51c18 4.66699 37.167 8.83398 57.5 12.501s42.5 7 66.5 10s49.667 4.5 77 4.5c39.333 0 72.666 -3.83301 99.999 -11.5s49.666 -20 66.999 -37s29.833 -38.833 37.5 -65.5s11.5 -58.667 11.5 -96v-71
c6 -6 13.667 -11.167 23 -15.5s20.666 -8.16602 33.999 -11.499s29.666 -5 48.999 -5h19v-75h-19c-16 0 -34.833 3.16699 -56.5 9.5s-40.5 16.833 -56.5 31.5z" />
    <glyph glyph-name="khafina" unicode="&#x62e;" horiz-adv-x="668" arabic-form="final" 
d="M261 521c0 14 4.83301 25.833 14.5 35.5s21.5 14.5 35.5 14.5s25.833 -4.83301 35.5 -14.5s14.5 -21.5 14.5 -35.5s-4.83301 -25.833 -14.5 -35.5s-21.5 -14.5 -35.5 -14.5s-25.833 4.83301 -35.5 14.5s-14.5 21.5 -14.5 35.5zM548 41
c-5.33301 -14 -14.3359 -24.334 -27.0029 -31.001s-30 -10 -52 -10h-240c-15.333 0 -29.666 -1 -42.999 -3s-25 -6.16699 -35 -12.5s-17.833 -15.333 -23.5 -27s-8.5 -26.834 -8.5 -45.501c0 -26 5.66699 -48.667 17 -68s24.833 -36 40.5 -50s31.834 -26 48.501 -36l42 -25
c7.33301 -5.33301 10.666 -10.833 9.99902 -16.5s-2.33398 -10.834 -5.00098 -15.501c-1.33301 -2.66699 -8.66602 -15 -21.999 -37c-38.667 17.333 -68.667 34.833 -90 52.5s-38.166 33 -50.499 46s-23.166 27.333 -32.499 43s-17 32.667 -23 51s-9 38.166 -9 59.499
c0 36.667 6.33301 65.5 19 86.5s28 36.833 46 47.5s37 17.5 57 20.5s37.333 4.5 52 4.5h259v83c0 24.667 -1 46.834 -3 66.501s-7.5 36.334 -16.5 50.001s-23.333 24.167 -43 31.5s-46.834 11 -81.501 11c-30.667 0 -60.334 -2.16699 -89.001 -6.5s-51 -8.5 -67 -12.5
c-16.667 -4.66699 -26 -0.666992 -28 12c-1.33301 4 -5.66602 21 -12.999 51c18.667 4.66699 38.167 8.83398 58.5 12.501s42.5 7 66.5 10s49.667 4.5 77 4.5c38.667 0 71.834 -3.83301 99.501 -11.5s50 -20 67 -37s29.5 -38.833 37.5 -65.5s12 -58.667 12 -96v-71
c6 -6 13.667 -11.167 23 -15.5s20.5 -8.16602 33.5 -11.499s29.167 -5 48.5 -5h20v-75h-20c-15.333 0 -33.833 3.16699 -55.5 9.5s-40.5 16.833 -56.5 31.5z" />
    <glyph glyph-name="khaini" unicode="&#x62e;" horiz-adv-x="514" arabic-form="initial" 
d="M180 523c0 14 4.83301 25.833 14.5 35.5s21.5 14.5 35.5 14.5s25.833 -4.83301 35.5 -14.5s14.5 -21.5 14.5 -35.5s-4.83301 -25.833 -14.5 -35.5s-21.5 -14.5 -35.5 -14.5s-25.833 4.83301 -35.5 14.5s-14.5 21.5 -14.5 35.5zM-20 75l416.999 -0.00195312v83
c0 24.667 -1 46.834 -3 66.501s-7.66699 36.334 -17 50.001s-23.666 24.167 -42.999 31.5s-46.333 11 -81 11c-15.333 0 -30.666 -0.666992 -45.999 -2s-29.833 -2.83301 -43.5 -4.5s-26.167 -3.66699 -37.5 -6s-21 -4.5 -29 -6.5
c-16.667 -4.66699 -26.334 -0.666992 -29.001 12c-1.33301 4 -5.33301 21 -12 51c18 4.66699 37.167 8.83398 57.5 12.501s42.666 7 66.999 10s50.166 4.5 77.499 4.5c38.667 0 71.834 -3.83301 99.501 -11.5s50 -20 67 -37s29.5 -38.833 37.5 -65.5s12 -58.667 12 -96v-88
c0 -30.667 -6.16699 -53.334 -18.5 -68.001s-35.166 -22 -68.499 -22h-407v75z" />
    <glyph glyph-name="khamedi" unicode="&#x62e;" horiz-adv-x="610" arabic-form="medial" 
d="M200 522c0 14 4.83301 25.833 14.5 35.5s21.5 14.5 35.5 14.5s25.833 -4.83301 35.5 -14.5s14.5 -21.5 14.5 -35.5s-4.83301 -25.833 -14.5 -35.5s-21.5 -14.5 -35.5 -14.5s-25.833 4.83301 -35.5 14.5s-14.5 21.5 -14.5 35.5zM487 41
c-5.33301 -14 -14.1611 -24.3369 -26.4941 -31.0039s-29.833 -10 -52.5 -10h-428v75h437v83c0 24.667 -1 46.834 -3 66.501s-7.5 36.334 -16.5 50.001s-23.333 24.167 -43 31.5s-46.834 11 -81.501 11c-30.667 0 -60.334 -2.16699 -89.001 -6.5s-51 -8.5 -67 -12.5
c-16.667 -4.66699 -26 -0.666992 -28 12l-12 51c18 4.66699 37.167 8.83398 57.5 12.501s42.5 7 66.5 10s49.667 4.5 77 4.5c39.333 0 72.666 -3.83301 99.999 -11.5s49.666 -20 66.999 -37s29.833 -38.833 37.5 -65.5s11.5 -58.667 11.5 -96v-71
c6 -6 13.667 -11.167 23 -15.5s20.666 -8.16602 33.999 -11.499s29.666 -5 48.999 -5h19v-75h-19c-16 0 -34.833 3.16699 -56.5 9.5s-40.5 16.833 -56.5 31.5z" />
    <glyph glyph-name="dalfina" unicode="&#x62f;" horiz-adv-x="563" arabic-form="final" 
d="M45 55c0 13.333 6.33203 20 18.999 20h312v75c0 26.667 -2.66699 48.667 -8 66s-13.833 31.666 -25.5 42.999s-27 20.666 -46 27.999s-39.167 13.333 -60.5 18l-57 12.5c-16.667 3.66699 -31.667 6.83398 -45 9.50098c-24.667 4.66699 -35 16 -31 34l10 45l62.5 -12.5
c18.333 -3.66699 42.333 -9 72 -16s58.834 -17.333 87.501 -31s51.5 -29.667 68.5 -48s28.833 -38.5 35.5 -60.5s10 -45.333 10 -70v-60c6 -6.66699 13.667 -12.167 23 -16.5s20.5 -8.16602 33.5 -11.499s29.167 -5 48.5 -5h20v-75h-20c-15.333 0 -33.833 3.16699 -55.5 9.5
s-40.5 17.166 -56.5 32.499c-5.33301 -13.333 -15 -23.666 -29 -30.999s-35 -11 -63 -11h-305v55z" />
    <glyph glyph-name="zalfina" unicode="&#x630;" horiz-adv-x="563" arabic-form="final" 
d="M133 515c0 14 4.83301 25.833 14.5 35.5s21.5 14.5 35.5 14.5s25.833 -4.83301 35.5 -14.5s14.5 -21.5 14.5 -35.5s-4.83301 -25.833 -14.5 -35.5s-21.5 -14.5 -35.5 -14.5s-25.833 4.83301 -35.5 14.5s-14.5 21.5 -14.5 35.5zM45 55c0 13.333 6.33203 20 18.999 20h312
v75c0 26.667 -2.66699 48.667 -8 66s-13.833 31.666 -25.5 42.999s-27 20.666 -46 27.999s-39.167 13.333 -60.5 18l-57 12.5c-16.667 3.66699 -31.667 6.83398 -45 9.50098c-24.667 4.66699 -35 16 -31 34l10 45l62.5 -12.5c18.333 -3.66699 42.333 -9 72 -16
s58.834 -17.333 87.501 -31s51.5 -29.667 68.5 -48s28.833 -38.5 35.5 -60.5s10 -45.333 10 -70v-60c6 -6.66699 13.667 -12.167 23 -16.5s20.5 -8.16602 33.5 -11.499s29.167 -5 48.5 -5h20v-75h-20c-15.333 0 -33.833 3.16699 -55.5 9.5s-40.5 17.166 -56.5 32.499
c-5.33301 -13.333 -15 -23.666 -29 -30.999s-35 -11 -63 -11h-305v55z" />
    <glyph glyph-name="rafina" unicode="&#x631;" horiz-adv-x="341" arabic-form="final" 
d="M149 336c0 8 2.82715 14.833 8.49414 20.5s12.167 8.5 19.5 8.5h50v-259c1.33301 -1.33301 4.33301 -3.83301 9 -7.5s11.334 -7.16699 20.001 -10.5s19.167 -6.33301 31.5 -9s26.833 -4 43.5 -4h20v-75h-20c-14 0 -31 2.66699 -51 8s-37.667 14 -53 26v-123
c0 -31.333 -4.66699 -57 -14 -77s-22.666 -35 -39.999 -45s-38.166 -15.167 -62.499 -15.5s-51.166 3.5 -80.499 11.5c-9.33301 3.33301 -17.166 6.83301 -23.499 10.5s-8.16602 10.5 -5.49902 20.5l11 47c14 -6 27.833 -10.833 41.5 -14.5s24.167 -5.5 31.5 -5.5
c24 0 40.667 6 50 18s14 31 14 57v418z" />
    <glyph glyph-name="zafina" unicode="&#x632;" horiz-adv-x="341" arabic-form="final" 
d="M141 494c0 14 4.83301 25.833 14.5 35.5s21.5 14.5 35.5 14.5s25.833 -4.83301 35.5 -14.5s14.5 -21.5 14.5 -35.5s-4.83301 -25.833 -14.5 -35.5s-21.5 -14.5 -35.5 -14.5s-25.833 4.83301 -35.5 14.5s-14.5 21.5 -14.5 35.5zM149 336c0 8 2.82715 14.833 8.49414 20.5
s12.167 8.5 19.5 8.5h50v-259c1.33301 -1.33301 4.33301 -3.83301 9 -7.5s11.334 -7.16699 20.001 -10.5s19.167 -6.33301 31.5 -9s26.833 -4 43.5 -4h20v-75h-20c-14 0 -31 2.66699 -51 8s-37.667 14 -53 26v-123c0 -31.333 -4.66699 -57 -14 -77s-22.666 -35 -39.999 -45
s-38.166 -15.167 -62.499 -15.5s-51.166 3.5 -80.499 11.5c-9.33301 3.33301 -17.166 6.83301 -23.499 10.5s-8.16602 10.5 -5.49902 20.5l11 47c14 -6 27.833 -10.833 41.5 -14.5s24.167 -5.5 31.5 -5.5c24 0 40.667 6 50 18s14 31 14 57v418z" />
    <glyph glyph-name="seenfina" unicode="&#x633;" horiz-adv-x="1206" arabic-form="final" 
d="M649 0c-13.333 0 -29.5049 2.49805 -48.5049 7.49805s-36.5 13.167 -52.5 24.5v-35c0 -24 -3.33301 -49.167 -10 -75.5s-18.667 -50.5 -36 -72.5s-41.166 -40.167 -71.499 -54.5s-69.166 -21.5 -116.499 -21.5c-31.333 0 -63.166 3.5 -95.499 10.5s-61.5 20 -87.5 39
s-47.333 45.667 -64 80s-25 79.166 -25 134.499c0 15.333 1 32.333 3 51s4.66699 37.5 8 56.5s7 37.333 11 55s8.33301 33.5 13 47.5c30.667 -9.33301 48 -14.666 52 -15.999c7.33301 -2 12.166 -5.66699 14.499 -11s1.83301 -13 -1.5 -23c-2 -8 -4.33301 -18 -7 -30
s-5 -25 -7 -39s-3.83301 -28.833 -5.5 -44.5s-2.5 -31.167 -2.5 -46.5c0 -42.667 6.33301 -76.167 19 -100.5s28.667 -42.5 48 -54.5s41 -19.333 65 -22s47.333 -4 70 -4c30 0 54.333 4 73 12s33.334 18.667 44.001 32s18 29 22 47s6 37 6 57v265
c0 7.33301 2.83301 13.833 8.5 19.5s12.167 8.5 19.5 8.5h50v-191c6 -6 13.667 -11.167 23 -15.5s20.5 -8 33.5 -11s29.167 -4.5 48.5 -4.5c9.33301 0 19.5 0.666992 30.5 2s21 4 30 8s16.5 10.167 22.5 18.5s9 19.5 9 33.5v132c0 7.33301 2.83301 13.833 8.5 19.5
s12.167 8.5 19.5 8.5h50v-182c8.66699 -10 18.167 -17.833 28.5 -23.5s20.5 -9.66699 30.5 -12s19.833 -3.66602 29.5 -3.99902s18.834 -0.5 27.501 -0.5h4c28 0 47.667 6.66699 59 20s17 31 17 53v188c0 8 2.83301 14.833 8.5 20.5s12.167 8.5 19.5 8.5h50v-259
c6 -6 13.667 -11.167 23 -15.5s20.5 -8 33.5 -11s29.167 -4.5 48.5 -4.5h20v-75h-20c-8 0 -17.5 1 -28.5 3s-22 5 -33 9s-21.667 9.16699 -32 15.5s-19.5 13.833 -27.5 22.5c-8 -13.333 -21.667 -25 -41 -35s-43.666 -15 -72.999 -15h-28c-22.667 0 -42.334 2.5 -59.001 7.5
s-30.667 10.833 -42 17.5s-20.166 13.167 -26.499 19.5s-10.5 10.833 -12.5 13.5c-2 -2.66699 -5.66699 -6.83398 -11 -12.501s-13 -11.667 -23 -18s-22.333 -12.166 -37 -17.499s-32.667 -8.66602 -54 -9.99902h-22z" />
    <glyph glyph-name="seenini" unicode="&#x633;" horiz-adv-x="784" arabic-form="initial" 
d="M552 0c-18.667 0 -35.332 2.49902 -49.999 7.49902s-27.334 10.833 -38.001 17.5s-19.167 13.167 -25.5 19.5s-10.5 10.833 -12.5 13.5c-2 -2.66699 -5.5 -6.83398 -10.5 -12.501s-12.333 -11.667 -22 -18s-22 -12.166 -37 -17.499s-32.833 -8.66602 -53.5 -9.99902h-21
c-8 -0 -17.333 0.833008 -28 2.5s-21.5 4.5 -32.5 8.5s-21.667 9.16699 -32 15.5s-19.5 13.833 -27.5 22.5c-8 -13.333 -21.667 -24.833 -41 -34.5s-44 -14.5 -74 -14.5h-67v75h44c28 0 47.667 6.83301 59 20.5s17 31.167 17 52.5v121c0 7.33301 2.83301 13.833 8.5 19.5
s12.167 8.5 19.5 8.5h50v-191c6 -6 13.667 -11.167 23 -15.5s20.5 -8 33.5 -11s29.167 -4.5 48.5 -4.5c9.33301 0 19.166 0.666992 29.499 2s20 4.16602 29 8.49902s16.5 10.666 22.5 18.999s9 19.5 9 33.5v131c0 7.33301 2.83301 13.833 8.5 19.5s12.167 8.5 19.5 8.5h51
v-182c14.667 -17.333 31 -28.333 49 -33s35 -7 51 -7c40 0 67 8.83301 81 26.5s21 43.834 21 78.501v156c0 8 2.83301 14.833 8.5 20.5s12.167 8.5 19.5 8.5h51v-183c0 -27.333 -2.66699 -52.166 -8 -74.499s-14.666 -41.5 -27.999 -57.5s-31.833 -28.333 -55.5 -37
s-53.5 -13 -89.5 -13z" />
    <glyph glyph-name="seenmedi" unicode="&#x633;" horiz-adv-x="839" arabic-form="medial" 
d="M565 0c-22.667 0 -42.332 2.49902 -58.999 7.49902s-30.834 10.833 -42.501 17.5s-20.667 13.167 -27 19.5s-10.5 10.833 -12.5 13.5c-2 -2.66699 -5.66699 -6.83398 -11 -12.501s-12.833 -11.667 -22.5 -18s-22 -12.166 -37 -17.499s-32.833 -8.66602 -53.5 -9.99902
h-20c-8.66699 -0 -18.334 0.833008 -29.001 2.5s-21.5 4.5 -32.5 8.5s-21.667 9.16699 -32 15.5s-19.5 13.833 -27.5 22.5c-8 -13.333 -21.667 -24.833 -41 -34.5s-43.333 -14.5 -72 -14.5h-66v75h45c27.333 0 46.166 7.16699 56.499 21.5s15.5 32.166 15.5 53.499v119
c0 7.33301 2.83301 13.833 8.5 19.5s12.167 8.5 19.5 8.5h50v-191c6 -6 13.667 -11.167 23 -15.5s20.333 -8 33 -11s28.667 -4.5 48 -4.5c9.33301 0 19.5 0.666992 30.5 2s21 4 30 8s16.5 10.167 22.5 18.5s9 19.5 9 33.5v132c0 7.33301 2.83301 13.833 8.5 19.5
s12.167 8.5 19.5 8.5h50v-182c8.66699 -10 18 -17.833 28 -23.5s20.167 -9.66699 30.5 -12s20.333 -3.66602 30 -3.99902s18.834 -0.5 27.501 -0.5h4c28 0 47.5 6.66699 58.5 20s16.5 31 16.5 53v188c0 8 2.83301 14.833 8.5 20.5s12.167 8.5 19.5 8.5h51v-259
c6 -6 13.667 -11.167 23 -15.5s20.5 -8 33.5 -11s29.167 -4.5 48.5 -4.5h19v-75h-19c-8 0 -17.5 1 -28.5 3s-22 5 -33 9s-21.833 9.16699 -32.5 15.5s-19.667 13.833 -27 22.5c-8 -13.333 -21.667 -25 -41 -35s-43.666 -15 -72.999 -15h-28z" />
    <glyph glyph-name="sheenfina" unicode="&#x634;" horiz-adv-x="1206" arabic-form="final" 
d="M674 462c0 14 4.83301 25.833 14.5 35.5s21.5 14.5 35.5 14.5s25.833 -4.83301 35.5 -14.5s14.5 -21.5 14.5 -35.5s-4.83301 -25.833 -14.5 -35.5s-21.5 -14.5 -35.5 -14.5s-25.833 4.83301 -35.5 14.5s-14.5 21.5 -14.5 35.5zM801 462c0 14 4.83301 25.833 14.5 35.5
s21.5 14.5 35.5 14.5s25.833 -4.83301 35.5 -14.5s14.5 -21.5 14.5 -35.5s-4.83301 -25.833 -14.5 -35.5s-21.5 -14.5 -35.5 -14.5s-25.833 4.83301 -35.5 14.5s-14.5 21.5 -14.5 35.5zM737 585c0 14 4.83301 25.833 14.5 35.5s21.5 14.5 35.5 14.5
s25.833 -4.83301 35.5 -14.5s14.5 -21.5 14.5 -35.5s-4.83301 -25.833 -14.5 -35.5s-21.5 -14.5 -35.5 -14.5s-25.833 4.83301 -35.5 14.5s-14.5 21.5 -14.5 35.5zM649 0c-13.333 0 -29.5049 2.49805 -48.5049 7.49805s-36.5 13.167 -52.5 24.5v-35
c0 -24 -3.33301 -49.167 -10 -75.5s-18.667 -50.5 -36 -72.5s-41.166 -40.167 -71.499 -54.5s-69.166 -21.5 -116.499 -21.5c-31.333 0 -63.166 3.5 -95.499 10.5s-61.5 20 -87.5 39s-47.333 45.667 -64 80s-25 79.166 -25 134.499c0 15.333 1 32.333 3 51
s4.66699 37.5 8 56.5s7 37.333 11 55s8.33301 33.5 13 47.5c30.667 -9.33301 48 -14.666 52 -15.999c7.33301 -2 12.166 -5.66699 14.499 -11s1.83301 -13 -1.5 -23c-2 -8 -4.33301 -18 -7 -30s-5 -25 -7 -39s-3.83301 -28.833 -5.5 -44.5s-2.5 -31.167 -2.5 -46.5
c0 -42.667 6.33301 -76.167 19 -100.5s28.667 -42.5 48 -54.5s41 -19.333 65 -22s47.333 -4 70 -4c30 0 54.333 4 73 12s33.334 18.667 44.001 32s18 29 22 47s6 37 6 57v265c0 7.33301 2.83301 13.833 8.5 19.5s12.167 8.5 19.5 8.5h50v-191c6 -6 13.667 -11.167 23 -15.5
s20.5 -8 33.5 -11s29.167 -4.5 48.5 -4.5c9.33301 0 19.5 0.666992 30.5 2s21 4 30 8s16.5 10.167 22.5 18.5s9 19.5 9 33.5v132c0 7.33301 2.83301 13.833 8.5 19.5s12.167 8.5 19.5 8.5h50v-182c8.66699 -10 18.167 -17.833 28.5 -23.5s20.5 -9.66699 30.5 -12
s19.833 -3.66602 29.5 -3.99902s18.834 -0.5 27.501 -0.5h4c28 0 47.667 6.66699 59 20s17 31 17 53v188c0 8 2.83301 14.833 8.5 20.5s12.167 8.5 19.5 8.5h50v-259c6 -6 13.667 -11.167 23 -15.5s20.5 -8 33.5 -11s29.167 -4.5 48.5 -4.5h20v-75h-20c-8 0 -17.5 1 -28.5 3
s-22 5 -33 9s-21.667 9.16699 -32 15.5s-19.5 13.833 -27.5 22.5c-8 -13.333 -21.667 -25 -41 -35s-43.666 -15 -72.999 -15h-28c-22.667 0 -42.334 2.5 -59.001 7.5s-30.667 10.833 -42 17.5s-20.166 13.167 -26.499 19.5s-10.5 10.833 -12.5 13.5
c-2 -2.66699 -5.66699 -6.83398 -11 -12.501s-13 -11.667 -23 -18s-22.333 -12.166 -37 -17.499s-32.667 -8.66602 -54 -9.99902h-22z" />
    <glyph glyph-name="sheenini" unicode="&#x634;" horiz-adv-x="784" arabic-form="initial" 
d="M552 0c-18.667 0 -35.332 2.49902 -49.999 7.49902s-27.334 10.833 -38.001 17.5s-19.167 13.167 -25.5 19.5s-10.5 10.833 -12.5 13.5c-2 -2.66699 -5.5 -6.83398 -10.5 -12.501s-12.333 -11.667 -22 -18s-22 -12.166 -37 -17.499s-32.833 -8.66602 -53.5 -9.99902h-21
c-8 -0 -17.333 0.833008 -28 2.5s-21.5 4.5 -32.5 8.5s-21.667 9.16699 -32 15.5s-19.5 13.833 -27.5 22.5c-8 -13.333 -21.667 -24.833 -41 -34.5s-44 -14.5 -74 -14.5h-67v75h44c28 0 47.667 6.83301 59 20.5s17 31.167 17 52.5v121c0 7.33301 2.83301 13.833 8.5 19.5
s12.167 8.5 19.5 8.5h50v-191c6 -6 13.667 -11.167 23 -15.5s20.5 -8 33.5 -11s29.167 -4.5 48.5 -4.5c9.33301 0 19.166 0.666992 29.499 2s20 4.16602 29 8.49902s16.5 10.666 22.5 18.999s9 19.5 9 33.5v131c0 7.33301 2.83301 13.833 8.5 19.5s12.167 8.5 19.5 8.5h51
v-182c14.667 -17.333 31 -28.333 49 -33s35 -7 51 -7c40 0 67 8.83301 81 26.5s21 43.834 21 78.501v156c0 8 2.83301 14.833 8.5 20.5s12.167 8.5 19.5 8.5h51v-183c0 -27.333 -2.66699 -52.166 -8 -74.499s-14.666 -41.5 -27.999 -57.5s-31.833 -28.333 -55.5 -37
s-53.5 -13 -89.5 -13zM312.002 462.999c0 14 4.83301 25.833 14.5 35.5s21.5 14.5 35.5 14.5s25.833 -4.83301 35.5 -14.5s14.5 -21.5 14.5 -35.5s-4.83301 -25.833 -14.5 -35.5s-21.5 -14.5 -35.5 -14.5s-25.833 4.83301 -35.5 14.5s-14.5 21.5 -14.5 35.5z
M439.002 462.999c0 14 4.83301 25.833 14.5 35.5s21.5 14.5 35.5 14.5s25.833 -4.83301 35.5 -14.5s14.5 -21.5 14.5 -35.5s-4.83301 -25.833 -14.5 -35.5s-21.5 -14.5 -35.5 -14.5s-25.833 4.83301 -35.5 14.5s-14.5 21.5 -14.5 35.5zM375.002 585.999
c0 14 4.83301 25.833 14.5 35.5s21.5 14.5 35.5 14.5s25.833 -4.83301 35.5 -14.5s14.5 -21.5 14.5 -35.5s-4.83301 -25.833 -14.5 -35.5s-21.5 -14.5 -35.5 -14.5s-25.833 4.83301 -35.5 14.5s-14.5 21.5 -14.5 35.5z" />
    <glyph glyph-name="sheenmedi" unicode="&#x634;" horiz-adv-x="839" arabic-form="medial" 
d="M303 463c0 14 4.83301 25.833 14.5 35.5s21.5 14.5 35.5 14.5s25.833 -4.83301 35.5 -14.5s14.5 -21.5 14.5 -35.5s-4.83301 -25.833 -14.5 -35.5s-21.5 -14.5 -35.5 -14.5s-25.833 4.83301 -35.5 14.5s-14.5 21.5 -14.5 35.5zM430 463c0 14 4.83301 25.833 14.5 35.5
s21.5 14.5 35.5 14.5s25.833 -4.83301 35.5 -14.5s14.5 -21.5 14.5 -35.5s-4.83301 -25.833 -14.5 -35.5s-21.5 -14.5 -35.5 -14.5s-25.833 4.83301 -35.5 14.5s-14.5 21.5 -14.5 35.5zM366 586c0 14 4.83301 25.833 14.5 35.5s21.5 14.5 35.5 14.5
s25.833 -4.83301 35.5 -14.5s14.5 -21.5 14.5 -35.5s-4.83301 -25.833 -14.5 -35.5s-21.5 -14.5 -35.5 -14.5s-25.833 4.83301 -35.5 14.5s-14.5 21.5 -14.5 35.5zM565 0c-22.667 0 -42.332 2.49902 -58.999 7.49902s-30.834 10.833 -42.501 17.5s-20.667 13.167 -27 19.5
s-10.5 10.833 -12.5 13.5c-2 -2.66699 -5.66699 -6.83398 -11 -12.501s-12.833 -11.667 -22.5 -18s-22 -12.166 -37 -17.499s-32.833 -8.66602 -53.5 -9.99902h-20c-8.66699 -0 -18.334 0.833008 -29.001 2.5s-21.5 4.5 -32.5 8.5s-21.667 9.16699 -32 15.5
s-19.5 13.833 -27.5 22.5c-8 -13.333 -21.667 -24.833 -41 -34.5s-43.333 -14.5 -72 -14.5h-66v75h45c27.333 0 46.166 7.16699 56.499 21.5s15.5 32.166 15.5 53.499v119c0 7.33301 2.83301 13.833 8.5 19.5s12.167 8.5 19.5 8.5h50v-191c6 -6 13.667 -11.167 23 -15.5
s20.333 -8 33 -11s28.667 -4.5 48 -4.5c9.33301 0 19.5 0.666992 30.5 2s21 4 30 8s16.5 10.167 22.5 18.5s9 19.5 9 33.5v132c0 7.33301 2.83301 13.833 8.5 19.5s12.167 8.5 19.5 8.5h50v-182c8.66699 -10 18 -17.833 28 -23.5s20.167 -9.66699 30.5 -12
s20.333 -3.66602 30 -3.99902s18.834 -0.5 27.501 -0.5h4c28 0 47.5 6.66699 58.5 20s16.5 31 16.5 53v188c0 8 2.83301 14.833 8.5 20.5s12.167 8.5 19.5 8.5h51v-259c6 -6 13.667 -11.167 23 -15.5s20.5 -8 33.5 -11s29.167 -4.5 48.5 -4.5h19v-75h-19
c-8 0 -17.5 1 -28.5 3s-22 5 -33 9s-21.833 9.16699 -32.5 15.5s-19.667 13.833 -27 22.5c-8 -13.333 -21.667 -25 -41 -35s-43.666 -15 -72.999 -15h-28z" />
    <glyph glyph-name="sadfina" unicode="&#x635;" horiz-adv-x="1162" arabic-form="final" 
d="M483 361c0 7.33301 2.83203 13.8369 8.49902 19.5039s12.167 8.5 19.5 8.5h50v-56l354 56c13.333 2 27.5 1.66699 42.5 -1s29.667 -7.66699 44 -15s27 -15.833 38 -25.5s20.667 -21.5 29 -35.5s15.166 -30.5 20.499 -49.5s8 -41.167 8 -66.5c0 -19.333 -1.5 -38 -4.5 -56
s-7.83301 -35 -14.5 -51c8.66699 -3.33301 19.167 -6.5 31.5 -9.5s27.166 -4.5 44.499 -4.5h19v-75h-19c-15.333 0 -33.833 3 -55.5 9s-40.167 16 -55.5 30c-13.333 -12 -29.666 -21.5 -48.999 -28.5s-42.666 -10.5 -69.999 -10.5h-363c0 -32.667 -3 -62.667 -9 -90
s-17.5 -51.166 -34.5 -71.499s-40.5 -36.333 -70.5 -48s-68.667 -17.5 -116 -17.5c-31.333 0 -63.833 3.5 -97.5 10.5s-64.5 20 -92.5 39s-51 45.667 -69 80s-27 79.166 -27 134.499c0 15.333 1 32.333 3 51s4.66699 37.5 8 56.5s7 37.333 11 55s8.33301 33.5 13 47.5
l51 -16c8.66699 -2.66699 13.834 -6.33398 15.501 -11.001s1.16699 -12.334 -1.5 -23.001c-4.66699 -16 -9.33398 -39 -14.001 -69s-7 -60.333 -7 -91c0 -42.667 6.83301 -76.167 20.5 -100.5s31 -42.5 52 -54.5s44.167 -19.333 69.5 -22s49.333 -4 72 -4
c30 0 54.5 3.16699 73.5 9.5s33.833 15.666 44.5 27.999s17.834 27.666 21.501 45.999s5.5 39.833 5.5 64.5v357zM908.999 75.0039c8.66699 0 19.502 1.5 32.502 4.5s25.5 8.66699 37.5 17s22.333 20 31 35s13 34.5 13 58.5c0 28 -4.16699 50.333 -12.5 67
s-18.333 29.5 -30 38.5s-23.834 15 -36.501 18s-23.334 4.5 -32.001 4.5l-351 -60v-183h348z" />
    <glyph glyph-name="sadini" unicode="&#x635;" horiz-adv-x="704" arabic-form="initial" 
d="M46 361c0 7.33301 2.83301 13.833 8.5 19.5s12.167 8.5 19.5 8.5h51v-56l354 56c13.333 1.33301 27.666 0.5 42.999 -2.5s30 -8 44 -15s26.5 -15.167 37.5 -24.5s20.667 -21 29 -35s15.166 -30.5 20.499 -49.5s8 -41.167 8 -66.5s-2.66699 -49.833 -8 -73.5
s-14.666 -44.5 -27.999 -62.5s-31.166 -32.5 -53.499 -43.5s-50.5 -16.5 -84.5 -16.5h-507v75h66v286zM472 75c8.66699 0 19.502 1.5 32.502 4.5s25.5 8.66699 37.5 17s22.333 20 31 35s13 34.5 13 58.5c0 28 -4.16699 50.333 -12.5 67s-18.333 29.5 -30 38.5
s-23.834 15 -36.501 18s-23.334 4.5 -32.001 4.5l-350 -60v-183h347z" />
    <glyph glyph-name="sadmedi" unicode="&#x635;" horiz-adv-x="748" arabic-form="medial" 
d="M70 361c0 7.33301 2.83398 13.835 8.50098 19.502s12.167 8.5 19.5 8.5h50v-56l355 56c15.333 1.33301 30.333 0.666016 45 -2.00098s28.667 -7.33398 42 -14.001s25.666 -15 36.999 -25s21.166 -22 29.499 -36s15.166 -30.5 20.499 -49.5s8 -41.167 8 -66.5
c0 -19.333 -1.5 -38 -4.5 -56s-7.83301 -35 -14.5 -51c8.66699 -3.33301 19 -6.5 31 -9.5s26.667 -4.5 44 -4.5h20v-75h-20c-15.333 0 -33.666 3 -54.999 9s-40 16 -56 30c-13.333 -12 -29.666 -21.5 -48.999 -28.5s-42.333 -10.5 -69 -10.5h-532v75h90v286zM497.001 75.002
c8.66699 0 19.501 1.5 32.501 4.5s25.5 8.66699 37.5 17s22.333 20 31 35s13 34.5 13 58.5c0 28 -4.16699 50.333 -12.5 67s-18.5 29.5 -30.5 38.5s-24.333 15 -37 18s-23.334 4.5 -32.001 4.5l-351 -60v-183h349z" />
    <glyph glyph-name="dadfina" unicode="&#x636;" horiz-adv-x="1162" arabic-form="final" 
d="M596 494c0 14 4.83301 25.833 14.5 35.5s21.5 14.5 35.5 14.5s25.833 -4.83301 35.5 -14.5s14.5 -21.5 14.5 -35.5s-4.83301 -25.833 -14.5 -35.5s-21.5 -14.5 -35.5 -14.5s-25.833 4.83301 -35.5 14.5s-14.5 21.5 -14.5 35.5zM483 361
c0 7.33301 2.83203 13.8369 8.49902 19.5039s12.167 8.5 19.5 8.5h50v-56l354 56c13.333 2 27.5 1.66699 42.5 -1s29.667 -7.66699 44 -15s27 -15.833 38 -25.5s20.667 -21.5 29 -35.5s15.166 -30.5 20.499 -49.5s8 -41.167 8 -66.5c0 -19.333 -1.5 -38 -4.5 -56
s-7.83301 -35 -14.5 -51c8.66699 -3.33301 19.167 -6.5 31.5 -9.5s27.166 -4.5 44.499 -4.5h19v-75h-19c-15.333 0 -33.833 3 -55.5 9s-40.167 16 -55.5 30c-13.333 -12 -29.666 -21.5 -48.999 -28.5s-42.666 -10.5 -69.999 -10.5h-363c0 -32.667 -3 -62.667 -9 -90
s-17.5 -51.166 -34.5 -71.499s-40.5 -36.333 -70.5 -48s-68.667 -17.5 -116 -17.5c-31.333 0 -63.833 3.5 -97.5 10.5s-64.5 20 -92.5 39s-51 45.667 -69 80s-27 79.166 -27 134.499c0 15.333 1 32.333 3 51s4.66699 37.5 8 56.5s7 37.333 11 55s8.33301 33.5 13 47.5
l51 -16c8.66699 -2.66699 13.834 -6.33398 15.501 -11.001s1.16699 -12.334 -1.5 -23.001c-4.66699 -16 -9.33398 -39 -14.001 -69s-7 -60.333 -7 -91c0 -42.667 6.83301 -76.167 20.5 -100.5s31 -42.5 52 -54.5s44.167 -19.333 69.5 -22s49.333 -4 72 -4
c30 0 54.5 3.16699 73.5 9.5s33.833 15.666 44.5 27.999s17.834 27.666 21.501 45.999s5.5 39.833 5.5 64.5v357zM908.999 75.0039c8.66699 0 19.502 1.5 32.502 4.5s25.5 8.66699 37.5 17s22.333 20 31 35s13 34.5 13 58.5c0 28 -4.16699 50.333 -12.5 67
s-18.333 29.5 -30 38.5s-23.834 15 -36.501 18s-23.334 4.5 -32.001 4.5l-351 -60v-183h348z" />
    <glyph glyph-name="dadini" unicode="&#x636;" horiz-adv-x="704" arabic-form="initial" 
d="M163 496c0 14 4.83301 25.833 14.5 35.5s21.5 14.5 35.5 14.5s25.833 -4.83301 35.5 -14.5s14.5 -21.5 14.5 -35.5s-4.83301 -25.833 -14.5 -35.5s-21.5 -14.5 -35.5 -14.5s-25.833 4.83301 -35.5 14.5s-14.5 21.5 -14.5 35.5zM46 361c0 7.33301 2.83301 13.833 8.5 19.5
s12.167 8.5 19.5 8.5h51v-56l354 56c13.333 1.33301 27.666 0.5 42.999 -2.5s30 -8 44 -15s26.5 -15.167 37.5 -24.5s20.667 -21 29 -35s15.166 -30.5 20.499 -49.5s8 -41.167 8 -66.5s-2.66699 -49.833 -8 -73.5s-14.666 -44.5 -27.999 -62.5s-31.166 -32.5 -53.499 -43.5
s-50.5 -16.5 -84.5 -16.5h-507v75h66v286zM472 75c8.66699 0 19.502 1.5 32.502 4.5s25.5 8.66699 37.5 17s22.333 20 31 35s13 34.5 13 58.5c0 28 -4.16699 50.333 -12.5 67s-18.333 29.5 -30 38.5s-23.834 15 -36.501 18s-23.334 4.5 -32.001 4.5l-350 -60v-183h347z" />
    <glyph glyph-name="dadmedi" unicode="&#x636;" horiz-adv-x="748" arabic-form="medial" 
d="M185 495c0 14 4.83301 25.833 14.5 35.5s21.5 14.5 35.5 14.5s25.833 -4.83301 35.5 -14.5s14.5 -21.5 14.5 -35.5s-4.83301 -25.833 -14.5 -35.5s-21.5 -14.5 -35.5 -14.5s-25.833 4.83301 -35.5 14.5s-14.5 21.5 -14.5 35.5zM70 361
c0 7.33301 2.83398 13.835 8.50098 19.502s12.167 8.5 19.5 8.5h50v-56l355 56c15.333 1.33301 30.333 0.666016 45 -2.00098s28.667 -7.33398 42 -14.001s25.666 -15 36.999 -25s21.166 -22 29.499 -36s15.166 -30.5 20.499 -49.5s8 -41.167 8 -66.5
c0 -19.333 -1.5 -38 -4.5 -56s-7.83301 -35 -14.5 -51c8.66699 -3.33301 19 -6.5 31 -9.5s26.667 -4.5 44 -4.5h20v-75h-20c-15.333 0 -33.666 3 -54.999 9s-40 16 -56 30c-13.333 -12 -29.666 -21.5 -48.999 -28.5s-42.333 -10.5 -69 -10.5h-532v75h90v286zM497.001 75.002
c8.66699 0 19.501 1.5 32.501 4.5s25.5 8.66699 37.5 17s22.333 20 31 35s13 34.5 13 58.5c0 28 -4.16699 50.333 -12.5 67s-18.5 29.5 -30.5 38.5s-24.333 15 -37 18s-23.334 4.5 -32.001 4.5l-351 -60v-183h349z" />
    <glyph glyph-name="tahfina" unicode="&#x637;" horiz-adv-x="785" arabic-form="final" 
d="M104 523c0 7.33301 2.83105 13.834 8.49805 19.501s12.167 8.5 19.5 8.5h50v-219l358 57c10.667 1.33301 24.667 0.5 42 -2.5s32.833 -7.83301 46.5 -14.5s25.834 -14.834 36.501 -24.501s20.167 -21.5 28.5 -35.5s15.166 -30.5 20.499 -49.5s8 -41.167 8 -66.5
c0 -19.333 -1.5 -38 -4.5 -56s-8.16699 -35 -15.5 -51c8.66699 -3.33301 19.167 -6.5 31.5 -9.5s27.166 -4.5 44.499 -4.5h20v-75h-20c-15.333 0 -33.666 3 -54.999 9s-40 16 -56 30c-13.333 -12 -29.666 -21.5 -48.999 -28.5s-42.666 -10.5 -69.999 -10.5h-502v44
c0 11.333 2.33301 19.333 7 24s11 7 19 7h32v448zM533.998 75.001c8.66699 0 19.335 1.5 32.002 4.5s25 8.66699 37 17s22.333 19.833 31 34.5s13 34 13 58c0 28 -4.16699 50.5 -12.5 67.5s-18.333 30 -30 39s-23.834 15 -36.501 18s-23.334 4.5 -32.001 4.5l-354 -60v-183
h352z" />
    <glyph glyph-name="tahini" unicode="&#x637;" horiz-adv-x="731" arabic-form="initial" 
d="M68 523c0 7.33301 2.83203 13.834 8.49902 19.501s12.167 8.5 19.5 8.5h51v-219l357 57c12 1.33301 26.167 0.666016 42.5 -2.00098s31.5 -7.5 45.5 -14.5s26.333 -15.333 37 -25s20.167 -21.5 28.5 -35.5s15.166 -30.5 20.499 -49.5s8 -41.167 8 -66.5
s-2.66699 -49.833 -8 -73.5s-14.666 -44.5 -27.999 -62.5s-31.166 -32.5 -53.499 -43.5s-50.5 -16.5 -84.5 -16.5h-532v75h88v448zM496.999 75.001c8.66699 0 19.502 1.5 32.502 4.5s25.5 8.66699 37.5 17s22.333 19.833 31 34.5s13 34 13 58c0 28 -4.16699 50.5 -12.5 67.5
s-18.333 30 -30 39s-23.834 15 -36.501 18s-23.334 4.5 -32.001 4.5l-353 -60v-183h350z" />
    <glyph glyph-name="tahmedi" unicode="&#x637;" horiz-adv-x="748" arabic-form="medial" 
d="M68 523c0 7.33301 2.83496 13.833 8.50195 19.5s12.167 8.5 19.5 8.5h50v-219l357 57c8.66699 1.33301 22 0.5 40 -2.5s34 -8 48 -15s26.333 -15.167 37 -24.5s20.167 -21 28.5 -35s15.166 -30.5 20.499 -49.5s8 -41.167 8 -66.5c0 -19.333 -1.5 -38 -4.5 -56
s-7.83301 -35 -14.5 -51c8.66699 -3.33301 19.167 -6.5 31.5 -9.5s27.166 -4.5 44.499 -4.5h19v-75h-19c-15.333 0 -33.833 3 -55.5 9s-40.5 16 -56.5 30c-13.333 -12 -29.5 -21.5 -48.5 -28.5s-42.167 -10.5 -69.5 -10.5h-532v75h88v448zM497.002 75
c8.66699 0 19.502 1.5 32.502 4.5s25.5 8.66699 37.5 17s22.333 19.833 31 34.5s13 34 13 58c0 28 -4.16699 50.5 -12.5 67.5s-18.333 30 -30 39s-23.834 15 -36.501 18s-23.334 4.5 -32.001 4.5l-354 -60v-183h351z" />
    <glyph glyph-name="zadfina" unicode="&#x638;" horiz-adv-x="785" arabic-form="final" 
d="M276 495c0 14 4.83301 25.833 14.5 35.5s21.5 14.5 35.5 14.5s25.833 -4.83301 35.5 -14.5s14.5 -21.5 14.5 -35.5s-4.83301 -25.833 -14.5 -35.5s-21.5 -14.5 -35.5 -14.5s-25.833 4.83301 -35.5 14.5s-14.5 21.5 -14.5 35.5zM104 523
c0 7.33301 2.83105 13.834 8.49805 19.501s12.167 8.5 19.5 8.5h50v-219l358 57c10.667 1.33301 24.667 0.5 42 -2.5s32.833 -7.83301 46.5 -14.5s25.834 -14.834 36.501 -24.501s20.167 -21.5 28.5 -35.5s15.166 -30.5 20.499 -49.5s8 -41.167 8 -66.5
c0 -19.333 -1.5 -38 -4.5 -56s-8.16699 -35 -15.5 -51c8.66699 -3.33301 19.167 -6.5 31.5 -9.5s27.166 -4.5 44.499 -4.5h20v-75h-20c-15.333 0 -33.666 3 -54.999 9s-40 16 -56 30c-13.333 -12 -29.666 -21.5 -48.999 -28.5s-42.666 -10.5 -69.999 -10.5h-502v44
c0 11.333 2.33301 19.333 7 24s11 7 19 7h32v448zM533.998 75.001c8.66699 0 19.335 1.5 32.002 4.5s25 8.66699 37 17s22.333 19.833 31 34.5s13 34 13 58c0 28 -4.16699 50.5 -12.5 67.5s-18.333 30 -30 39s-23.834 15 -36.501 18s-23.334 4.5 -32.001 4.5l-354 -60v-183
h352z" />
    <glyph glyph-name="zadini" unicode="&#x638;" horiz-adv-x="731" arabic-form="initial" 
d="M241 494c0 14 4.83301 25.833 14.5 35.5s21.5 14.5 35.5 14.5s25.833 -4.83301 35.5 -14.5s14.5 -21.5 14.5 -35.5s-4.83301 -25.833 -14.5 -35.5s-21.5 -14.5 -35.5 -14.5s-25.833 4.83301 -35.5 14.5s-14.5 21.5 -14.5 35.5zM68 523
c0 7.33301 2.83203 13.834 8.49902 19.501s12.167 8.5 19.5 8.5h51v-219l357 57c12 1.33301 26.167 0.666016 42.5 -2.00098s31.5 -7.5 45.5 -14.5s26.333 -15.333 37 -25s20.167 -21.5 28.5 -35.5s15.166 -30.5 20.499 -49.5s8 -41.167 8 -66.5s-2.66699 -49.833 -8 -73.5
s-14.666 -44.5 -27.999 -62.5s-31.166 -32.5 -53.499 -43.5s-50.5 -16.5 -84.5 -16.5h-532v75h88v448zM496.999 75.001c8.66699 0 19.502 1.5 32.502 4.5s25.5 8.66699 37.5 17s22.333 19.833 31 34.5s13 34 13 58c0 28 -4.16699 50.5 -12.5 67.5s-18.333 30 -30 39
s-23.834 15 -36.501 18s-23.334 4.5 -32.001 4.5l-353 -60v-183h350z" />
    <glyph glyph-name="zadmedi" unicode="&#x638;" horiz-adv-x="748" arabic-form="medial" 
d="M242 494c0 14 4.83301 25.833 14.5 35.5s21.5 14.5 35.5 14.5s25.833 -4.83301 35.5 -14.5s14.5 -21.5 14.5 -35.5s-4.83301 -25.833 -14.5 -35.5s-21.5 -14.5 -35.5 -14.5s-25.833 4.83301 -35.5 14.5s-14.5 21.5 -14.5 35.5zM68 523
c0 7.33301 2.83496 13.833 8.50195 19.5s12.167 8.5 19.5 8.5h50v-219l357 57c8.66699 1.33301 22 0.5 40 -2.5s34 -8 48 -15s26.333 -15.167 37 -24.5s20.167 -21 28.5 -35s15.166 -30.5 20.499 -49.5s8 -41.167 8 -66.5c0 -19.333 -1.5 -38 -4.5 -56
s-7.83301 -35 -14.5 -51c8.66699 -3.33301 19.167 -6.5 31.5 -9.5s27.166 -4.5 44.499 -4.5h19v-75h-19c-15.333 0 -33.833 3 -55.5 9s-40.5 16 -56.5 30c-13.333 -12 -29.5 -21.5 -48.5 -28.5s-42.167 -10.5 -69.5 -10.5h-532v75h88v448zM497.002 75
c8.66699 0 19.502 1.5 32.502 4.5s25.5 8.66699 37.5 17s22.333 19.833 31 34.5s13 34 13 58c0 28 -4.16699 50.5 -12.5 67.5s-18.333 30 -30 39s-23.834 15 -36.501 18s-23.334 4.5 -32.001 4.5l-354 -60v-183h351z" />
    <glyph glyph-name="aynfina" unicode="&#x639;" horiz-adv-x="634" arabic-form="final" 
d="M196 0c-8.66699 0 -18.1699 -0.49707 -28.5029 -1.49707s-20 -3.66699 -29 -8s-16.667 -11.333 -23 -21s-9.5 -23.167 -9.5 -40.5c0 -24 5.5 -46.667 16.5 -68s24.333 -40.833 40 -58.5s32 -33 49 -46s31.5 -23.167 43.5 -30.5c5.33301 -4 8.66602 -8.66699 9.99902 -14
s0 -11.666 -4 -18.999l-26 -39c-38.667 20.667 -68.667 40.5 -90 59.5s-38.166 35.667 -50.499 50s-23.166 29.833 -32.499 46.5s-17 34.5 -23 53.5s-9 39.167 -9 60.5c0 30.667 5 55.667 15 75s22.667 34.666 38 45.999s31.833 19.166 49.5 23.499s33.834 6.5 48.501 6.5
h85l-120 139c0 32 6.33301 59.667 19 83s29.167 42.666 49.5 57.999s43.833 26.833 70.5 34.5s54 11.5 82 11.5s55 -3.5 81 -10.5s48.833 -18.167 68.5 -33.5s35.334 -34.833 47.001 -58.5s17.5 -51.834 17.5 -84.501l-119 -139h184v-75h-228c-18 0 -31.5 3.66699 -40.5 11
s-14.167 16 -15.5 26c-2 -10 -7 -18.667 -15 -26s-19.333 -11 -34 -11h-117zM375.997 81.0029l128.998 149c0 10.667 -3 22.167 -9 34.5s-14.667 23.833 -26 34.5s-25.666 19.334 -42.999 26.001s-37.333 10 -60 10s-43 -3.66699 -61 -11s-33.167 -16.333 -45.5 -27
s-21.833 -22 -28.5 -34s-10 -23 -10 -33l130 -149c6.66699 -8.66699 10.334 -17.334 11.001 -26.001c2 10 6.33301 18.667 13 26z" />
    <glyph glyph-name="aynini" unicode="&#x639;" horiz-adv-x="454" arabic-form="initial" 
d="M366 75c7.33301 0 13.835 -2.83301 19.502 -8.5s8.5 -12.167 8.5 -19.5v-47h-414v75h97c-7.33301 6.66699 -14.166 15.334 -20.499 26.001s-10.833 24 -13.5 40s-4 35.667 -4 59c0 29.333 3.5 55.666 10.5 78.999s18.667 43.166 35 59.499s37.666 28.833 63.999 37.5
s58.833 13 97.5 13c19.333 0 38 -1 56 -3s35.167 -4.33301 51.5 -7s32.5 -6 48.5 -10c-6.66699 -23.333 -10.667 -37 -12 -41c-3.33301 -9.33301 -8 -16 -14 -20s-16 -4.66699 -30 -2l-43.5 5c-17.667 2 -39.834 3 -66.501 3c-24 0 -43.333 -3 -58 -9
s-26.334 -14.167 -35.001 -24.5s-14.5 -22.666 -17.5 -36.999s-4.5 -29.5 -4.5 -45.5c0 -26 3.33301 -47.167 10 -63.5s14.5 -28.833 23.5 -37.5s18.333 -14.5 28 -17.5s17.5 -4.5 23.5 -4.5h160z" />
    <glyph glyph-name="aynmidi" unicode="&#x639;" horiz-adv-x="529" arabic-form="medial" 
d="M-20 75l187 0.00195312l-120 139c0 32 6.33301 59.667 19 83s29.167 42.666 49.5 57.999s43.833 26.833 70.5 34.5s54 11.5 82 11.5s54.833 -3.5 80.5 -10.5s48.5 -18.167 68.5 -33.5s35.833 -34.833 47.5 -58.5s17.5 -51.834 17.5 -84.501l-119 -139h184v-75h-228
c-18 0 -31.5 3.66699 -40.5 11s-14.167 16 -15.5 26c-2 -10 -7 -18.667 -15 -26s-19.333 -11 -34 -11h-234v75zM277 81.002l128.999 149c0 10.667 -3 22.167 -9 34.5s-14.833 23.833 -26.5 34.5s-26 19.334 -43 26.001s-36.833 10 -59.5 10s-43 -3.66699 -61 -11
s-33.167 -16.333 -45.5 -27s-21.833 -22 -28.5 -34s-10 -23 -10 -33l130 -149c6.66699 -8.66699 10.334 -17.334 11.001 -26.001c2 10 6.33301 18.667 13 26z" />
    <glyph glyph-name="ghafina" unicode="&#x63a;" horiz-adv-x="634" arabic-form="final" 
d="M317 503c0 14 4.83301 25.833 14.5 35.5s21.5 14.5 35.5 14.5s25.833 -4.83301 35.5 -14.5s14.5 -21.5 14.5 -35.5s-4.83301 -25.833 -14.5 -35.5s-21.5 -14.5 -35.5 -14.5s-25.833 4.83301 -35.5 14.5s-14.5 21.5 -14.5 35.5zM196 0
c-8.66699 0 -18.1699 -0.49707 -28.5029 -1.49707s-20 -3.66699 -29 -8s-16.667 -11.333 -23 -21s-9.5 -23.167 -9.5 -40.5c0 -24 5.5 -46.667 16.5 -68s24.333 -40.833 40 -58.5s32 -33 49 -46s31.5 -23.167 43.5 -30.5c5.33301 -4 8.66602 -8.66699 9.99902 -14
s0 -11.666 -4 -18.999l-26 -39c-38.667 20.667 -68.667 40.5 -90 59.5s-38.166 35.667 -50.499 50s-23.166 29.833 -32.499 46.5s-17 34.5 -23 53.5s-9 39.167 -9 60.5c0 30.667 5 55.667 15 75s22.667 34.666 38 45.999s31.833 19.166 49.5 23.499s33.834 6.5 48.501 6.5
h85l-120 139c0 32 6.33301 59.667 19 83s29.167 42.666 49.5 57.999s43.833 26.833 70.5 34.5s54 11.5 82 11.5s55 -3.5 81 -10.5s48.833 -18.167 68.5 -33.5s35.334 -34.833 47.001 -58.5s17.5 -51.834 17.5 -84.501l-119 -139h184v-75h-228c-18 0 -31.5 3.66699 -40.5 11
s-14.167 16 -15.5 26c-2 -10 -7 -18.667 -15 -26s-19.333 -11 -34 -11h-117zM375.997 81.0029l128.998 149c0 10.667 -3 22.167 -9 34.5s-14.667 23.833 -26 34.5s-25.666 19.334 -42.999 26.001s-37.333 10 -60 10s-43 -3.66699 -61 -11s-33.167 -16.333 -45.5 -27
s-21.833 -22 -28.5 -34s-10 -23 -10 -33l130 -149c6.66699 -8.66699 10.334 -17.334 11.001 -26.001c2 10 6.33301 18.667 13 26z" />
    <glyph glyph-name="ghaini" unicode="&#x63a;" horiz-adv-x="454" arabic-form="initial" 
d="M195 503c0 14 4.83301 25.833 14.5 35.5s21.5 14.5 35.5 14.5s25.833 -4.83301 35.5 -14.5s14.5 -21.5 14.5 -35.5s-4.83301 -25.833 -14.5 -35.5s-21.5 -14.5 -35.5 -14.5s-25.833 4.83301 -35.5 14.5s-14.5 21.5 -14.5 35.5zM366 75
c7.33301 0 13.835 -2.83301 19.502 -8.5s8.5 -12.167 8.5 -19.5v-47h-414v75h97c-7.33301 6.66699 -14.166 15.334 -20.499 26.001s-10.833 24 -13.5 40s-4 35.667 -4 59c0 29.333 3.5 55.666 10.5 78.999s18.667 43.166 35 59.499s37.666 28.833 63.999 37.5
s58.833 13 97.5 13c19.333 0 38 -1 56 -3s35.167 -4.33301 51.5 -7s32.5 -6 48.5 -10c-6.66699 -23.333 -10.667 -37 -12 -41c-3.33301 -9.33301 -8 -16 -14 -20s-16 -4.66699 -30 -2l-43.5 5c-17.667 2 -39.834 3 -66.501 3c-24 0 -43.333 -3 -58 -9
s-26.334 -14.167 -35.001 -24.5s-14.5 -22.666 -17.5 -36.999s-4.5 -29.5 -4.5 -45.5c0 -26 3.33301 -47.167 10 -63.5s14.5 -28.833 23.5 -37.5s18.333 -14.5 28 -17.5s17.5 -4.5 23.5 -4.5h160z" />
    <glyph glyph-name="ghamedi" unicode="&#x63a;" horiz-adv-x="529" arabic-form="medial" 
d="M219 503c0 14 4.83301 25.833 14.5 35.5s21.5 14.5 35.5 14.5s25.833 -4.83301 35.5 -14.5s14.5 -21.5 14.5 -35.5s-4.83301 -25.833 -14.5 -35.5s-21.5 -14.5 -35.5 -14.5s-25.833 4.83301 -35.5 14.5s-14.5 21.5 -14.5 35.5zM-20 75l187 0.00195312l-120 139
c0 32 6.33301 59.667 19 83s29.167 42.666 49.5 57.999s43.833 26.833 70.5 34.5s54 11.5 82 11.5s54.833 -3.5 80.5 -10.5s48.5 -18.167 68.5 -33.5s35.833 -34.833 47.5 -58.5s17.5 -51.834 17.5 -84.501l-119 -139h184v-75h-228c-18 0 -31.5 3.66699 -40.5 11
s-14.167 16 -15.5 26c-2 -10 -7 -18.667 -15 -26s-19.333 -11 -34 -11h-234v75zM277 81.002l128.999 149c0 10.667 -3 22.167 -9 34.5s-14.833 23.833 -26.5 34.5s-26 19.334 -43 26.001s-36.833 10 -59.5 10s-43 -3.66699 -61 -11s-33.167 -16.333 -45.5 -27
s-21.833 -22 -28.5 -34s-10 -23 -10 -33l130 -149c6.66699 -8.66699 10.334 -17.334 11.001 -26.001c2 10 6.33301 18.667 13 26z" />
    <glyph glyph-name="fafina" unicode="&#x641;" horiz-adv-x="1022" arabic-form="final" 
d="M829 297l-25.0029 6.00195c-8.66699 2 -18.167 3.83301 -28.5 5.5s-21.166 2.5 -32.499 2.5c-25.333 0 -46.166 -3.33301 -62.499 -10s-29 -15.334 -38 -26.001s-15.167 -22.834 -18.5 -36.501s-5 -27.5 -5 -41.5c0 -23.333 3 -42.833 9 -58.5s13.167 -28.167 21.5 -37.5
s16.833 -16 25.5 -20s15.667 -6 21 -6h82c18.667 0 31.834 4.5 39.501 13.5s11.5 21.833 11.5 38.5v170zM907.997 106.002c6 -6 13.667 -11.166 23 -15.499s20.5 -8 33.5 -11s29.167 -4.5 48.5 -4.5h19v-75h-19c-17.333 0 -38 4 -62 12s-43.667 20.667 -59 38
c-8 -13.333 -21.667 -25 -41 -35s-43.333 -15 -72 -15h-524c-33.333 0 -62.666 5.16699 -87.999 15.5s-46.5 24.5 -63.5 42.5s-29.833 38.833 -38.5 62.5s-13 49.167 -13 76.5c0 19.333 1 37 3 53s4.5 30.167 7.5 42.5s6.83301 24.166 11.5 35.499
c28.667 -9.33301 45.667 -15 51 -17c6.66699 -2 11.167 -5.66699 13.5 -11s2.5 -13 0.5 -23c-2.66699 -11.333 -4.83398 -22.166 -6.50098 -32.499s-2.5 -23.833 -2.5 -40.5c0 -26.667 4.33301 -48.334 13 -65.001s20 -29.834 34 -39.501s29.833 -16.167 47.5 -19.5
s35.834 -5 54.501 -5h298c-0.666992 0 -3 2.33301 -7 7s-8.16699 12 -12.5 22s-8.33301 22.833 -12 38.5s-5.5 34.834 -5.5 57.501c0 28.667 4.16699 54.5 12.5 77.5s21.166 42.833 38.499 59.5s39.5 29.5 66.5 38.5s59.167 13.5 96.5 13.5c18.667 0 37.167 -2 55.5 -6
s35.5 -8.5 51.5 -13.5s31.667 -10.833 47 -17.5v-246zM714.997 518.003c0 14 4.83301 25.833 14.5 35.5s21.5 14.5 35.5 14.5s25.833 -4.83301 35.5 -14.5s14.5 -21.5 14.5 -35.5s-4.83301 -25.833 -14.5 -35.5s-21.5 -14.5 -35.5 -14.5s-25.833 4.83301 -35.5 14.5
s-14.5 21.5 -14.5 35.5z" />
    <glyph glyph-name="faini" unicode="&#x641;" horiz-adv-x="485" arabic-form="initial" 
d="M-20 0l0.000976562 75.002h268c33.333 0 60.666 4.83301 81.999 14.5s32 28.167 32 55.5c-11.333 -6 -26.666 -11.167 -45.999 -15.5s-39.666 -6.5 -60.999 -6.5c-33.333 0 -61.333 3.83301 -84 11.5s-41 18.667 -55 33s-24 31.833 -30 52.5s-9 44 -9 70
s3.5 49.167 10.5 69.5s18.167 37.666 33.5 51.999s35.333 25.333 60 33s55 11.5 91 11.5c18.667 0 37.667 -2 57 -6s37.666 -8.83301 54.999 -14.5s34.666 -11.834 51.999 -18.501v-254c0 -21.333 -2.83301 -41.833 -8.5 -61.5s-15.5 -37 -29.5 -52s-33 -27 -57 -36
s-54.333 -13.5 -91 -13.5h-270zM254.001 193.002c18.667 0 34.502 0.833008 47.502 2.5s24.167 3.83398 33.5 6.50098s17 5.66699 23 9v155c-16.667 5.33301 -32 9.66602 -46 12.999s-31 5 -51 5c-34 0 -60.667 -7.16699 -80 -21.5s-29 -40.5 -29 -78.5
c0 -18 2.66699 -32.833 8 -44.5s12.666 -21 21.999 -28s20.166 -11.833 32.499 -14.5s25.5 -4 39.5 -4zM232.003 588.002c0 14 4.83301 25.833 14.5 35.5s21.5 14.5 35.5 14.5s25.833 -4.83301 35.5 -14.5s14.5 -21.5 14.5 -35.5s-4.83301 -25.833 -14.5 -35.5
s-21.5 -14.5 -35.5 -14.5s-25.833 4.83301 -35.5 14.5s-14.5 21.5 -14.5 35.5z" />
    <glyph glyph-name="famedi" unicode="&#x641;" horiz-adv-x="492" arabic-form="medial" 
d="M510 75v-75.002h-530v75h147l-11.5 9.5c-7.66699 6.33301 -16.167 15.333 -25.5 27s-17.833 26.167 -25.5 43.5s-11.5 37 -11.5 59c0 27.333 3.5 52.5 10.5 75.5s18.167 42.667 33.5 59s35 29 59 38s53 13.5 87 13.5c25.333 0 49.666 -3 72.999 -9s43.833 -16 61.5 -30
s31.834 -33 42.501 -57s16 -54 16 -90c0 -23.333 -4.16699 -43.666 -12.5 -60.999s-17.5 -31.666 -27.5 -42.999c-12 -13.333 -25.333 -25 -40 -35h154zM362 215.998c0 14.667 -1.66699 28.9961 -5 42.9961s-10.5 26.333 -21.5 37s-24.5 19.167 -40.5 25.5s-33 9.5 -51 9.5
c-21.333 0 -39.5 -3.16699 -54.5 -9.5s-27.167 -14.833 -36.5 -25.5s-16.166 -23 -20.499 -37s-6.5 -28.333 -6.5 -43c0 -15.333 2.66699 -29.166 8 -41.499s13.166 -24 23.499 -35s22.833 -21.667 37.5 -32s31 -21.166 49 -32.499l40 26c14 9.33301 26.667 19.833 38 31.5
s20.833 24.334 28.5 38.001s11.5 28.834 11.5 45.501zM194 529.994c0 14 4.83301 25.833 14.5 35.5s21.5 14.5 35.5 14.5s25.833 -4.83301 35.5 -14.5s14.5 -21.5 14.5 -35.5s-4.83301 -25.833 -14.5 -35.5s-21.5 -14.5 -35.5 -14.5s-25.833 4.83301 -35.5 14.5
s-14.5 21.5 -14.5 35.5z" />
    <glyph glyph-name="kaaffina" unicode="&#x642;" horiz-adv-x="717" arabic-form="final" 
d="M321 492c0 14 4.83301 25.833 14.5 35.5s21.5 14.5 35.5 14.5s25.833 -4.83301 35.5 -14.5s14.5 -21.5 14.5 -35.5s-4.83301 -25.833 -14.5 -35.5s-21.5 -14.5 -35.5 -14.5s-25.833 4.83301 -35.5 14.5s-14.5 21.5 -14.5 35.5zM449 492c0 14 4.83301 25.833 14.5 35.5
s21.5 14.5 35.5 14.5s25.833 -4.83301 35.5 -14.5s14.5 -21.5 14.5 -35.5s-4.83301 -25.833 -14.5 -35.5s-21.5 -14.5 -35.5 -14.5s-25.833 4.83301 -35.5 14.5s-14.5 21.5 -14.5 35.5zM603 -36c0 -30 -2.33301 -59.1689 -7 -87.502s-15.667 -53.333 -33 -75
s-43.333 -39 -78 -52s-82.334 -19.5 -143.001 -19.5c-45.333 0 -86.333 4 -123 12s-67.834 21.167 -93.501 39.5s-45.5 42.166 -59.5 71.499s-21 65 -21 107c0 24.667 1.5 46.5 4.5 65.5s6.16699 34.167 9.5 45.5c2 6 5.33301 10.167 10 12.5s9.66699 2.83301 15 1.5l52 -17
c-2.66699 -10.667 -5 -22 -7 -34c-1.33301 -10 -2.66602 -20.833 -3.99902 -32.5s-2 -23.167 -2 -34.5c0 -37.333 6.16699 -66.666 18.5 -87.999s28.666 -37.5 48.999 -48.5s43.666 -18 69.999 -21s53.5 -4.5 81.5 -4.5c41.333 0 74.166 4 98.499 12
s42.666 18.833 54.999 32.5s20.333 29 24 46s5.5 34.5 5.5 52.5v52h-101c-39.333 0 -71.666 4.66699 -96.999 14s-45.166 22.333 -59.499 39s-24.166 36.834 -29.499 60.501s-7.33301 49.834 -6 78.501c2.66699 51.333 21.334 92.5 56.001 123.5s87 46.5 157 46.5
c18.667 0 37.334 -2 56.001 -6s36.167 -8.5 52.5 -13.5s32.833 -10.833 49.5 -17.5v-250h124v-75h-124v-36zM415 74.998h110.001v197c-24.667 8 -49.667 13 -75 15s-48.333 -0.166992 -69 -6.5s-37.5 -18 -50.5 -35s-19.5 -40.833 -19.5 -71.5c0 -19.333 2 -35.5 6 -48.5
s10.167 -23.167 18.5 -30.5s19.166 -12.5 32.499 -15.5s29 -4.5 47 -4.5z" />
    <glyph glyph-name="kaafini" unicode="&#x642;" horiz-adv-x="485" arabic-form="initial" 
d="M175 587c0 14 4.83301 25.833 14.5 35.5s21.5 14.5 35.5 14.5s25.833 -4.83301 35.5 -14.5s14.5 -21.5 14.5 -35.5s-4.83301 -25.833 -14.5 -35.5s-21.5 -14.5 -35.5 -14.5s-25.833 4.83301 -35.5 14.5s-14.5 21.5 -14.5 35.5zM303 587c0 14 4.83301 25.833 14.5 35.5
s21.5 14.5 35.5 14.5s25.833 -4.83301 35.5 -14.5s14.5 -21.5 14.5 -35.5s-4.83301 -25.833 -14.5 -35.5s-21.5 -14.5 -35.5 -14.5s-25.833 4.83301 -35.5 14.5s-14.5 21.5 -14.5 35.5zM-20 0l0.000976562 75.002h268c33.333 0 60.666 4.83301 81.999 14.5
s32 28.167 32 55.5c-11.333 -6 -26.666 -11.167 -45.999 -15.5s-39.666 -6.5 -60.999 -6.5c-33.333 0 -61.333 3.83301 -84 11.5s-41 18.667 -55 33s-24 31.833 -30 52.5s-9 44 -9 70s3.5 49.167 10.5 69.5s18.167 37.666 33.5 51.999s35.333 25.333 60 33s55 11.5 91 11.5
c18.667 0 37.667 -2 57 -6s37.666 -8.83301 54.999 -14.5s34.666 -11.834 51.999 -18.501v-254c0 -21.333 -2.83301 -41.833 -8.5 -61.5s-15.5 -37 -29.5 -52s-33 -27 -57 -36s-54.333 -13.5 -91 -13.5h-270zM254.001 193.002c18.667 0 34.502 0.833008 47.502 2.5
s24.167 3.83398 33.5 6.50098s17 5.66699 23 9v155c-16.667 5.33301 -32 9.66602 -46 12.999s-31 5 -51 5c-34 0 -60.667 -7.16699 -80 -21.5s-29 -40.5 -29 -78.5c0 -18 2.66699 -32.833 8 -44.5s12.666 -21 21.999 -28s20.166 -11.833 32.499 -14.5s25.5 -4 39.5 -4z" />
    <glyph glyph-name="kaafmedi" unicode="&#x642;" horiz-adv-x="492" arabic-form="medial" 
d="M131 530c0 14 4.83301 25.833 14.5 35.5s21.5 14.5 35.5 14.5s25.833 -4.83301 35.5 -14.5s14.5 -21.5 14.5 -35.5s-4.83301 -25.833 -14.5 -35.5s-21.5 -14.5 -35.5 -14.5s-25.833 4.83301 -35.5 14.5s-14.5 21.5 -14.5 35.5zM259 530c0 14 4.83301 25.833 14.5 35.5
s21.5 14.5 35.5 14.5s25.833 -4.83301 35.5 -14.5s14.5 -21.5 14.5 -35.5s-4.83301 -25.833 -14.5 -35.5s-21.5 -14.5 -35.5 -14.5s-25.833 4.83301 -35.5 14.5s-14.5 21.5 -14.5 35.5zM510 75v-75.002h-530v75h147l-11.5 9.5c-7.66699 6.33301 -16.167 15.333 -25.5 27
s-17.833 26.167 -25.5 43.5s-11.5 37 -11.5 59c0 27.333 3.5 52.5 10.5 75.5s18.167 42.667 33.5 59s35 29 59 38s53 13.5 87 13.5c25.333 0 49.666 -3 72.999 -9s43.833 -16 61.5 -30s31.834 -33 42.501 -57s16 -54 16 -90c0 -23.333 -4.16699 -43.666 -12.5 -60.999
s-17.5 -31.666 -27.5 -42.999c-12 -13.333 -25.333 -25 -40 -35h154zM362 215.998c0 14.667 -1.66699 28.9961 -5 42.9961s-10.5 26.333 -21.5 37s-24.5 19.167 -40.5 25.5s-33 9.5 -51 9.5c-21.333 0 -39.5 -3.16699 -54.5 -9.5s-27.167 -14.833 -36.5 -25.5
s-16.166 -23 -20.499 -37s-6.5 -28.333 -6.5 -43c0 -15.333 2.66699 -29.166 8 -41.499s13.166 -24 23.499 -35s22.833 -21.667 37.5 -32s31 -21.166 49 -32.499l40 26c14 9.33301 26.667 19.833 38 31.5s20.833 24.334 28.5 38.001s11.5 28.834 11.5 45.501z" />
    <glyph glyph-name="kaffina" unicode="&#x643;" horiz-adv-x="817" arabic-form="final" 
d="M702 107c6 -6 13.6689 -11.1689 23.002 -15.502s20.5 -8.16602 33.5 -11.499s29.167 -5 48.5 -5h20v-75h-20c-8.66699 0 -18.334 1 -29.001 3s-21.5 5 -32.5 9s-21.667 9.16699 -32 15.5s-19.5 14.166 -27.5 23.499c-7.33301 -13.333 -20.833 -25.166 -40.5 -35.499
s-44.167 -15.5 -73.5 -15.5h-292c-39.333 0 -73.5 5.16699 -102.5 15.5s-52.833 24.5 -71.5 42.5s-32.5 39 -41.5 63s-13.5 49.333 -13.5 76c0 19.333 1 37 3 53s4.66699 30.167 8 42.5s7.33301 24.166 12 35.499l49 -16c7.33301 -2.66699 12.333 -6.16699 15 -10.5
s3 -12.166 1 -23.499c-2.66699 -11.333 -4.83398 -22.166 -6.50098 -32.499s-2.5 -23.833 -2.5 -40.5c0 -26.667 4.33301 -48.5 13 -65.5s20 -30.167 34 -39.5s30 -15.833 48 -19.5s36.333 -5.5 55 -5.5h268c28 0 47.667 6.66699 59 20s17 31 17 53v433
c0 8 2.5 14.667 7.5 20s11.167 8 18.5 8h52v-502zM287.002 302.998l0.000976562 25.9971c0 7.33301 1.83301 12.833 5.5 16.5s7.83398 5.5 12.501 5.5h8c-3.33301 4 -6 8.83301 -8 14.5s-3 13.834 -3 24.501c0 14 2.66699 26.5 8 37.5s12.666 19.833 21.999 26.5
s20 11.334 32 14.001s24.667 4 38 4c9.33301 0 18.333 -0.5 27 -1.5s16.5 -2.33301 23.5 -4s13.833 -3.16699 20.5 -4.5l-5 -29c-1.33301 -5.33301 -3.5 -9.5 -6.5 -12.5s-6.5 -4.16699 -10.5 -3.5c-1.33301 0 -6.83301 0.833008 -16.5 2.5s-20.167 2.5 -31.5 2.5
c-21.333 0 -35.5 -3.83301 -42.5 -11.5s-10.5 -14.834 -10.5 -21.501c0 -9.33301 2 -16.166 6 -20.499s8.33301 -7.83301 13 -10.5s10.167 -4.5 16.5 -5.5s12.166 -1.5 17.499 -1.5h51c5.33301 0 9 -1.66699 11 -5s3 -6.66602 3 -9.99902v-33h-181z" />
    <glyph glyph-name="lamfina" unicode="&#x644;" horiz-adv-x="714" arabic-form="final" 
d="M603 107c1.33301 -1.33301 4.33203 -3.83008 8.99902 -7.49707s11.334 -7.33398 20.001 -11.001s19.167 -6.83398 31.5 -9.50098s26.833 -4 43.5 -4h19v-75h-19c-14 0 -31 2.66699 -51 8s-37.667 14.333 -53 27v-38c0 -24 -3 -49.167 -9 -75.5s-18.167 -50.5 -36.5 -72.5
s-44.333 -40.167 -78 -54.5s-77.834 -21.5 -132.501 -21.5c-32 0 -65.333 3.33301 -100 10s-66.667 19.667 -96 39s-53.5 46 -72.5 80s-28.5 78.667 -28.5 134c0 15.333 0.833008 32.333 2.5 51s4.16699 37.5 7.5 56.5s7 37.5 11 55.5s8.66699 33.667 14 47
c25.333 -7.33301 42 -12.666 50 -15.999c8 -2.66699 13 -6.33398 15 -11.001s2 -12 0 -22c-5.33301 -16 -10.333 -39 -15 -69s-7 -60.667 -7 -92c0 -42.667 7.5 -76 22.5 -100s33.833 -42 56.5 -54s47.167 -19.5 73.5 -22.5s50.5 -4.5 72.5 -4.5
c36.667 0 66.334 4 89.001 12s40.167 18.667 52.5 32s20.5 29.166 24.5 47.499s6 37.5 6 57.5v577c0 8 2.33301 14.667 7 20s10.667 8 18 8h53v-502v0z" />
    <glyph glyph-name="lamini" unicode="&#x644;" horiz-adv-x="273" arabic-form="initial" 
d="M209 201c0 -31.333 -2.83398 -59.334 -8.50098 -84.001s-15.5 -45.667 -29.5 -63s-33.167 -30.666 -57.5 -39.999s-55.166 -14 -92.499 -14h-41v75h41c38 0 65.833 8.16699 83.5 24.5s26.5 39.833 26.5 70.5v411c0 8 2.5 14.667 7.5 20s11.167 8 18.5 8h52v-408z" />
    <glyph glyph-name="lammedi" unicode="&#x644;" horiz-adv-x="291" arabic-form="medial" 
d="M109 581c0 8 2.33301 14.665 7 19.998s10.667 8 18 8h53v-502c6 -6 13.667 -11.167 23 -15.5s20.5 -8.16602 33.5 -11.499s29.167 -5 48.5 -5h19v-75h-19c-17.333 0 -38 4 -62 12s-43.667 21 -59 39c-8 -13.333 -21.667 -25.166 -41 -35.499s-44 -15.5 -74 -15.5h-76v75
h53c28 0 47.667 6.66699 59 20s17 31 17 53v433v0z" />
    <glyph glyph-name="meemfina" unicode="&#x645;" horiz-adv-x="642" arabic-form="final" 
d="M238 14c-6 -0.666992 -13.832 -2.49805 -23.499 -5.49805s-19.834 -7.16699 -30.501 -12.5s-20.167 -12 -28.5 -20s-15.166 -17.5 -20.499 -28.5s-8 -23.5 -8 -37.5c0 -12.667 0.666992 -26.334 2 -41.001s3 -28.834 5 -42.501s4 -26.5 6 -38.5s4 -22 6 -30
c1.33301 -5.33301 1.16602 -10.5 -0.500977 -15.5s-6.16699 -8.5 -13.5 -10.5c-6 -2 -15.167 -4 -27.5 -6l-30.5 -5c-1.33301 2.66699 -3.5 10.5 -6.5 23.5s-6 28.5 -9 46.5s-5.83301 37.667 -8.5 59s-4 42 -4 62c0 31.333 5.5 57.5 16.5 78.5s24.167 38 39.5 51
s30.666 22.5 45.999 28.5s27.666 9.66699 36.999 11c-6.66699 7.33301 -12.167 16.166 -16.5 26.499s-8.16602 23 -11.499 38s-5 32.5 -5 52.5c0 29.333 5 56.333 15 81s24.5 45.834 43.5 63.501s42 31.5 69 41.5s57.833 15 92.5 15c17.333 0 35.333 -1.5 54 -4.5
s36.334 -6.33301 53.001 -10s33.667 -7.83398 51 -12.501v-265c0.666992 -1.33301 3.33398 -3.66602 8.00098 -6.99902s11.167 -6.83301 19.5 -10.5s18.833 -7 31.5 -10s27.667 -4.5 45 -4.5h19v-75h-19c-7.33301 -0 -16 0.833008 -26 2.5s-20.167 4.33398 -30.5 8.00098
s-20.5 8.16699 -30.5 13.5s-19 11.666 -27 18.999c-7.33301 -20.667 -20.166 -37 -38.499 -49s-45.5 -18 -81.5 -18c-14 0 -28.833 1 -44.5 3s-30.834 4.66699 -45.501 8s-28.334 7.33301 -41.001 12s-23 9.66699 -31 15zM452.001 313.002
c-9.33301 3.33301 -20.166 6.66699 -32.499 10s-27.833 5 -46.5 5c-50 0 -86 -11.333 -108 -34s-33 -57 -33 -103c0 -23.333 4 -43.833 12 -61.5s19.167 -32.5 33.5 -44.5s31.166 -21 50.499 -27s40.333 -9 63 -9c17.333 0 31.833 4.16699 43.5 12.5s17.5 23.5 17.5 45.5
v206z" />
    <glyph glyph-name="meemini" unicode="&#x645;" horiz-adv-x="500" arabic-form="initial" 
d="M283 389c17.333 0 35.168 -1.49609 53.501 -4.49609s35.833 -6.33301 52.5 -10s34 -7.83398 52 -12.501v-249c0 -17.333 -1.66699 -34.333 -5 -51s-9.66602 -31.667 -18.999 -45s-22.5 -24.166 -39.5 -32.499s-39.167 -12.5 -66.5 -12.5c-12 0 -27.167 1.16699 -45.5 3.5
s-36.833 5.66602 -55.5 9.99902l-60 14.5h-170v75h97c-3.33301 9.33301 -7 24.5 -11 45.5s-6 44.833 -6 71.5c0 29.333 5.16699 56.166 15.5 80.499s25.166 45.166 44.499 62.499s42.666 30.666 69.999 39.999s58.333 14 93 14zM364.002 302.004
c-9.33301 2 -20.334 4.16504 -33.001 6.49805s-28.334 3.5 -47.001 3.5c-25.333 0 -47 -3.66699 -65 -11s-33 -16.833 -45 -28.5s-20.833 -25.167 -26.5 -40.5s-8.5 -31 -8.5 -47c0 -17.333 0.833008 -32.833 2.5 -46.5s3.83398 -25.667 6.50098 -36
s5.66699 -19.166 9 -26.499c14.667 -4.66699 28.834 -8.66699 42.501 -12l40.5 -10c13.333 -3.33301 25.333 -5.66602 36 -6.99902c28 -5.33301 49.667 -3.5 65 5.5s23 27.167 23 54.5v195z" />
    <glyph glyph-name="meemmedi" unicode="&#x645;" horiz-adv-x="548" arabic-form="medial" 
d="M362 302c-9.33301 2 -20.502 4.16504 -33.502 6.49805s-28.833 3.5 -47.5 3.5c-25.333 0 -47 -3.66699 -65 -11s-33 -16.833 -45 -28.5s-20.833 -25.167 -26.5 -40.5s-8.5 -31 -8.5 -47c0 -17.333 0.833008 -32.833 2.5 -46.5s3.83398 -25.667 6.50098 -36
s5.66699 -19.166 9 -26.499c14.667 -4.66699 28.834 -8.66699 42.501 -12l41 -10c13.667 -3.33301 25.5 -5.66602 35.5 -6.99902c28 -5.33301 49.833 -3.5 65.5 5.5s23.5 27.167 23.5 54.5v195zM307.998 -30.002c-12 0 -27.001 1.50293 -45.001 4.50293
s-36.333 6.5 -55 10.5s-39 9 -61 15h-168v75h96c-4 9.33301 -8 24.5 -12 45.5s-6 44.833 -6 71.5c0 29.333 5.16699 56.166 15.5 80.499s25.166 45.166 44.499 62.499s42.666 30.666 69.999 39.999s58.333 14 93 14c17.333 0 35.333 -1.5 54 -4.5
s36.334 -6.33301 53.001 -10s33.667 -7.83398 51 -12.501v-255c0.666992 -1.33301 3.33398 -3.66602 8.00098 -6.99902s11.167 -6.83301 19.5 -10.5s18.833 -7 31.5 -10s27.667 -4.5 45 -4.5h19v-75h-19c-7.33301 0 -16 0.833008 -26 2.5s-20.167 4.33398 -30.5 8.00098
s-20.5 8.16699 -30.5 13.5s-19 11.666 -27 18.999c-7.33301 -20.667 -20.166 -38 -38.499 -52s-45.5 -21 -81.5 -21z" />
    <glyph glyph-name="nounfina" unicode="&#x646;" horiz-adv-x="724" arabic-form="final" 
d="M613 0c0 -24 -3.16309 -49.1641 -9.49609 -75.4971s-18.833 -50.333 -37.5 -72s-45 -39.667 -79 -54s-78.333 -21.5 -133 -21.5c-31.333 0 -64.666 3.33301 -99.999 10s-67.833 19.667 -97.5 39s-54.334 46 -74.001 80s-29.5 78.667 -29.5 134c0 15.333 1 32.333 3 51
s4.66699 37.5 8 56.5s7.16602 37.5 11.499 55.5s8.83301 33.667 13.5 47c26 -7.33301 43 -12.666 51 -15.999c7.33301 -2.66699 12.166 -6.33398 14.499 -11.001s2.16602 -12 -0.500977 -22c-2 -8 -4.33301 -18 -7 -30s-5.16699 -25.167 -7.5 -39.5
s-4.16602 -29.333 -5.49902 -45s-2 -31.167 -2 -46.5c0 -42.667 7.66699 -76 23 -100s34.5 -42 57.5 -54s47.833 -19.5 74.5 -22.5s51.334 -4.5 74.001 -4.5c36.667 0 66.5 4 89.5 12s40.667 18.667 53 32s20.666 29.166 24.999 47.499s6.5 37.5 6.5 57.5v330
c0 8 2.33301 14.667 7 20s10.667 8 18 8h53v-259c1.33301 -1.33301 4.33301 -3.83301 9 -7.5s11.167 -7.33398 19.5 -11.001s18.666 -6.83398 30.999 -9.50098s27.166 -4 44.499 -4h19v-75h-19c-14 0 -31 2.66699 -51 8s-37.667 14.333 -53 27v-35zM284.004 369.003
c0 14 4.83301 25.833 14.5 35.5s21.5 14.5 35.5 14.5s25.833 -4.83301 35.5 -14.5s14.5 -21.5 14.5 -35.5s-4.83301 -25.833 -14.5 -35.5s-21.5 -14.5 -35.5 -14.5s-25.833 4.83301 -35.5 14.5s-14.5 21.5 -14.5 35.5z" />
    <glyph glyph-name="nounini" unicode="&#x646;" horiz-adv-x="293" arabic-form="initial" 
d="M155 337c0 8 2.83301 14.666 8.5 19.999s12.167 8 19.5 8h50v-209c0 -53.333 -15.333 -92.666 -46 -117.999s-76.667 -38 -138 -38h-69v75h66c34 0 60.667 8 80 24s29 39.667 29 71v167v0zM142 496.999c0 14 4.83301 25.833 14.5 35.5s21.5 14.5 35.5 14.5
s25.833 -4.83301 35.5 -14.5s14.5 -21.5 14.5 -35.5s-4.83301 -25.833 -14.5 -35.5s-21.5 -14.5 -35.5 -14.5s-25.833 4.83301 -35.5 14.5s-14.5 21.5 -14.5 35.5z" />
    <glyph glyph-name="nounmedi" unicode="&#x646;" arabic-form="medial" 
d="M104 337c0 8 2.66992 14.667 8.00293 20s12 8 20 8h50v-259c6 -6 13.667 -11.167 23 -15.5s20.666 -8 33.999 -11s29.666 -4.5 48.999 -4.5h19v-75h-19c-8 -0 -17.5 0.833008 -28.5 2.5s-22 4.5 -33 8.5s-21.833 9 -32.5 15s-19.667 13.667 -27 23
c-8 -13.333 -21.833 -24.833 -41.5 -34.5s-43.834 -14.5 -72.501 -14.5h-73v75h48c28 0 47.667 6.83301 59 20.5s17 31.167 17 52.5v189v0zM94.0029 497c0 14 4.83301 25.833 14.5 35.5s21.5 14.5 35.5 14.5s25.833 -4.83301 35.5 -14.5s14.5 -21.5 14.5 -35.5
s-4.83301 -25.833 -14.5 -35.5s-21.5 -14.5 -35.5 -14.5s-25.833 4.83301 -35.5 14.5s-14.5 21.5 -14.5 35.5z" />
    <glyph glyph-name="haiso" unicode="&#x647;" horiz-adv-x="470" arabic-form="isolated" 
d="M237 -7c-32.667 0 -61.001 5.16797 -85.001 15.501s-44 24.5 -60 42.5s-28 39.167 -36 63.5s-12 50.166 -12 77.499c0 63.333 17.833 114 53.5 152s86.834 57 153.501 57c17.333 0 35.833 -1.33301 55.5 -4s38.834 -5.66699 57.501 -9s38.334 -7.33301 59.001 -12v-212
c0 -16.667 -1.33301 -35 -4 -55s-9.83398 -38.5 -21.501 -55.5s-29.334 -31.333 -53.001 -43s-56.167 -17.5 -97.5 -17.5h-10zM344.999 319.001c-9.33301 2 -21 3.49902 -35 4.49902s-33 1.5 -57 1.5s-44 -3.5 -60 -10.5s-29 -16.5 -39 -28.5s-17.167 -26.167 -21.5 -42.5
s-6.5 -34.166 -6.5 -53.499c0 -22 3.16699 -40.667 9.5 -56s14.833 -27.833 25.5 -37.5s23.167 -16.5 37.5 -20.5s29.5 -6 45.5 -6h12c18 0 32.833 2.66699 44.5 8s20.667 11.833 27 19.5s10.833 15.5 13.5 23.5s4 15 4 21v177z" />
    <glyph glyph-name="hafina" unicode="&#x647;" horiz-adv-x="486" arabic-form="final" 
d="M498 75l0.000976562 -75.002h-51c-10.667 0 -20.334 1.83301 -29.001 5.5s-16.5 8 -23.5 13s-12.833 10.167 -17.5 15.5s-8 10 -10 14c-4 -4 -9.5 -9.16699 -16.5 -15.5s-16 -12.333 -27 -18s-24 -10.667 -39 -15s-32.167 -6.5 -51.5 -6.5
c-20.667 0 -41.667 2.66699 -63 8s-40.833 15.666 -58.5 30.999s-32.167 36.833 -43.5 64.5s-17 63.834 -17 108.501c0 27.333 3.33301 52.833 10 76.5s17.5 44.334 32.5 62.001s34.333 31.5 58 41.5s52.834 15 87.501 15c23.333 0 46 -1.33301 68 -4s42.333 -5.66699 61 -9
s36.667 -7.33301 54 -12v-261c0 -13.333 4.16699 -23.166 12.5 -29.499s18.166 -9.5 29.499 -9.5h34zM344.001 318.998c-17.333 4.66699 -34.833 7.66699 -52.5 9s-32.167 2 -43.5 2c-16.667 0 -32.167 -1.66699 -46.5 -5s-26.833 -9.83301 -37.5 -19.5s-19 -22.667 -25 -39
s-9 -37.5 -9 -63.5c0 -48.667 9.66699 -83.667 29 -105s46.666 -32 81.999 -32c18.667 0 34.334 2 47.001 6s23.5 8.83301 32.5 14.5s16.833 12.167 23.5 19.5v213z" />
    <glyph glyph-name="hamedi" unicode="&#x647;" horiz-adv-x="555" arabic-form="medial" 
d="M572 0l-146 -0.000976562c7.33301 -11.333 14.666 -26.666 21.999 -45.999s11 -39.666 11 -60.999c0 -18 -4 -34.667 -12 -50s-19.333 -28.5 -34 -39.5s-32.5 -19.5 -53.5 -25.5s-44.167 -9 -69.5 -9c-34 0 -63 3.66699 -87 11s-44.333 16 -61 26s-30.667 22 -42 36v158
h-120v75h118v255c16 10.667 33.833 20 53.5 28s42.334 15 68.001 21s54.5 9 86.5 9c29.333 0 54 -3.83301 74 -11.5s36 -18.667 48 -33s20.5 -31.833 25.5 -52.5s7.5 -44 7.5 -70v-36c0 -30.667 -4 -54.834 -12 -72.501s-17.667 -30.167 -29 -37.5h152v-75zM176 74.999
l114.999 0.000976562c10.667 0 21.667 2.16699 33 6.5s21.5 10.666 30.5 18.999s16.333 18.166 22 29.499s8.5 24 8.5 38v61c0 18.667 -2 33.5 -6 44.5s-9.83301 19.333 -17.5 25s-16.667 9.33398 -27 11.001s-21.833 2.5 -34.5 2.5c-19.333 0 -36.666 -1.5 -51.999 -4.5
s-28.833 -6.33301 -40.5 -10s-22.167 -8.16699 -31.5 -13.5v-209zM284.999 -156c68 0 102.001 22.333 102.001 67c0 14.667 -1.66699 27.167 -5 37.5s-7.33301 19 -12 26s-9.5 12.5 -14.5 16.5l-11.5 9h-166v-119c5.33301 -7.33301 12.666 -13.5 21.999 -18.5
s20.833 -9.33301 34.5 -13s30.5 -5.5 50.5 -5.5z" />
    <glyph glyph-name="wawfina" unicode="&#x648;" horiz-adv-x="506" arabic-form="final" 
d="M518 0l-82 0.000976562v-9c0 -43.333 -4 -79 -12 -107s-20 -50.333 -36 -67s-35.667 -28.167 -59 -34.5s-50 -9.5 -80 -9.5c-12 0 -26.167 1.16699 -42.5 3.5s-31.166 5.16602 -44.499 8.49902c-8 2 -15.5 5.16699 -22.5 9.5s-9.16699 11.166 -6.5 20.499l11 48
c10 -2.66699 20.5 -5.16699 31.5 -7.5s22.667 -4.33301 35 -6s24.833 -2.5 37.5 -2.5c30 0 52.833 4.83301 68.5 14.5s26.667 21.834 33 36.501s9.83301 31 10.5 49s1 35.667 1 53h-113c-18.667 -0 -38.667 2.33301 -60 7s-41.5 13.5 -60.5 26.5s-35.167 31.667 -48.5 56
s-20 56.833 -20 97.5c0 32.667 5.16699 61.834 15.5 87.501s25.166 47 44.499 64s42.5 29.667 69.5 38s56.5 12.5 88.5 12.5c21.333 0 41.5 -1.5 60.5 -4.5s36.5 -6.33301 52.5 -10s31.333 -7.83398 46 -12.501v-287h82v-75zM358 309.001
c-28.667 7.33301 -53.666 11.001 -74.999 11.001c-17.333 0.666992 -34.5 -1 -51.5 -5s-32.5 -10.833 -46.5 -20.5s-25 -23 -33 -40s-12 -37.833 -12 -62.5c0 -40.667 10.667 -70.334 32 -89.001s48.666 -28 81.999 -28h104v234z" />
    <glyph glyph-name="yafina" unicode="&#x64a;" horiz-adv-x="716" arabic-form="final" 
d="M253 -347c0 14 4.83301 25.833 14.5 35.5s21.5 14.5 35.5 14.5s25.833 -4.83301 35.5 -14.5s14.5 -21.5 14.5 -35.5s-4.83301 -25.833 -14.5 -35.5s-21.5 -14.5 -35.5 -14.5s-25.833 4.83301 -35.5 14.5s-14.5 21.5 -14.5 35.5zM381 -347c0 14 4.83301 25.833 14.5 35.5
s21.5 14.5 35.5 14.5s25.833 -4.83301 35.5 -14.5s14.5 -21.5 14.5 -35.5s-4.83301 -25.833 -14.5 -35.5s-21.5 -14.5 -35.5 -14.5s-25.833 4.83301 -35.5 14.5s-14.5 21.5 -14.5 35.5zM467 -164c11.333 0 23.665 1.66895 36.998 5.00195s25.5 8.66602 36.5 15.999
s20.167 16.333 27.5 27s11 23.667 11 39c0 17.333 -4.16699 33.166 -12.5 47.499s-19.333 27.333 -33 39s-29.167 21.834 -46.5 30.501s-35 16 -53 22c0.666992 2.66699 6.33398 19.334 17.001 50.001c2 7.33301 5.5 13.666 10.5 18.999s13.167 5.66602 24.5 0.999023
l40 -17.5c14 -6.33301 29 -12.5 45 -18.5s33.333 -11 52 -15s39 -6 61 -6h54v-75h-103c4 -6 7.33301 -12.833 10 -20.5s5.16699 -16.834 7.5 -27.501s3.5 -23.667 3.5 -39c0 -11.333 -2.83301 -25.666 -8.5 -42.999s-16.167 -34 -31.5 -50s-36.166 -29.667 -62.499 -41
s-59.833 -17 -100.5 -17h-149c-32 0 -62.833 3.83301 -92.5 11.5s-55.667 20.667 -78 39s-40.166 43 -53.499 74s-20 69.833 -20 116.5c0 15.333 1.16699 31.333 3.5 48s5.16602 33 8.49902 49s7.16602 31 11.499 45l11.5 38l44 -11c6.66699 -2 11.167 -5.16699 13.5 -9.5
s2.5 -10.833 0.5 -19.5l-12 -53.5c-5.33301 -24.333 -8 -53.166 -8 -86.499c0 -36.667 6 -66 18 -88s27.333 -38.833 46 -50.5s39.334 -19.334 62.001 -23.001s44.667 -5.5 66 -5.5h142z" />
    <glyph glyph-name=".notdef" horiz-adv-x="500" 
d="M62 0v562h375v-562h-375zM125 62h250v438h-250v-438z" />
    <glyph glyph-name="space" unicode=" " horiz-adv-x="256" 
 />
    <glyph glyph-name="space" unicode="&#xa0;" horiz-adv-x="256" 
 />
    <glyph glyph-name="exclam" unicode="!" horiz-adv-x="219" 
d="M153 175c0 -8 -2.33301 -14.667 -7 -20s-10.667 -8 -18 -8h-53v434c0 8 2.5 14.667 7.5 20s11.167 8 18.5 8h52v-434zM62 51c0 14 4.83301 25.833 14.5 35.5s21.5 14.5 35.5 14.5s25.833 -4.83301 35.5 -14.5s14.5 -21.5 14.5 -35.5
c0 -14.667 -4.83301 -26.834 -14.5 -36.501s-21.5 -14.5 -35.5 -14.5s-25.833 4.83301 -35.5 14.5s-14.5 21.834 -14.5 36.501z" />
    <glyph glyph-name="quotedbl" unicode="&#x22;" horiz-adv-x="305" 
d="M233 440c0.666992 -9.33301 -2.16992 -17 -8.50293 -23s-13.166 -9 -20.499 -9h-29c-1.33301 34 -2.66602 66.167 -3.99902 96.5s-2.66602 62.5 -3.99902 96.5c0 9.33301 2.83301 17 8.5 23s13.167 9 22.5 9h43zM113.996 440
c0.666992 -9.33301 -2.16992 -17 -8.50293 -23s-13.166 -9 -20.499 -9h-29c-1.33301 34 -2.66602 66.167 -3.99902 96.5s-2.66602 62.5 -3.99902 96.5c0 9.33301 2.83301 17 8.5 23s13.167 9 22.5 9h43z" />
    <glyph glyph-name="numbersign" unicode="#" horiz-adv-x="595" 
d="M327 0c-8 0 -14.5 2.5 -19.5 7.5s-6.5 13.5 -4.5 25.5l32 153h-140l-22.5 -105c-7 -32 -13.167 -59 -18.5 -81h-37c-8 0 -14.5 2.5 -19.5 7.5s-6.5 13.5 -4.5 25.5l32 153h-44c-8 -0.666992 -14.667 1.5 -20 6.5s-8 10.833 -8 17.5v37h85l40 186h-46
c-8 -0.666992 -14.667 1.5 -20 6.5s-8 10.833 -8 17.5v37h87l41 186h37c8 0 14.5 -2.5 19.5 -7.5s6.5 -13.5 4.5 -25.5c-1.33301 -3.33301 -4.83301 -19 -10.5 -47l-22.5 -106h141l41 186h37c8 0 14.5 -2.5 19.5 -7.5s6.5 -13.5 4.5 -25.5
c-1.33301 -3.33301 -4.83301 -19 -10.5 -47l-22.5 -106h45c8 0 14.5 -2.33301 19.5 -7s7.5 -11 7.5 -19v-35h-84l-40 -186h46c8 0 14.5 -2.33301 19.5 -7s7.5 -11 7.5 -19v-35h-86l-22.5 -105c-7 -32 -13.167 -59 -18.5 -81h-37zM208 247h140l40 186h-140z" />
    <glyph glyph-name="dollar" unicode="$" horiz-adv-x="590" 
d="M256 778l60.998 -0.00195312v-143c22.667 -2 43.334 -4.83301 62.001 -8.5s34.667 -7.5 48 -11.5c16 -4.66699 30 -9.33398 42 -14.001v-36c0 -7.33301 -1.5 -12.833 -4.5 -16.5s-10.167 -4.83398 -21.5 -3.50098c-5.33301 1.33301 -13.5 3.5 -24.5 6.5
s-23.833 6.16699 -38.5 9.5s-30.667 6.33301 -48 9s-35 4 -53 4c-31.333 0 -56.166 -2.33301 -74.499 -7s-32.333 -11.334 -42 -20.001s-16 -19.167 -19 -31.5s-4.5 -25.833 -4.5 -40.5c0 -22 4.66699 -39.167 14 -51.5s21.166 -21.5 35.499 -27.5
s29.833 -10.167 46.5 -12.5s31 -4.16602 43 -5.49902s25 -2.66602 39 -3.99902s29 -3.83301 45 -7.5s32 -8.83398 48 -15.501s30.5 -16.167 43.5 -28.5s23.667 -27.666 32 -45.999s12.5 -40.5 12.5 -66.5c0 -23.333 -2.83301 -45.166 -8.5 -65.499s-15.667 -38.5 -30 -54.5
s-33.5 -29.167 -57.5 -39.5s-54.333 -16.833 -91 -19.5v-129h-61v128c-14.667 0.666992 -30 2 -46 4s-31.667 4.5 -47 7.5s-29.666 6.16699 -42.999 9.5s-25 7 -35 11v49c0 6 1.66699 10.167 5 12.5s7.66602 2.5 12.999 0.5c10.667 -4 31 -9.66699 61 -17s65 -11 105 -11
c58.667 0 100.334 9.16699 125.001 27.5s37 45.833 37 82.5c0 26.667 -6.66699 47.167 -20 61.5s-29.5 25 -48.5 32s-38.5 11.5 -58.5 13.5l-54.5 5.5c-16.333 1.66699 -35 4.83398 -56 9.50098s-40.167 12.334 -57.5 23.001s-31.833 25.5 -43.5 44.5
s-17.5 44.167 -17.5 75.5c0 30.667 5 56.5 15 77.5s23.5 37.667 40.5 50s36.833 21.333 59.5 27s46.667 9.16699 72 10.5v142z" />
    <glyph glyph-name="percent" unicode="%" horiz-adv-x="568" 
d="M430 625c-2.66699 -4 -18.666 -29.502 -47.999 -76.502l-319 -508.5l44 -27c4 -2.66699 7.83301 -4.33398 11.5 -5.00098s7.83398 -0.166992 12.501 1.5s9 5.83398 13 12.501c2 2.66699 125.667 200 371 592l-35 22c-6 3.33301 -11.833 5.33301 -17.5 6
s-11.334 -0.166016 -17.001 -2.49902s-10.834 -7.16602 -15.501 -14.499zM423.001 21.998c-20.667 0 -37.5 2.66699 -50.5 8s-23.333 13 -31 23s-12.834 22 -15.501 36s-4 29.333 -4 46s1.33301 32 4 46s7.83398 26 15.501 36s18 17.833 31 23.5s29.833 8.5 50.5 8.5
s37.5 -2.83301 50.5 -8.5s23.167 -13.5 30.5 -23.5s12.5 -22 15.5 -36s4.5 -29.333 4.5 -46s-1.5 -32 -4.5 -46s-8.16699 -26 -15.5 -36s-17.5 -17.667 -30.5 -23s-29.833 -8 -50.5 -8zM423.001 198.998c-23.333 0 -37.5 -6.00098 -42.5 -18.001s-7.5 -27.333 -7.5 -46
c0 -9.33301 0.333008 -17.833 1 -25.5s2.66699 -14.167 6 -19.5s8.33301 -9.66602 15 -12.999s16 -5 28 -5s21.167 1.66699 27.5 5s11.166 7.66602 14.499 12.999s5.33301 11.833 6 19.5s1 16.167 1 25.5s-0.333008 17.833 -1 25.5s-2.66699 14.334 -6 20.001
s-8.16602 10.167 -14.499 13.5s-15.5 5 -27.5 5zM151.001 440.997c-20.667 0 -37.5 2.66699 -50.5 8s-23.333 13 -31 23s-13 22 -16 36s-4.5 29.333 -4.5 46s1.5 32 4.5 46s8.33301 26 16 36s18 17.667 31 23s29.833 8 50.5 8s37.5 -2.66699 50.5 -8s23.333 -13 31 -23
s12.834 -22 15.501 -36s4 -29.333 4 -46s-1.33301 -32 -4 -46s-7.83398 -26 -15.501 -36s-18 -17.667 -31 -23s-29.833 -8 -50.5 -8zM151.001 617.997c-23.333 0 -37.5 -6 -42.5 -18s-7.5 -27.333 -7.5 -46c0 -9.33301 0.333008 -17.833 1 -25.5s2.66699 -14.167 6 -19.5
s8.33301 -9.66602 15 -12.999s16 -5 28 -5c11.333 0 20.333 1.66699 27 5s11.667 7.66602 15 12.999s5.5 11.833 6.5 19.5s1.5 16.167 1.5 25.5c0 18.667 -2.66699 34 -8 46s-19.333 18 -42 18z" />
    <glyph glyph-name="ampersand" unicode="&#x26;" horiz-adv-x="633" 
d="M562 349c-2 -21.333 -5.3291 -43.002 -9.99609 -65.002s-10.167 -43.167 -16.5 -63.5s-13.333 -39.333 -21 -57s-15.5 -32.834 -23.5 -45.501l54.5 -60.5c13.667 -15 21.5 -23.5 23.5 -25.5c6 -6.66699 9 -12 9 -16s-1 -7.16699 -3 -9.5s-4.5 -4 -7.5 -5
s-4.83301 -1.5 -5.5 -1.5h-62l-27 30.5l-32 36.5c-18 -20.667 -42.833 -39 -74.5 -55s-71.167 -24 -118.5 -24c-70 0 -122 16.333 -156 49s-51 79.334 -51 140.001c0 26 3.66699 48.667 11 68s17.166 36.5 29.499 51.5s26.5 28.333 42.5 40s32.667 22.5 50 32.5
c-9.33301 11.333 -18.833 24 -28.5 38s-18.334 28.333 -26.001 43s-14 29.667 -19 45s-7.5 30 -7.5 44c0 48 14.167 85.5 42.5 112.5s72.833 40.5 133.5 40.5c39.333 0 71.666 -3.5 96.999 -10.5s43.333 -13.167 54 -18.5v-37c0 -6.66699 -1 -11.167 -3 -13.5
s-4.33301 -3.66602 -7 -3.99902s-5.66699 0.166992 -9 1.5s-6 2.33301 -8 3c-16 6 -34 11.333 -54 16s-40.667 7 -62 7c-19.333 0 -35.833 -2.5 -49.5 -7.5s-24.834 -11.833 -33.501 -20.5s-15 -19 -19 -31s-6 -24.667 -6 -38c0 -10 2.33301 -21.333 7 -34
s10.5 -25.5 17.5 -38.5s14.5 -25.167 22.5 -36.5s15.667 -20.666 23 -27.999l206 -235c14 31.333 25.667 65 35 101s14 73.667 14 113h42c9.33301 0 16 -3 20 -9s6 -13.667 6 -23zM216.004 324.998c-33.333 -18 -58.333 -38.167 -75 -60.5s-25 -50.5 -25 -84.5
c0 -41.333 11.833 -74.5 35.5 -99.5s56.5 -37.5 98.5 -37.5c35.333 0 65.5 6.83301 90.5 20.5s44.167 29.5 57.5 47.5z" />
    <glyph glyph-name="quotesingle" unicode="'" horiz-adv-x="172" 
d="M111 440c0.666992 -9.33301 -2.16992 -17 -8.50293 -23s-13.166 -9 -20.499 -9h-29c-1.33301 34 -2.66602 66.167 -3.99902 96.5s-2.66602 62.5 -3.99902 96.5c0 9.33301 2.83301 17 8.5 23s13.167 9 22.5 9h43z" />
    <glyph glyph-name="parenleft" unicode="(" horiz-adv-x="300" 
d="M237 662l-36.998 -71.998c-11.333 -22.667 -21.333 -46.167 -30 -70.5s-15.5 -50.833 -20.5 -79.5s-7.5 -61.334 -7.5 -98.001c0 -32 3 -63.167 9 -93.5s13.667 -59.333 23 -87s19.666 -53.334 30.999 -77.001s22.333 -44.834 33 -63.501
c3.33301 -5.33301 3 -10.166 -1 -14.499s-9.33301 -6.5 -16 -6.5h-49c-0.666992 0 -6.66699 9.5 -18 28.5s-23.666 44 -36.999 75s-25.5 66.667 -36.5 107s-16.5 81.5 -16.5 123.5c0 50.667 5.66699 97.167 17 139.5s23.666 78.833 36.999 109.5s25.833 54.667 37.5 72
l17.5 26h51c5.33301 0 9.66602 -1.66699 12.999 -5s3.33301 -8 0 -14z" />
    <glyph glyph-name="parenright" unicode=")" horiz-adv-x="300" 
d="M64 662c-3.33301 6 -3.3291 10.666 0.00390625 13.999s7.66602 5 12.999 5h51c23.333 -34.667 41.666 -67.334 54.999 -98.001s25.666 -67.167 36.999 -109.5s17 -88.833 17 -139.5c0 -42 -5.5 -83.167 -16.5 -123.5s-23.167 -76 -36.5 -107
s-31.666 -65.5 -54.999 -103.5h-49c-6.66699 0 -12 2.16699 -16 6.5s-4.33301 9.16602 -1 14.499c10.667 18.667 21.667 39.834 33 63.501s21.666 49.334 30.999 77.001s17 56.667 23 87s9 61.5 9 93.5c0 36.667 -2.5 69.334 -7.5 98.001s-11.833 55.167 -20.5 79.5
s-18.834 47.833 -30.501 70.5z" />
    <glyph glyph-name="asterisk" unicode="*" horiz-adv-x="377" 
d="M95 643c-4.66699 6.66699 -6.1709 13.6689 -4.50391 21.002s5.16699 12.666 10.5 15.999l24 15l63 -101l49 78c10 15.333 22.333 18.333 37 9l23 -14l-61 -97h88c8 0 14.5 -2.33301 19.5 -7s7.5 -11 7.5 -19v-27h-115l47 -75
c4.66699 -6.66699 6.33398 -13.334 5.00098 -20.001s-5.66602 -12 -12.999 -16l-22 -15l-65 103l-49 -79c-3.33301 -7.33301 -8.66602 -11.833 -15.999 -13.5s-13.666 -0.833984 -18.999 2.49902l-25 16l61 97h-86c-8 0 -14.667 2.33301 -20 7s-8 10.334 -8 17.001v29h115z
" />
    <glyph glyph-name="plus" unicode="+" horiz-adv-x="375" 
d="M150 368c0 8 2.16699 14.499 6.5 19.499s10.5 7.5 18.5 7.5h52v-106h79c8 0 14.5 -2.33301 19.5 -7s7.5 -11 7.5 -19v-51h-106v-78c0 -8.66699 -2.33301 -15.5 -7 -20.5s-10.667 -7.5 -18 -7.5h-52v106h-79c-8 0 -14.667 2.33301 -20 7s-8 10.334 -8 17.001v53h107v79z
" />
    <glyph glyph-name="comma" unicode="," horiz-adv-x="199" 
d="M97 104c17.333 0 31.667 -5.99902 43 -17.999s17 -27.333 17 -46c0 -12.667 -2 -25.5 -6 -38.5s-8.83301 -25.5 -14.5 -37.5s-11.334 -23.167 -17.001 -33.5s-10.167 -18.833 -13.5 -25.5l-39 13c-13.333 5.33301 -16.666 16 -9.99902 32l18 41
c-10.667 4.66699 -19.5 11.667 -26.5 21s-10.5 20.666 -10.5 33.999c0 16.667 5.66699 30.5 17 41.5s25.333 16.5 42 16.5z" />
    <glyph glyph-name="hyphen" unicode="-" horiz-adv-x="373" 
d="M68 212c-8 0 -14.667 2.33203 -20 6.99902s-8 10.334 -8 17.001v53h262c8 0 14.5 -2.33301 19.5 -7s7.5 -11 7.5 -19v-51h-261z" />
    <glyph glyph-name="period" unicode="." horiz-adv-x="184" 
d="M47 51c0 14 4.83301 25.833 14.5 35.5s21.5 14.5 35.5 14.5c14.667 0 26.834 -4.83301 36.501 -14.5s14.5 -21.5 14.5 -35.5c0 -14.667 -4.83301 -26.834 -14.5 -36.501s-21.834 -14.5 -36.501 -14.5c-14 0 -25.833 4.83301 -35.5 14.5s-14.5 21.834 -14.5 36.501z" />
    <glyph glyph-name="slash" unicode="/" horiz-adv-x="395" 
d="M109 -61l-62 0.000976562c-8 0 -14.333 2.66699 -19 8s-4.66699 13.666 0 24.999l256 692h62c8 0 14 -2.5 18 -7.5s4.33301 -13.5 1 -25.5z" />
    <glyph glyph-name="zero" unicode="0" horiz-adv-x="542" 
d="M273 -6c-50 0 -89.834 9.16699 -119.501 27.5s-52.5 43.166 -68.5 74.499s-26.333 68.166 -31 110.499s-7 87.166 -7 134.499s3.16699 91.166 9.5 131.499s18 75.166 35 104.499s40 52.333 69 69s66.5 25 112.5 25c48.667 0 87.834 -8.33301 117.501 -25
s52.5 -39.667 68.5 -69s26.667 -64.166 32 -104.499s8 -84.166 8 -131.499s-1.5 -92.166 -4.5 -134.499s-11.833 -79.166 -26.5 -110.499s-37.167 -56.166 -67.5 -74.499s-72.833 -27.5 -127.5 -27.5zM272.999 605c-32 0 -57.833 -5.66895 -77.5 -17.002
s-34.667 -28.166 -45 -50.499s-17.166 -50 -20.499 -83s-5 -70.833 -5 -113.5c0 -46.667 1.66699 -87.167 5 -121.5s10.166 -62.666 20.499 -84.999s25.333 -39 45 -50s45.5 -16.5 77.5 -16.5s57.833 5.16699 77.5 15.5s34.667 26.5 45 48.5s17.333 50.333 21 85
s5.5 76 5.5 124c0 42 -1.83301 79.5 -5.5 112.5s-10.667 60.667 -21 83s-25.333 39.333 -45 51s-45.5 17.5 -77.5 17.5z" />
    <glyph glyph-name="one" unicode="1" horiz-adv-x="309" 
d="M207 666c16 0 23.999 -9 23.999 -27v-616c0 -7.33301 -0.833008 -13 -2.5 -17s-7.16699 -6 -16.5 -6h-58v592h-85c-7.33301 0 -12.666 1.66699 -15.999 5s-5 10.333 -5 21v48h159v0z" />
    <glyph glyph-name="two" unicode="2" horiz-adv-x="513" 
d="M74 625c19.333 8 39.6689 15.6699 61.002 23.0029c18 5.33301 38.5 10.5 61.5 15.5s46.167 7.5 69.5 7.5c36 0 66.5 -3.83301 91.5 -11.5s45.333 -18.5 61 -32.5s27 -30.5 34 -49.5s10.5 -39.833 10.5 -62.5c0 -21.333 -4 -41.833 -12 -61.5s-19.5 -39.834 -34.5 -60.501
s-32.833 -42.334 -53.5 -65.001l-70 -75l-67.5 -74l-50.5 -56c-16.667 -18 -31 -34.333 -43 -49h325c6 0 11.167 -0.833008 15.5 -2.5s6.5 -7.16699 6.5 -16.5v-55h-367c-16.667 0 -30.334 4.16699 -41.001 12.5s-17.834 18.833 -21.501 31.5
s-3.83398 26.167 -0.500977 40.5s10.666 27.166 21.999 38.499l38 39.5l44.5 48l48 51.5l47.5 49c42 42.667 76.167 80 102.5 112s39.5 61.667 39.5 89c0 32 -9.66699 55.5 -29 70.5s-53 22.5 -101 22.5c-31.333 0 -58.666 -3.83301 -81.999 -11.5
s-42.666 -14.834 -57.999 -21.501c-8 -4 -13.667 -5.66699 -17 -5s-6.33301 4.33398 -9 11.001l-21 47v0z" />
    <glyph glyph-name="three" unicode="3" horiz-adv-x="484" 
d="M352 350c16 -4 29.8301 -9.66602 41.4971 -16.999s21.334 -17.166 29.001 -29.499s13.334 -27.833 17.001 -46.5s5.5 -41 5.5 -67c0 -26.667 -2.33301 -51.5 -7 -74.5s-14.5 -43 -29.5 -60s-36.667 -30.5 -65 -40.5s-65.833 -15 -112.5 -15
c-21.333 0 -43.333 1.83301 -66 5.5s-43.334 8.16699 -62.001 13.5c-22 6 -43 12.667 -63 20l18 54c2.66699 10.667 10.334 13.667 23.001 9c11.333 -4 30.5 -9.66699 57.5 -17s57.5 -11 91.5 -11c22 0 41.333 1.5 58 4.5s30.5 8.83301 41.5 17.5s19.333 20.667 25 36
s8.5 35.333 8.5 60c0 18.667 -1.33301 35.334 -4 50.001s-7.66699 27 -15 37s-18 17.5 -32 22.5s-32 7.5 -54 7.5h-137v55c0 8.66699 2.5 14.5 7.5 17.5s11.167 4.5 18.5 4.5h85c23.333 0 42.5 1.66699 57.5 5s27 9.5 36 18.5s15.333 21.167 19 36.5s5.5 34.666 5.5 57.999
c0 38.667 -11.333 65.167 -34 79.5s-52.667 21.5 -90 21.5c-27.333 0 -52.833 -3.33301 -76.5 -10l-61.5 -17c-8 -2 -13.833 -2.66699 -17.5 -2s-6.5 4.33398 -8.5 11.001l-11 51c16 6 33.333 11.333 52 16c16 4 34.5 7.83301 55.5 11.5s43.833 5.5 68.5 5.5
c44 0 79.333 -5 106 -15s47 -23 61 -39s23.333 -34.167 28 -54.5s7 -40.833 7 -61.5c0 -16 -1 -31.833 -3 -47.5s-5.66699 -30.334 -11 -44.001s-13.166 -25.834 -23.499 -36.501s-23.5 -18.334 -39.5 -23.001z" />
    <glyph glyph-name="four" unicode="4" horiz-adv-x="517" 
d="M463 244c10 0 16.6689 -2.33398 20.002 -7.00098s5 -10.334 5 -17.001v-50h-80v-156c-0.666992 -8.66699 -3.16699 -14.5 -7.5 -17.5s-9.83301 -4.5 -16.5 -4.5h-54v178h-242c-8 0 -17 2.5 -27 7.5s-18.333 12.333 -25 22s-10.334 22 -11.001 37
s3.66602 28.833 12.999 41.5l238 342c12.667 16.667 25.5 29.334 38.5 38.001s28.333 11.834 46 9.50098s30 -9 37 -20s10.5 -25.167 10.5 -42.5v-361h55zM330.002 580.999l-229 -338h229v338z" />
    <glyph glyph-name="five" unicode="5" horiz-adv-x="501" 
d="M448 618c0 -6.66699 -1 -12.334 -3 -17.001s-8 -7 -18 -7h-237l-55 -206h129c32 0 60 -3 84 -9s44 -16.333 60 -31s28 -34.167 36 -58.5s12 -54.5 12 -90.5c0 -34 -5 -64 -15 -90s-24.167 -47.667 -42.5 -65s-40.166 -30.333 -65.499 -39s-53 -13 -83 -13
c-27.333 0 -52.666 2.33301 -75.999 7s-43.666 10 -60.999 16c-20.667 7.33301 -39.334 15.333 -56.001 24l19 54c2 6.66699 5.33301 10 10 10s9.33398 -1 14.001 -3c2.66699 -1.33301 8.16699 -3.66602 16.5 -6.99902s18.833 -6.83301 31.5 -10.5s26.834 -7 42.501 -10
s32.167 -4.5 49.5 -4.5c33.333 0 59.5 4 78.5 12s33.167 18.333 42.5 31s15.166 26.667 17.499 42s3.5 30.666 3.5 45.999c0 22.667 -2.66699 41.667 -8 57s-13 27.5 -23 36.5s-21.833 15.333 -35.5 19s-28.5 5.5 -44.5 5.5h-160c-24 0 -39.833 6.66699 -47.5 20
s-10.167 27.333 -7.5 42l60 222c4 16.667 9.66699 29.334 17 38.001s15.166 15 23.499 19s16.666 6.33301 24.999 7s16.166 1 23.499 1h243v-48z" />
    <glyph glyph-name="six" unicode="6" horiz-adv-x="517" 
d="M276 403c26 0 51.1729 -1.83008 75.5059 -5.49707s45.833 -12.334 64.5 -26.001s33.667 -33.834 45 -60.501s17 -62.667 17 -108c0 -30 -3.83301 -58 -11.5 -84s-19.834 -48.333 -36.501 -67s-38.334 -33.334 -65.001 -44.001s-59 -16 -97 -16
c-40.667 0 -74.834 6.83301 -102.501 20.5s-49.834 31.334 -66.501 53.001s-28.5 46.167 -35.5 73.5s-10.5 55 -10.5 83v226c0 42 7.5 77.333 22.5 106s34.667 51.667 59 69s51.666 29.666 81.999 36.999s60.833 11 91.5 11c19.333 0 36.666 -1 51.999 -3
s28.5 -4.33301 39.5 -7s20.5 -5.66699 28.5 -9c-8.66699 -26 -13.667 -41.667 -15 -47c-4 -10.667 -12.333 -14 -25 -10c-5.33301 1.33301 -15.5 3 -30.5 5s-32.167 3.66699 -51.5 5c-57.333 0 -101 -12.667 -131 -38s-45 -61 -45 -107v-90
c15.333 6 30.833 11.167 46.5 15.5s32.167 8.33301 49.5 12s34 5.5 50 5.5zM268.006 67.0029c31.333 0 56.167 3.99902 74.5 11.999s32 18.5 41 31.5s14.667 27.667 17 44s3.5 32.5 3.5 48.5c0 20.667 -2 39.167 -6 55.5s-10.833 29.833 -20.5 40.5
s-22.667 18.834 -39 24.501s-37.166 8.5 -62.499 8.5c-22 0 -42 -1.5 -60 -4.5s-33.833 -6.33301 -47.5 -10s-26.167 -7.83398 -37.5 -12.501v-79c0 -27.333 2 -50.833 6 -70.5s11.333 -36.167 22 -49.5s24.667 -23.166 42 -29.499s39.666 -9.5 66.999 -9.5z" />
    <glyph glyph-name="seven" unicode="7" horiz-adv-x="457" 
d="M351 666c40 0 64.668 -10.5 74.001 -31.5s6.33301 -51.5 -9 -91.5l-258 -543h-63c-7.33301 0 -11.833 2.5 -13.5 7.5s-1.83398 10.167 -0.500977 15.5c0.666992 0.666992 92 190.334 274 569.001h-308c-10.667 0 -17.167 1.66699 -19.5 5s-3.5 9.66602 -3.5 18.999v50
h327z" />
    <glyph glyph-name="eight" unicode="8" horiz-adv-x="520" 
d="M386 357c21.333 -8.66699 38.832 -19.334 52.499 -32.001s24.5 -26.5 32.5 -41.5s13.5 -31 16.5 -48s4.5 -34.167 4.5 -51.5c0 -25.333 -4.33301 -49.5 -13 -72.5s-22.167 -43.333 -40.5 -61s-42.333 -31.834 -72 -42.501s-65.5 -16 -107.5 -16
c-37.333 0 -70.166 4.83301 -98.499 14.5s-52 23.167 -71 40.5s-33.333 37.833 -43 61.5s-14.5 49.834 -14.5 78.501c0 40 9.66699 74.667 29 104s49 51.333 89 66c-14.667 7.33301 -28 17.333 -40 30c-10 11.333 -19.167 26 -27.5 44s-12.5 40.667 -12.5 68
c0 31.333 5 58 15 80s23.667 39.833 41 53.5s37.666 23.5 60.999 29.5s48.333 9 75 9c62.667 0 111 -14 145 -42s51 -69.667 51 -125c0 -28 -5.66699 -55.167 -17 -81.5s-29.666 -48.166 -54.999 -65.499zM261.999 602c-40 0 -69.667 -8.33496 -89 -25.002s-29 -40 -29 -70
c0 -25.333 5.83301 -46.166 17.5 -62.499s24.834 -29.166 39.501 -38.499c17.333 -11.333 36.666 -20 57.999 -26c22.667 4 42.667 11.333 60 22c15.333 9.33301 29.333 22.333 42 39s19 39 19 67c0 30 -9.16699 53.167 -27.5 69.5s-48.5 24.5 -90.5 24.5zM258.999 66.998
c22 0 42.332 2.5 60.999 7.5s34.834 12.833 48.501 23.5s24.5 24 32.5 40s12 34.667 12 56c0 34 -13.667 62.333 -41 85s-65 38 -113 46c-16.667 -4.66699 -33.667 -10.5 -51 -17.5s-33 -15.5 -47 -25.5s-25.333 -22.167 -34 -36.5s-13 -31.5 -13 -51.5
c0 -24.667 4.83301 -45.167 14.5 -61.5s21.667 -29.333 36 -39s30 -16.5 47 -20.5s32.833 -6 47.5 -6z" />
    <glyph glyph-name="nine" unicode="9" horiz-adv-x="491" 
d="M246 245c-27.333 0 -53.4941 3.1748 -78.4941 9.50781s-47.167 17 -66.5 32s-34.833 35.333 -46.5 61s-17.5 58.167 -17.5 97.5c0 35.333 5 67 15 95s24 51.667 42 71s39.167 34.166 63.5 44.499s51.166 15.5 80.499 15.5c48 0 86 -6.66699 114 -20s49.333 -33 64 -59
s24.167 -58.333 28.5 -97s6.5 -83.334 6.5 -134.001v-73.5c0 -27 -1 -54.167 -3 -81.5s-7 -53.833 -15 -79.5s-20.667 -48.5 -38 -68.5s-40.333 -36 -69 -48s-65 -18 -109 -18c-15.333 0 -30.666 1.16699 -45.999 3.5s-29.5 5.16602 -42.5 8.49902
s-25.833 7.66602 -38.5 12.999c1.33301 5.33301 3.16602 13.5 5.49902 24.5s4.16602 19.167 5.49902 24.5c2.66699 9.33301 6.5 14.666 11.5 15.999s10.5 1.33301 16.5 0l13.5 -3.5c6.33301 -1.66699 13.666 -3.33398 21.999 -5.00098s17.333 -3.16699 27 -4.5
s19.167 -2 28.5 -2c28.667 0 52 3.33301 70 10s32.5 15.167 43.5 25.5s19.333 21.666 25 33.999s10.167 24.166 13.5 35.499s5.66602 23.333 6.99902 36s2.16602 25 2.49902 37s0.166016 24.333 -0.500977 37c-10 -7.33301 -21.167 -13.5 -33.5 -18.5
s-26.833 -9.33301 -43.5 -13s-36 -5.5 -58 -5.5zM242.006 605.008c-46 0 -78.832 -12.665 -98.499 -37.998s-29.5 -62 -29.5 -110c0 -16 0.833008 -32.5 2.5 -49.5s6.83398 -32.333 15.501 -46s21.667 -24.834 39 -33.501s41.666 -13 72.999 -13
c21.333 0 40.333 1.66699 57 5s31 7.16602 43 11.499s23 9.5 33 15.5v117c0 18 -2 35.333 -6 52s-11 31.667 -21 45s-23.833 24 -41.5 32s-39.834 12 -66.501 12z" />
    <glyph glyph-name="colon" unicode=":" horiz-adv-x="194" 
d="M49 51c0 14 4.83301 25.833 14.5 35.5s21.5 14.5 35.5 14.5c14.667 0 26.834 -4.83301 36.501 -14.5s14.5 -21.5 14.5 -35.5c0 -14.667 -4.83301 -26.834 -14.5 -36.501s-21.834 -14.5 -36.501 -14.5c-14 0 -25.833 4.83301 -35.5 14.5s-14.5 21.834 -14.5 36.501z
M49 386c0 14 4.83301 25.833 14.5 35.5s21.5 14.5 35.5 14.5c14.667 0 26.834 -4.83301 36.501 -14.5s14.5 -21.5 14.5 -35.5s-4.83301 -25.833 -14.5 -35.5s-21.834 -14.5 -36.501 -14.5c-14 0 -25.833 4.83301 -35.5 14.5s-14.5 21.5 -14.5 35.5z" />
    <glyph glyph-name="semicolon" unicode=";" horiz-adv-x="184" 
d="M142 62c4 -12 5.16797 -24.666 3.50098 -37.999s-4.5 -26.833 -8.5 -40.5s-9 -27.167 -15 -40.5s-12 -26 -18 -38l-36 11c-6.66699 2.66699 -11 6.16699 -13 10.5s-1.33301 11.5 2 21.5c3.33301 9.33301 6 17.166 8 23.499s4.66699 15.833 8 28.5
c-9.33301 4.66699 -16.5 11 -21.5 19s-7.5 17 -7.5 27c0 14 4.83301 25.833 14.5 35.5s21.5 14.5 35.5 14.5c12 0 22.167 -3.16699 30.5 -9.5s14.166 -14.5 17.499 -24.5zM44.001 386.001c0 14 4.83301 25.833 14.5 35.5s21.5 14.5 35.5 14.5
c14.667 0 26.834 -4.83301 36.501 -14.5s14.5 -21.5 14.5 -35.5s-4.83301 -25.833 -14.5 -35.5s-21.834 -14.5 -36.501 -14.5c-14 0 -25.833 4.83301 -35.5 14.5s-14.5 21.5 -14.5 35.5z" />
    <glyph glyph-name="less" unicode="&#x3c;" horiz-adv-x="595" 
d="M49 215v81l480 216v-80l-392 -175l392 -177v-80z" />
    <glyph glyph-name="equal" unicode="=" horiz-adv-x="409" 
d="M87 145c-8 0 -14.5 2.33203 -19.5 6.99902s-7.5 10.334 -7.5 17.001v53h263c8 0 14.5 -2.33301 19.5 -7s7.5 -11 7.5 -19v-51h-263zM87 277.999c-8 0 -14.5 2.33203 -19.5 6.99902s-7.5 10.334 -7.5 17.001v53h263c8 0 14.5 -2.33301 19.5 -7s7.5 -11 7.5 -19v-51h-263z
" />
    <glyph glyph-name="greater" unicode="&#x3e;" horiz-adv-x="595" 
d="M49 0v80l392 177l-392 175v80l480 -216v-81z" />
    <glyph glyph-name="question" unicode="?" horiz-adv-x="435" 
d="M196 51c0 14 -4.83301 25.833 -14.5 35.5s-21.5 14.5 -35.5 14.5s-25.833 -4.83301 -35.5 -14.5s-14.5 -21.5 -14.5 -35.5c0 -14.667 4.83301 -26.834 14.5 -36.501s21.5 -14.5 35.5 -14.5s25.833 4.83301 35.5 14.5s14.5 21.834 14.5 36.501zM107 305
c0 8 2.33594 14.6709 7.00293 20.0039s10.667 8 18 8h68c44 0 74.833 7.83301 92.5 23.5s26.5 40.5 26.5 74.5c0 40.667 -8.33301 69.667 -25 87s-41.334 26 -74.001 26c-33.333 0 -61.666 -2.66699 -84.999 -8c-11.333 -2 -19.333 -1.66699 -24 1
s-8.33398 7.66699 -11.001 15c-1.33301 3.33301 -6.33301 19.333 -15 48c12.667 4.66699 26.667 8.66699 42 12c13.333 3.33301 28.5 6.16602 45.5 8.49902s35.167 3.5 54.5 3.5c23.333 0 45.166 -4.33301 65.499 -13s37.833 -21.334 52.5 -38.001
s26.167 -36.834 34.5 -60.501s12.5 -50.834 12.5 -81.501c0 -28 -3.5 -53.167 -10.5 -75.5s-18.5 -41 -34.5 -56s-37.333 -25.5 -64 -31.5s-59.334 -9 -98.001 -9v-112h-53c-7.33301 0 -13.333 2.66699 -18 8s-7 12 -7 20v130z" />
    <glyph glyph-name="at" unicode="@" horiz-adv-x="943" 
d="M882 334c0 -51.333 -5.66992 -97.5 -17.0029 -138.5s-26.5 -76 -45.5 -105s-41.167 -51.333 -66.5 -67s-52.333 -23.5 -81 -23.5c-20 0 -34.333 4.16699 -43 12.5s-15.667 16.5 -21 24.5c-13.333 -9.33301 -34 -17.833 -62 -25.5s-62 -11.5 -102 -11.5
c-37.333 0 -68.833 5.16699 -94.5 15.5s-46.667 24.5 -63 42.5s-28.166 39 -35.499 63s-11 49.667 -11 77c0 33.333 4.83301 66.833 14.5 100.5s25 64.167 46 91.5s47.833 49.666 80.5 66.999s72 26 118 26c20 0 39.333 -1.5 58 -4.5s36 -6.5 52 -10.5
s30.333 -8.16699 43 -12.5l31 -10.5l-37 -350v-4c0 -9.33301 4 -17.833 12 -25.5s17 -11.5 27 -11.5c18 0 35.333 7.33301 52 22s31.334 34.5 44.001 59.5s22.834 54.5 30.501 88.5s11.5 70.333 11.5 109c0 45.333 -8 86.833 -24 124.5s-38 70.167 -66 97.5
s-61.333 48.5 -100 63.5s-80.667 22.5 -126 22.5c-59.333 0 -112.833 -10.833 -160.5 -32.5s-88.167 -51.167 -121.5 -88.5s-59.166 -81 -77.499 -131s-27.5 -103.333 -27.5 -160c0 -62 8.66699 -117.833 26 -167.5s41.833 -91.667 73.5 -126s70.167 -60.833 115.5 -79.5
s96 -28 152 -28c26 0 53.833 2 83.5 6s58.5 9.5 86.5 16.5s54 15.167 78 24.5s43.667 19 59 29v-63c-12.667 -7.33301 -29.5 -14.833 -50.5 -22.5s-45 -14.5 -72 -20.5s-56.333 -11 -88 -15s-63.834 -6 -96.501 -6c-75.333 0 -139.833 12.5 -193.5 37.5
s-97.834 58.5 -132.501 100.5s-60 90.167 -76 144.5s-24 110.833 -24 169.5c0 67.333 10.833 129.333 32.5 186s52.167 105.5 91.5 146.5s86.333 73 141 96s115 34.5 181 34.5c61.333 0 115.333 -9.66699 162 -29s85.834 -45.5 117.501 -78.5s55.5 -71.167 71.5 -114.5
s24 -88.666 24 -135.999zM610.997 407c-9.33301 3.33301 -24.167 8 -44.5 14s-42.166 9 -65.499 9c-32 0 -59.667 -7.5 -83 -22.5s-42.833 -33.833 -58.5 -56.5s-27.334 -47.5 -35.001 -74.5s-11.5 -52.833 -11.5 -77.5c0 -42 12.333 -76.667 37 -104s61 -41 109 -41
c9.33301 0 20 0.5 32 1.5s23.5 2.5 34.5 4.5s21.167 4.5 30.5 7.5s16.333 6.16699 21 9.5z" />
    <glyph glyph-name="A" unicode="A" horiz-adv-x="629" 
d="M595 22c2 -5.33301 2 -10.333 0 -15s-7.66699 -7 -17 -7h-61l-61 170h-279l-61 -170h-64c-9.33301 -0 -14.5 2.33301 -15.5 7s-0.5 9.66699 1.5 15l230 610c3.33301 10 6.66602 18 9.99902 24s8.33301 11.167 15 15.5s14.334 6.5 23.001 6.5s16.167 -2.16699 22.5 -6.5
s11.5 -9.5 15.5 -15.5s7.66699 -14 11 -24zM428 246l-112 320l-112 -320h224z" />
    <glyph glyph-name="B" unicode="B" horiz-adv-x="585" 
d="M398 352c23.333 -6.66699 43.167 -15.835 59.5 -27.502s29.5 -24.667 39.5 -39s17.167 -29.666 21.5 -45.999s6.5 -32.5 6.5 -48.5c0 -19.333 -2.33301 -40.166 -7 -62.499s-14.167 -43 -28.5 -62s-34.333 -34.833 -60 -47.5s-59.167 -19 -100.5 -19h-200
c-22 0 -40 5.66699 -54 17s-21 31 -21 59v558c16 8 39.667 17.333 71 28s71.333 16 120 16c32 0 62 -3.66699 90 -11s51.833 -18.5 71.5 -33.5s35.167 -34 46.5 -57s17 -49.833 17 -80.5c0 -10 -1.33301 -21.167 -4 -33.5s-6.66699 -25 -12 -38s-12.5 -25.833 -21.5 -38.5
s-20.5 -24 -34.5 -34zM129.001 380.999l124 -0.00195312c24.667 0 45.667 3.16699 63 9.5s31.5 14.833 42.5 25.5s19.167 22.834 24.5 36.501s8 27.834 8 42.501c0 34 -11 61.5 -33 82.5s-57.333 31.5 -106 31.5c-18 0 -34.333 -1 -49 -3s-27.667 -4 -39 -6l-35 -8v-211z
M320.001 74.9971c28 0 50.165 3.66797 66.498 11.001s28.833 16.666 37.5 27.999s14.334 23.5 17.001 36.5s4 25.5 4 37.5c0 14.667 -2.66699 29 -8 43s-13.666 26.5 -24.999 37.5s-26 19.833 -44 26.5s-39.667 10 -65 10h-174v-230h191z" />
    <glyph glyph-name="C" unicode="C" horiz-adv-x="566" 
d="M329 601c-34 0 -63.001 -6.66602 -87.001 -19.999s-44 -31 -60 -53s-27.667 -48.667 -35 -80s-11 -66.666 -11 -105.999c0 -89.333 17.167 -157.5 51.5 -204.5s88.833 -70.5 163.5 -70.5c22.667 0 41.834 1.16699 57.501 3.5s29.167 5.16602 40.5 8.49902
s21.333 6.83301 30 10.5s17.667 6.5 27 8.5c14 3.33301 21 -2.33398 21 -17.001v-53c-12 -7.33301 -26.667 -13.666 -44 -18.999c-15.333 -4.66699 -34.5 -8.83398 -57.5 -12.501s-51.5 -5.5 -85.5 -5.5c-54.667 0 -99.667 8.83301 -135 26.5s-64.166 42.334 -86.499 74.001
s-37.833 68.167 -46.5 109.5s-13 85.666 -13 132.999c0 46 4.33301 89.667 13 131s24.167 77.833 46.5 109.5s51.166 56.334 86.499 74.001s80.333 26.5 135 26.5c32 0 59.667 -1.83301 83 -5.5s43.333 -7.83398 60 -12.501s31.334 -10 44.001 -16v-61
c0 -12.667 -6.33301 -17 -19 -13c-15.333 5.33301 -36.833 12.333 -64.5 21s-65.834 13 -114.501 13z" />
    <glyph glyph-name="D" unicode="D" horiz-adv-x="619" 
d="M276 666c58.667 0 106.667 -8 144 -24s66.5 -38.5 87.5 -67.5s35.333 -64 43 -105s11.5 -86.167 11.5 -135.5c0 -58.667 -5 -109.167 -15 -151.5s-26.333 -77 -49 -104s-52.167 -46.833 -88.5 -59.5s-80.833 -19 -133.5 -19h-144c-15.333 0 -27.833 2.16699 -37.5 6.5
s-17.167 10.166 -22.5 17.499s-9 15.333 -11 24s-3 17.667 -3 27v518c0 14.667 2 26.834 6 36.501s9.5 17.167 16.5 22.5s15 9 24 11s18.167 3 27.5 3h144zM280 75c42.667 0 77.167 6.49902 103.5 19.499s46.833 31 61.5 54s24.5 50.333 29.5 82s7.5 66.167 7.5 103.5
c0 36.667 -2.5 70.834 -7.5 102.501s-14.833 59 -29.5 82s-35.167 41.167 -61.5 54.5s-60.833 20 -103.5 20h-148v-518h148z" />
    <glyph glyph-name="E" unicode="E" horiz-adv-x="515" 
d="M122 593v-204.998h254v-50c0 -16.667 -8.33301 -25 -25 -25h-229v-238h353v-48c0 -18 -9.33301 -27 -28 -27h-312c-26.667 0 -48.167 6.66699 -64.5 20s-24.5 31.666 -24.5 54.999v503c0 23.333 3.16699 41 9.5 53s14.5 20.667 24.5 26s20.833 8.16602 32.5 8.49902
s22.5 0.5 32.5 0.5h330v-53c0 -13.333 -7.33301 -20 -22 -20h-331z" />
    <glyph glyph-name="F" unicode="F" horiz-adv-x="505" 
d="M126 593l-0.000976562 -205h243v-56c0 -8.66699 -2 -14 -6 -16s-9.66699 -3 -17 -3h-220v-291c0 -8.66699 -2 -14.5 -6 -17.5s-9.66699 -4.5 -17 -4.5h-54v558c0 31.333 3.16699 54 9.5 68s16.333 24.167 30 30.5s38.834 9.5 75.501 9.5h306v-51
c0 -7.33301 -1.33301 -12.833 -4 -16.5s-8.66699 -5.5 -18 -5.5h-322z" />
    <glyph glyph-name="G" unicode="G" horiz-adv-x="612" 
d="M508 370c14 0 25 -2.83398 33 -8.50098s12 -18.167 12 -37.5v-295c-15.333 -7.33301 -33.333 -13.666 -54 -18.999s-45 -9.83301 -73 -13.5s-61.333 -5.5 -100 -5.5c-18 0 -37.333 1.66699 -58 5s-41.167 9.5 -61.5 18.5s-39.833 21.5 -58.5 37.5
s-35.167 36.833 -49.5 62.5s-25.833 56.334 -34.5 92.001s-13 78.167 -13 127.5c0 48.667 4.33301 91 13 127s20.167 66.667 34.5 92s31 45.833 50 61.5s38.667 28 59 37s40.833 15.167 61.5 18.5s40 5 58 5c34 0 64 -2 90 -6s48.5 -8.66699 67.5 -14s35.5 -11.333 49.5 -18
v-55c0 -6.66699 -1.66699 -11.5 -5 -14.5s-10.666 -1.83301 -21.999 3.5c-5.33301 2.66699 -14.333 6 -27 10s-27.334 7.66699 -44.001 11s-34.5 6.33301 -53.5 9s-37.5 4 -55.5 4c-38.667 0 -70.834 -7.33301 -96.501 -22s-46.167 -34.5 -61.5 -59.5
s-26.166 -53.833 -32.499 -86.5s-9.5 -67 -9.5 -103c0 -87.333 18.333 -153.5 55 -198.5s93.667 -67.5 171 -67.5c26.667 0 50.167 1.16699 70.5 3.5s38.833 7.16602 55.5 14.499v210h-130c-10 0 -16.333 2.33301 -19 7s-4 10.667 -4 18v49h182v0z" />
    <glyph glyph-name="H" unicode="H" horiz-adv-x="578" 
d="M540 666v-644.001c0 -6 -1.33301 -11.167 -4 -15.5s-8.66699 -6.5 -18 -6.5h-55v313h-334v-291c0 -8.66699 -2 -14.5 -6 -17.5s-9 -4.5 -15 -4.5h-54v640c0 7.33301 1.33301 13.5 4 18.5s8.66699 7.5 18 7.5h53v-278h334v257c0 6.66699 1.66699 11.834 5 15.501
s8 5.5 14 5.5h58z" />
    <glyph glyph-name="I" unicode="I" horiz-adv-x="210" 
d="M151 0l-79 -0.000976562v645c0 8.66699 1.83301 14.334 5.5 17.001s8.5 4 14.5 4h59v-666z" />
    <glyph glyph-name="J" unicode="J" horiz-adv-x="307" 
d="M261 666l0.00292969 -539c0 -40.667 -10.833 -70.667 -32.5 -90s-43.667 -31.833 -66 -37.5s-48.5 -8.5 -78.5 -8.5c-10.667 0 -22.334 0.5 -35.001 1.5s-25.667 3.16699 -39 6.5v56c0 7.33301 1.83301 12.333 5.5 15s8.16699 3.66699 13.5 3
c8.66699 -1.33301 18.167 -2.16602 28.5 -2.49902s19.166 -0.5 26.499 -0.5c31.333 0 55.666 3.66699 72.999 11s26 24.333 26 51v513c0 7.33301 2 12.666 6 15.999s9.33301 5 16 5h56z" />
    <glyph glyph-name="K" unicode="K" horiz-adv-x="566" 
d="M152 0h-76.001v645c0 8 1.83301 13.5 5.5 16.5s8.83398 4.5 15.501 4.5h55v-666zM459.999 0l-277.997 286.002c-9.33301 8.66699 -16.5 16.5 -21.5 23.5s-7.5 16.167 -7.5 27.5c0 10.667 2.66699 20.167 8 28.5s13 18.166 23 29.499l237 271h59
c8.66699 0 13.667 -2.33301 15 -7s-0.333984 -10.334 -5.00098 -17.001l-256 -305l303 -315c5.33301 -5.33301 7.66602 -10.333 6.99902 -15s-6.33398 -7 -17.001 -7h-67z" />
    <glyph glyph-name="L" unicode="L" horiz-adv-x="493" 
d="M464 75l0.000976562 -53.001c0 -5.33301 -1.16699 -10.333 -3.5 -15s-8.16602 -7 -17.499 -7h-240c-26.667 0 -49.334 3.66699 -68.001 11s-34 17.333 -46 30s-20.833 27.834 -26.5 45.501s-8.5 37.167 -8.5 58.5v500c0 14 6.33301 21 19 21h57v-500
c0 -33.333 7.16699 -56.833 21.5 -70.5s36.166 -20.5 65.499 -20.5h247z" />
    <glyph glyph-name="M" unicode="M" horiz-adv-x="789" 
d="M632 640c6.66699 10.667 15.833 18.1689 27.5 22.502s23.167 5.16602 34.5 2.49902s21.333 -8.83398 30 -18.501s13 -23.167 13 -40.5v-584c0 -7.33301 -1.33301 -12.833 -4 -16.5s-8.66699 -5.5 -18 -5.5h-52v548l-214 -305c-13.333 -18 -29.5 -27 -48.5 -27
s-35.167 9 -48.5 27l-214 305v-528c0 -4 -0.833008 -8.33301 -2.5 -13s-8.16699 -7 -19.5 -7h-52v605c0 18 4.16699 32 12.5 42s18.333 16.167 30 18.5s23.167 1.33301 34.5 -3s20.333 -11.833 27 -22.5l232 -341l232 341v0z" />
    <glyph glyph-name="N" unicode="N" horiz-adv-x="640" 
d="M585 666v-601.998c0 -18 -3.83301 -32.167 -11.5 -42.5s-16.834 -16.833 -27.501 -19.5s-22.167 -1.33398 -34.5 3.99902s-22.833 14.666 -31.5 27.999l-330 508v-514c0 -13.333 -2.66699 -21.333 -8 -24s-10.666 -4 -15.999 -4h-52v607c0 15.333 3.66699 28 11 38
s16.5 16.5 27.5 19.5s22.5 2 34.5 -3s22.667 -14.5 32 -28.5l332 -513v525c0 6 1.5 11 4.5 15s7.16699 6 12.5 6h57z" />
    <glyph glyph-name="O" unicode="O" horiz-adv-x="655" 
d="M328 676c60 0 108.168 -9.83301 144.501 -29.5s64.166 -45.834 83.499 -78.501s32 -69.167 38 -109.5s9 -81.833 9 -124.5c0 -44 -3 -86.167 -9 -126.5s-18.667 -76.833 -38 -109.5s-47.166 -58.667 -83.499 -78s-84.5 -29 -144.5 -29s-108 9.66699 -144 29
s-63.833 45.333 -83.5 78s-32.5 69.167 -38.5 109.5s-9 82.5 -9 126.5c0 42.667 3 84.167 9 124.5s18.833 76.833 38.5 109.5s47.667 58.834 84 78.501s84.166 29.5 143.499 29.5zM328.001 609c-43.333 0 -77.333 -7 -102 -21s-43.834 -33.333 -57.501 -58
s-23 -53.667 -28 -87s-7.5 -69.666 -7.5 -108.999c0 -40 2.5 -76.833 7.5 -110.5s14.333 -62.834 28 -87.501s32.834 -44 57.501 -58s58.667 -21 102 -21c42.667 0 76.667 7 102 21s44.833 33.333 58.5 58s22.667 53.834 27 87.501s6.5 70.5 6.5 110.5
c0 39.333 -2.16699 75.666 -6.5 108.999s-13.333 62.333 -27 87s-33.167 44 -58.5 58s-59.333 21 -102 21z" />
    <glyph glyph-name="P" unicode="P" horiz-adv-x="585" 
d="M289 678c40 0 75.3311 -5.5 105.998 -16.5s56.334 -26.5 77.001 -46.5s36.167 -44.167 46.5 -72.5s15.5 -59.833 15.5 -94.5c0 -34 -3.83301 -67.167 -11.5 -99.5s-20.5 -59.666 -38.5 -81.999s-42.667 -41 -74 -56s-72 -22.5 -122 -22.5
c-19.333 0 -39.666 1.33301 -60.999 4s-39.333 6.16699 -54 10.5s-26.334 8.16602 -35.001 11.499v-214h-76v619c19.333 10.667 39.833 20 61.5 28s46.334 15.167 74.001 21.5s58.167 9.5 91.5 9.5zM296.998 264c41.333 0.666992 72.1689 7.8291 92.502 21.4961
s35.833 29.834 46.5 48.501s17 38.5 19 59.5s3 39.167 3 54.5c0 19.333 -2.5 38.333 -7.5 57s-13.667 35.334 -26 50.001s-28.833 26.5 -49.5 35.5s-46.334 13.5 -77.001 13.5c-28.667 0 -52.834 -1.66699 -72.501 -5s-36.667 -7.16602 -51 -11.499
s-26.5 -9.16602 -36.5 -14.499v-278c8.66699 -5.33301 20.334 -10.333 35.001 -15s32.667 -8.5 54 -11.5s44.666 -4.5 69.999 -4.5z" />
    <glyph glyph-name="Q" unicode="Q" horiz-adv-x="658" 
d="M333 675c58.667 0 106.335 -8.83301 143.002 -26.5s64.667 -42.167 84 -73.5s32.166 -67.5 38.499 -108.5s9.5 -85.167 9.5 -132.5c0 -38.667 -2.33301 -75.334 -7 -110.001s-13 -66 -25 -94s-28 -52.167 -48 -72.5s-44.667 -35.5 -74 -45.5l133 -23v-52
c0 -5.33301 -1.66699 -9.83301 -5 -13.5s-10 -4.5 -20 -2.5c-2.66699 0 -9.33398 1.33301 -20.001 4l-39 9.5l-51 12.5l-57 15l-152 39c-40 10 -72.167 26 -96.5 48s-43 47.833 -56 77.5s-21.5 62.334 -25.5 98.001s-6 72.167 -6 109.5c0 47.333 3.33301 91.5 10 132.5
s19.667 77.167 39 108.5s47 55.833 83 73.5s83.333 26.5 142 26.5zM333.001 609c-42.667 0 -76.5 -7 -101.5 -21s-44.333 -33.167 -58 -57.5s-22.667 -53.333 -27 -87s-6.5 -70.167 -6.5 -109.5s2.16699 -75.833 6.5 -109.5s13.333 -62.834 27 -87.501
s33 -43.834 58 -57.501s58.833 -20.5 101.5 -20.5c43.333 0 77.5 6.83301 102.5 20.5s44.167 32.834 57.5 57.501s22.333 53.834 27 87.501s7 70.167 7 109.5s-2.33301 75.833 -7 109.5s-13.667 62.667 -27 87s-32.5 43.5 -57.5 57.5s-59.167 21 -102.5 21z" />
    <glyph glyph-name="R" unicode="R" horiz-adv-x="599" 
d="M571 22c4.66699 -8 5.16602 -13.667 1.49902 -17s-8.5 -5 -14.5 -5h-71l-190 265h-161v-265h-75v627c20 9.33301 40.833 17.5 62.5 24.5s45.834 13.167 72.501 18.5s54.667 8 84 8c80.667 0 141.5 -17.833 182.5 -53.5s61.5 -88.5 61.5 -158.5
c0 -44 -11.167 -82.5 -33.5 -115.5s-57.5 -57.5 -105.5 -73.5c122.667 -168.667 184.667 -253.667 186 -255zM304.999 335c16 0 32.3311 2.49902 48.998 7.49902s31.834 13.167 45.501 24.5s24.834 26 33.501 44s13 40.333 13 67c0 26 -4.33301 47.5 -13 64.5
s-21.167 30.333 -37.5 40s-36 16.5 -59 20.5s-48.833 6 -77.5 6c-17.333 0 -33.333 -1.16699 -48 -3.5s-27.667 -5.16602 -39 -8.49902s-23.333 -7.33301 -36 -12v-250h169z" />
    <glyph glyph-name="S" unicode="S" horiz-adv-x="576" 
d="M502 585c0 -6 -1.99707 -10.3262 -5.99707 -12.9932s-9.33301 -3 -16 -1c-10.667 2 -22.167 4.66699 -34.5 8s-26.666 6.83301 -42.999 10.5s-34.333 7 -54 10s-39.834 4.5 -60.501 4.5c-34.667 0 -62.334 -2.66699 -83.001 -8s-36.5 -12.833 -47.5 -22.5
s-18.167 -21.334 -21.5 -35.001s-5 -28.834 -5 -45.501c0 -25.333 5.16699 -44.833 15.5 -58.5s23.5 -23.834 39.5 -30.501s33.5 -11.167 52.5 -13.5s35.167 -4.16602 48.5 -5.49902l44 -4.5c16 -1.66699 32.833 -4.66699 50.5 -9s35.667 -10.333 54 -18
s34.833 -18.334 49.5 -32.001s26.667 -30.834 36 -51.501s14 -45.667 14 -75c0 -28 -3.83301 -54.333 -11.5 -79s-21.167 -46.167 -40.5 -64.5s-45.333 -32.833 -78 -43.5s-74 -16 -124 -16c-16.667 0 -35.167 1 -55.5 3s-40.333 4.66699 -60 8s-38.334 7 -56.001 11
s-33.167 8.66699 -46.5 14v55c0 6.66699 2 11.334 6 14.001s9 3 15 1l26.5 -8.5c11.667 -3.66699 25.667 -7.33398 42 -11.001s34.666 -6.66699 54.999 -9s41.5 -3.5 63.5 -3.5c66.667 0 114.334 10.333 143.001 31s43 51.667 43 93c0 30 -8 53.167 -24 69.5
s-34.833 28.333 -56.5 36s-43.834 12.5 -66.501 14.5s-43 4 -61 6s-38.833 5.66699 -62.5 11s-45.167 14.166 -64.5 26.499s-35.5 29.166 -48.5 50.499s-19.5 49.333 -19.5 84c0 37.333 6.33301 68.166 19 92.499s29.334 43.5 50.001 57.5s45.167 23.667 73.5 29
s58.166 8 89.499 8c32 0 61.167 -2 87.5 -6s49.833 -8.83301 70.5 -14.5s40 -12.167 58 -19.5v-50z" />
    <glyph glyph-name="T" unicode="T" horiz-adv-x="527" 
d="M501 666v-49.999c0 -8.66699 -2.16699 -14.834 -6.5 -18.501s-10.5 -5.5 -18.5 -5.5h-175v-592h-77v592h-199v54c0 6 2.16699 10.833 6.5 14.5s10.5 5.5 18.5 5.5h451z" />
    </font>
</defs>
</svg>
